<svg width="114" height="40" viewBox="0 0 114 40" fill="none" xmlns="http://www.w3.org/2000/svg">
<rect width="114" height="40" rx="8" fill="#E8E8E8"/>
<path d="M34.4609 15.6406L31.0625 25.5H29.0078L33.2891 14.125H34.6016L34.4609 15.6406ZM37.3047 25.5L33.8984 15.6406L33.75 14.125H35.0703L39.3672 25.5H37.3047ZM37.1406 21.2812V22.8359H30.9531V21.2812H37.1406ZM42.2031 18.6719V28.75H40.3203V17.0469H42.0547L42.2031 18.6719ZM47.7109 21.1953V21.3594C47.7109 21.974 47.638 22.5443 47.4922 23.0703C47.3516 23.5911 47.1406 24.0469 46.8594 24.4375C46.5833 24.8229 46.2422 25.1224 45.8359 25.3359C45.4297 25.5495 44.9609 25.6562 44.4297 25.6562C43.9036 25.6562 43.4427 25.5599 43.0469 25.3672C42.6562 25.1693 42.3255 24.8906 42.0547 24.5312C41.7839 24.1719 41.5651 23.75 41.3984 23.2656C41.237 22.776 41.1224 22.2396 41.0547 21.6562V21.0234C41.1224 20.4036 41.237 19.8411 41.3984 19.3359C41.5651 18.8307 41.7839 18.3958 42.0547 18.0312C42.3255 17.6667 42.6562 17.3854 43.0469 17.1875C43.4375 16.9896 43.8932 16.8906 44.4141 16.8906C44.9453 16.8906 45.4167 16.9948 45.8281 17.2031C46.2396 17.4062 46.5859 17.6979 46.8672 18.0781C47.1484 18.4531 47.3594 18.9062 47.5 19.4375C47.6406 19.9635 47.7109 20.5495 47.7109 21.1953ZM45.8281 21.3594V21.1953C45.8281 20.8047 45.7917 20.4427 45.7188 20.1094C45.6458 19.7708 45.5312 19.474 45.375 19.2188C45.2188 18.9635 45.0182 18.7656 44.7734 18.625C44.5339 18.4792 44.2448 18.4062 43.9062 18.4062C43.5729 18.4062 43.2865 18.4635 43.0469 18.5781C42.8073 18.6875 42.6068 18.8411 42.4453 19.0391C42.2839 19.237 42.1589 19.4688 42.0703 19.7344C41.9818 19.9948 41.9193 20.2786 41.8828 20.5859V22.1016C41.9453 22.4766 42.0521 22.8203 42.2031 23.1328C42.3542 23.4453 42.5677 23.6953 42.8438 23.8828C43.125 24.0651 43.4844 24.1562 43.9219 24.1562C44.2604 24.1562 44.5495 24.0833 44.7891 23.9375C45.0286 23.7917 45.224 23.5911 45.375 23.3359C45.5312 23.0755 45.6458 22.776 45.7188 22.4375C45.7917 22.099 45.8281 21.7396 45.8281 21.3594ZM51.2031 18.6719V28.75H49.3203V17.0469H51.0547L51.2031 18.6719ZM56.7109 21.1953V21.3594C56.7109 21.974 56.638 22.5443 56.4922 23.0703C56.3516 23.5911 56.1406 24.0469 55.8594 24.4375C55.5833 24.8229 55.2422 25.1224 54.8359 25.3359C54.4297 25.5495 53.9609 25.6562 53.4297 25.6562C52.9036 25.6562 52.4427 25.5599 52.0469 25.3672C51.6562 25.1693 51.3255 24.8906 51.0547 24.5312C50.7839 24.1719 50.5651 23.75 50.3984 23.2656C50.237 22.776 50.1224 22.2396 50.0547 21.6562V21.0234C50.1224 20.4036 50.237 19.8411 50.3984 19.3359C50.5651 18.8307 50.7839 18.3958 51.0547 18.0312C51.3255 17.6667 51.6562 17.3854 52.0469 17.1875C52.4375 16.9896 52.8932 16.8906 53.4141 16.8906C53.9453 16.8906 54.4167 16.9948 54.8281 17.2031C55.2396 17.4062 55.5859 17.6979 55.8672 18.0781C56.1484 18.4531 56.3594 18.9062 56.5 19.4375C56.6406 19.9635 56.7109 20.5495 56.7109 21.1953ZM54.8281 21.3594V21.1953C54.8281 20.8047 54.7917 20.4427 54.7188 20.1094C54.6458 19.7708 54.5312 19.474 54.375 19.2188C54.2188 18.9635 54.0182 18.7656 53.7734 18.625C53.5339 18.4792 53.2448 18.4062 52.9062 18.4062C52.5729 18.4062 52.2865 18.4635 52.0469 18.5781C51.8073 18.6875 51.6068 18.8411 51.4453 19.0391C51.2839 19.237 51.1589 19.4688 51.0703 19.7344C50.9818 19.9948 50.9193 20.2786 50.8828 20.5859V22.1016C50.9453 22.4766 51.0521 22.8203 51.2031 23.1328C51.3542 23.4453 51.5677 23.6953 51.8438 23.8828C52.125 24.0651 52.4844 24.1562 52.9219 24.1562C53.2604 24.1562 53.5495 24.0833 53.7891 23.9375C54.0286 23.7917 54.224 23.5911 54.375 23.3359C54.5312 23.0755 54.6458 22.776 54.7188 22.4375C54.7917 22.099 54.8281 21.7396 54.8281 21.3594ZM60.3281 13.5V25.5H58.4375V13.5H60.3281ZM66.1172 25.6562C65.4922 25.6562 64.9271 25.5547 64.4219 25.3516C63.9219 25.1432 63.4948 24.8542 63.1406 24.4844C62.7917 24.1146 62.5234 23.6797 62.3359 23.1797C62.1484 22.6797 62.0547 22.1406 62.0547 21.5625V21.25C62.0547 20.5885 62.151 19.9896 62.3438 19.4531C62.5365 18.9167 62.8047 18.4583 63.1484 18.0781C63.4922 17.6927 63.8984 17.3984 64.3672 17.1953C64.8359 16.9922 65.3438 16.8906 65.8906 16.8906C66.4948 16.8906 67.0234 16.9922 67.4766 17.1953C67.9297 17.3984 68.3047 17.6849 68.6016 18.0547C68.9036 18.4193 69.1276 18.8542 69.2734 19.3594C69.4245 19.8646 69.5 20.4219 69.5 21.0312V21.8359H62.9688V20.4844H67.6406V20.3359C67.6302 19.9974 67.5625 19.6797 67.4375 19.3828C67.3177 19.0859 67.1328 18.8464 66.8828 18.6641C66.6328 18.4818 66.2995 18.3906 65.8828 18.3906C65.5703 18.3906 65.2917 18.4583 65.0469 18.5938C64.8073 18.724 64.6068 18.9141 64.4453 19.1641C64.2839 19.4141 64.1589 19.7161 64.0703 20.0703C63.987 20.4193 63.9453 20.8125 63.9453 21.25V21.5625C63.9453 21.9323 63.9948 22.276 64.0938 22.5938C64.1979 22.9062 64.349 23.1797 64.5469 23.4141C64.7448 23.6484 64.9844 23.8333 65.2656 23.9688C65.5469 24.099 65.8672 24.1641 66.2266 24.1641C66.6797 24.1641 67.0833 24.0729 67.4375 23.8906C67.7917 23.7083 68.099 23.4505 68.3594 23.1172L69.3516 24.0781C69.1693 24.3438 68.9323 24.599 68.6406 24.8438C68.349 25.0833 67.9922 25.2786 67.5703 25.4297C67.1536 25.5807 66.6693 25.6562 66.1172 25.6562Z" fill="black"/>
<line x1="78.5" y1="8" x2="78.5" y2="32" stroke="#B3B3B3"/>
<path d="M102.722 20.6827C102.711 18.7162 103.593 17.232 105.378 16.139C104.379 14.6976 102.87 13.9046 100.878 13.7493C98.9915 13.5992 96.9299 14.8584 96.1753 14.8584C95.3783 14.8584 93.5505 13.8028 92.1158 13.8028C89.1509 13.8511 86 16.1872 86 20.9399C86 22.3437 86.255 23.7939 86.7651 25.2906C87.4453 27.2571 89.9001 32.0794 92.4612 31.999C93.8002 31.9669 94.746 31.0399 96.4888 31.0399C98.1785 31.0399 99.0553 31.999 100.548 31.999C103.131 31.9615 105.352 27.5786 106 25.6068C102.536 23.9618 102.722 20.7845 102.722 20.6827ZM99.7141 11.8846C101.165 10.1486 101.032 8.56796 100.989 8C99.7088 8.07501 98.2264 8.87873 97.3815 9.86998C96.4516 10.9309 95.9044 12.2436 96.0213 13.7225C97.4081 13.8296 98.6727 13.1116 99.7141 11.8846Z" fill="black"/>
</svg>
