<svg width="104" height="105" viewBox="0 0 104 105" fill="none" xmlns="http://www.w3.org/2000/svg">
<g clip-path="url(#clip0_4594_29784)">
<rect y="0.419922" width="104" height="104" rx="52" fill="white"/>
<path d="M48.441 79.5877L54.1136 68.2426L71.1431 55.4199L70.4901 61.5937L69.3472 71.1525L68.2043 80.7113C68.173 80.9729 68.0409 81.2094 67.8387 81.3674C67.7196 81.4604 67.5639 81.4826 67.4129 81.4776L49.0554 80.8655C48.8983 80.8603 48.7377 80.8253 48.624 80.7169C48.3263 80.4333 48.2477 79.9743 48.441 79.5877Z" fill="#FAFAFA"/>
<path d="M53.1431 79.9199C65.1431 78.3199 67.8097 64.9199 68.1431 58.4199H67.6431L52.1431 71.4199L49.6431 77.4199L53.1431 79.9199Z" fill="#EEEEEE"/>
<path d="M54.1136 68.2426L48.441 79.5877C48.2477 79.9743 48.3263 80.4333 48.624 80.7169C48.7377 80.8253 48.8983 80.8603 49.0554 80.8655L67.4129 81.4776C67.5639 81.4826 67.7196 81.4604 67.8387 81.3674C68.0409 81.2094 68.173 80.9729 68.2043 80.7113L69.3472 71.1525L70.4901 61.5937L71.1431 55.4199" stroke="#040A1F" stroke-opacity="0.6" stroke-linejoin="round"/>
<path fill-rule="evenodd" clip-rule="evenodd" d="M96 106.42H2V90.6128C2.08855 90.5146 2.181 90.4193 2.27723 90.3272C5.49384 87.2485 9.66231 85.3559 14.0973 84.9606L96 77.6606V106.42Z" fill="#EEEEEE"/>
<path fill-rule="evenodd" clip-rule="evenodd" d="M4.21138 91.5419L2 93.7062V90.6141C2.13475 90.4705 2.27352 90.3303 2.41618 90.1938L3.19308 89.4503C5.81709 86.9392 9.21736 85.3955 12.835 85.0731L96 77.6606V80.1754L11.4748 88.1712C8.73917 88.43 6.1752 89.6198 4.21138 91.5419Z" fill="#FAFAFA"/>
<path d="M13.854 84.9685L94.5 77.9199" stroke="#040A1F" stroke-opacity="0.6" stroke-linecap="round" stroke-linejoin="round"/>
<path d="M58.167 80.1982L49.167 77.3346C48.522 77.1294 47.8638 77.6107 47.8638 78.2875V82.6887C47.8638 83.1242 48.1456 83.5096 48.5606 83.6416L57.5606 86.5053C58.2055 86.7105 58.8638 86.2291 58.8638 85.5523V81.1511C58.8638 80.7157 58.582 80.3303 58.167 80.1982Z" fill="white"/>
<path d="M58.167 80.1982L49.167 77.3346C48.522 77.1294 47.8638 77.6107 47.8638 78.2875V82.6887C47.8638 83.1242 48.1456 83.5096 48.5606 83.6416L57.5606 86.5053C58.2055 86.7105 58.8638 86.2291 58.8638 85.5523V81.1511C58.8638 80.7157 58.582 80.3303 58.167 80.1982Z" fill="#F5F5F5"/>
<path d="M71.167 83.1416L62.167 86.0053C61.522 86.2105 60.8638 85.7291 60.8638 85.0523V80.6511C60.8638 80.2157 61.1456 79.8303 61.5606 79.6982L70.5606 76.8346C71.2055 76.6294 71.8638 77.1107 71.8638 77.7875V82.1887C71.8638 82.6242 71.582 83.0096 71.167 83.1416Z" fill="white"/>
<path d="M71.167 83.1416L62.167 86.0053C61.522 86.2105 60.8638 85.7291 60.8638 85.0523V80.6511C60.8638 80.2157 61.1456 79.8303 61.5606 79.6982L70.5606 76.8346C71.2055 76.6294 71.8638 77.1107 71.8638 77.7875V82.1887C71.8638 82.6242 71.582 83.0096 71.167 83.1416Z" fill="#F5F5F5"/>
<path d="M58.167 80.1982L49.167 77.3346C48.522 77.1294 47.8638 77.6107 47.8638 78.2875V82.6887C47.8638 83.1242 48.1456 83.5096 48.5606 83.6416L57.5606 86.5053C58.2055 86.7105 58.8638 86.2291 58.8638 85.5523V81.1511C58.8638 80.7157 58.582 80.3303 58.167 80.1982Z" stroke="#040A1F" stroke-opacity="0.6" stroke-linejoin="round"/>
<path d="M71.167 83.1416L62.167 86.0053C61.522 86.2105 60.8638 85.7291 60.8638 85.0523V80.6511C60.8638 80.2157 61.1456 79.8303 61.5606 79.6982L70.5606 76.8346C71.2055 76.6294 71.8638 77.1107 71.8638 77.7875V82.1887C71.8638 82.6242 71.582 83.0096 71.167 83.1416Z" stroke="#040A1F" stroke-opacity="0.6" stroke-linejoin="round"/>
<path d="M24.5 58.4199C22.5 54.4199 28.3334 36.4199 31.5 27.9199L65 25.9199L70.5 29.4199L73.5 38.4199L71 56.9199L67 62.9199C53.6667 63.0866 26.5 62.4199 24.5 58.4199Z" fill="white"/>
<path d="M44.3635 43.7427C42.3635 47.576 39.8635 54.6427 45.8635 52.2427" stroke="#040A1F" stroke-opacity="0.6" stroke-linecap="round" stroke-linejoin="round"/>
<circle cx="32.8638" cy="46.7427" r="1.5" fill="#040A1F" fill-opacity="0.6"/>
<circle cx="53.8638" cy="46.7427" r="1.5" fill="#040A1F" fill-opacity="0.6"/>
<path d="M29.8247 32.4199C22.4951 55.0668 20.3685 68.2426 36.8636 68.2426C46.1323 68.2426 52.9419 68.2426 57.6284 68.2426C62.1847 68.2426 66.1621 65.1627 67.3055 60.7522L67.9886 58.1176" stroke="#040A1F" stroke-opacity="0.6" stroke-linecap="round" stroke-linejoin="round"/>
<path d="M60.6926 42.4382C61.2046 41.7748 60.7905 40.8069 59.9571 40.7192L53.6223 40.0524C52.95 39.9816 52.3644 40.5088 52.3644 41.1848C52.3644 41.7768 52.8181 42.2701 53.4081 42.3195L59.7556 42.851C60.1178 42.8813 60.4706 42.7259 60.6926 42.4382Z" fill="#E0E0E0"/>
<path d="M60.6926 42.4382C61.2046 41.7748 60.7905 40.8069 59.9571 40.7192L53.6223 40.0524C52.95 39.9816 52.3644 40.5088 52.3644 41.1848V41.1848C52.3644 41.7768 52.8181 42.2701 53.4081 42.3195L59.7556 42.851C60.1178 42.8813 60.4706 42.7259 60.6926 42.4382V42.4382Z" stroke="#040A1F" stroke-opacity="0.38" stroke-linejoin="round"/>
<path d="M76.7711 49.6918C75.2041 46.7946 71.4814 47.3677 70.3614 49.5577L70.101 57.3319C73.6976 58.1233 79.2005 54.1839 76.7711 49.6918Z" fill="white"/>
<path d="M70.3614 49.5577C71.4814 47.3677 75.2042 46.7946 76.7711 49.6918C79.2005 54.1839 73.6976 58.1233 70.101 57.3319" stroke="#040A1F" stroke-opacity="0.6" stroke-linecap="round" stroke-linejoin="round"/>
<path d="M31.2095 42.1455C30.8268 41.5908 31.1739 40.8284 31.8436 40.7528L38.3002 40.0242C38.8521 39.9619 39.3465 40.3678 39.3929 40.9213C39.4383 41.4637 39.0354 41.9403 38.4929 41.9857L32.018 42.5278C31.6995 42.5545 31.391 42.4086 31.2095 42.1455Z" fill="#E0E0E0"/>
<path d="M31.2095 42.1455C30.8268 41.5908 31.1739 40.8284 31.8436 40.7528L38.3002 40.0242C38.8521 39.9619 39.3465 40.3678 39.3929 40.9213V40.9213C39.4383 41.4637 39.0354 41.9403 38.4929 41.9857L32.018 42.5278C31.6995 42.5545 31.391 42.4086 31.2095 42.1455V42.1455Z" stroke="#040A1F" stroke-opacity="0.38" stroke-linejoin="round"/>
<path d="M77.8638 44.4199V37.8194C77.8638 33.4909 74.5906 29.8633 70.2848 29.4199L69.1538 42.1545C68.9979 43.9092 70.3804 45.4199 72.142 45.4199H76.8638C77.4161 45.4199 77.8638 44.9722 77.8638 44.4199Z" fill="#E0E0E0"/>
<path fill-rule="evenodd" clip-rule="evenodd" d="M74.1418 45.4199H72.1418C70.3802 45.4199 68.9978 43.9092 69.1536 42.1545L70.2846 29.4199C70.9672 29.4902 71.6237 29.6405 72.2455 29.8609L71.1536 42.1545C70.9978 43.9092 72.3802 45.4199 74.1418 45.4199Z" fill="#BDBDBD"/>
<path fill-rule="evenodd" clip-rule="evenodd" d="M74.8636 37.8194V44.4199C74.8636 44.9722 74.4159 45.4199 73.8636 45.4199H76.8636C77.4159 45.4199 77.8636 44.9722 77.8636 44.4199V37.8194C77.8636 33.4909 74.5904 29.8633 70.2846 29.4199L70.209 30.2718C72.9881 31.6681 74.8636 34.5429 74.8636 37.8194Z" fill="#F5F5F5"/>
<path d="M77.8638 44.4199V37.8194C77.8638 33.4909 74.5906 29.8633 70.2848 29.4199L69.1538 42.1545C68.9979 43.9092 70.3804 45.4199 72.142 45.4199H76.8638C77.4161 45.4199 77.8638 44.9722 77.8638 44.4199Z" stroke="#040A1F" stroke-opacity="0.6" stroke-linejoin="round"/>
<path d="M47.5639 52.9199H39.3639C38.4722 52.9199 37.6702 54.7427 37.0723 56.7546C36.9435 57.1882 36.5495 57.4926 36.0972 57.4926H26.2923C25.1571 57.4926 24.1656 58.2605 23.8818 59.3597C21.8471 67.2393 27.7965 74.9199 35.9344 74.9199H52.0623C58.7534 74.9199 64.6354 70.4882 66.4806 64.0566L67.9979 58.7683C68.1812 58.1293 67.7015 57.4926 67.0367 57.4926H52.6638C51.3551 57.4926 50.2562 56.5073 50.1139 55.2062C49.9716 53.9052 48.8727 52.9199 47.5639 52.9199Z" fill="#E0E0E0"/>
<path d="M39.3639 52.9199H47.5639C48.8727 52.9199 49.9716 53.9052 50.1139 55.2062C50.2561 56.5073 51.355 57.4926 52.6638 57.4926H67.0366C67.7015 57.4926 68.1812 58.1293 67.9978 58.7683L66.4806 64.0566C65.6241 67.0418 63.898 69.5962 61.625 71.4765C62.9119 69.9206 63.8977 68.0884 64.4806 66.0566L65.9978 60.7683C66.1812 60.1293 65.7015 59.4926 65.0366 59.4926H50.6638C49.355 59.4926 48.2561 58.5073 48.1139 57.2062C47.9716 55.9052 46.8727 54.9199 45.5639 54.9199H37.7114C38.1974 53.7556 38.7601 52.9199 39.3639 52.9199Z" fill="#EEEEEE"/>
<path d="M25.838 57.5342C23.9351 65.3522 29.8565 72.9199 37.9344 72.9199H54.0623C57.6478 72.9199 61.0009 71.6474 63.6251 69.4765C60.8383 72.846 56.6397 74.9199 52.0623 74.9199H35.9344C27.7965 74.9199 21.8471 67.2393 23.8818 59.3597C24.1269 58.4102 24.9002 57.7078 25.838 57.5342Z" fill="#BDBDBD"/>
<path d="M47.5638 52.9199H39.3638C38.4721 52.9199 37.6701 54.7427 37.0722 56.7546C36.9434 57.1882 36.5494 57.4926 36.0971 57.4926H26.2922C25.1569 57.4926 24.1655 58.2605 23.8816 59.3597C21.847 67.2393 27.7963 74.9199 35.9343 74.9199H52.0622C58.7533 74.9199 64.6353 70.4882 66.4805 64.0566L67.9978 58.7683C68.1811 58.1293 67.7014 57.4926 67.0365 57.4926H52.6637C51.3549 57.4926 50.256 56.5073 50.1138 55.2062C49.9715 53.9052 48.8726 52.9199 47.5638 52.9199Z" stroke="#040A1F" stroke-opacity="0.6" stroke-linejoin="round"/>
<path d="M40.6431 55.4199C41.6431 56.1745 44.2431 57.231 46.6431 55.4199" stroke="#040A1F" stroke-opacity="0.38" stroke-linecap="round" stroke-linejoin="round"/>
<path d="M79.2163 33.5334C79.2163 35.3315 78.9541 37.0744 78.4687 38.733C78.3479 39.1457 77.9634 39.4199 77.5334 39.4199H66.6978L64.5454 32.0403L59.1155 29.1183L36.8459 25.8573C40.1478 18.5569 48.0178 13.4199 57.2011 13.4199C69.3598 13.4199 79.2163 22.425 79.2163 33.5334Z" fill="#F5F5F5"/>
<path fill-rule="evenodd" clip-rule="evenodd" d="M73.9202 39.4198H66.698L59.7935 33.1157C62.4384 34.8327 64.7646 36.9156 66.6784 39.2809C66.6919 39.0076 66.6987 38.7329 66.6987 38.4568C66.6987 27.9582 56.8284 19.4217 44.5545 19.2019L44.5498 19.1976C53.056 18.5556 70.8387 21.7013 73.9202 39.4198Z" fill="#E0E0E0"/>
<path d="M66.698 39.4199H77.5335C77.9636 39.4199 78.3481 39.1457 78.4689 38.733C78.9543 37.0744 79.2165 35.3315 79.2165 33.5334C79.2165 22.425 69.3599 13.4199 57.2012 13.4199C52.4926 13.4199 48.1292 14.7705 44.5498 17.0707" stroke="#040A1F" stroke-opacity="0.6" stroke-linecap="round" stroke-linejoin="round"/>
<path d="M66.6782 39.2811C66.6917 39.0078 66.6986 38.7331 66.6986 38.457C66.6986 27.8204 56.5669 19.1978 44.0689 19.1978C35.6096 19.1978 28.2343 23.1481 24.3511 28.9995C23.3053 30.5755 25.1783 32.0524 26.8783 31.223C31.2669 29.0819 36.3046 27.8644 41.6615 27.8644C51.9626 27.8644 61.0831 32.3661 66.6782 39.2811Z" fill="#FAFAFA"/>
<path d="M66.6777 39.2811C66.6777 28.6445 56.5665 19.1978 44.0685 19.1978C35.6091 19.1978 28.2338 23.1481 24.3506 28.9995C23.3048 30.5755 25.1779 32.0524 26.8778 31.223C31.2664 29.0819 36.3041 27.8644 41.661 27.8644C51.9621 27.8644 61.0826 32.3661 66.6777 39.2811Z" stroke="#040A1F" stroke-opacity="0.6" stroke-linejoin="round"/>
</g>
<rect x="0.5" y="0.919922" width="103" height="103" rx="51.5" stroke="#E0E0E0"/>
<defs>
<clipPath id="clip0_4594_29784">
<rect y="0.419922" width="104" height="104" rx="52" fill="white"/>
</clipPath>
</defs>
</svg>
