<svg width="104" height="105" viewBox="0 0 104 105" fill="none" xmlns="http://www.w3.org/2000/svg">
<g clip-path="url(#clip0_4594_29957)">
<rect y="0.419922" width="104" height="104" rx="52" fill="white"/>
<path fill-rule="evenodd" clip-rule="evenodd" d="M22.8342 37.0851C23.8013 33.8362 24.975 30.2397 26.2877 26.2824C27.6447 22.1913 31.4791 19.4198 35.7893 19.4198H37.8608C37.3314 17.2265 35.3561 15.5972 33.0002 15.5972C30.7099 15.5972 28.7792 17.1371 28.1871 19.2381C25.0985 19.3506 22.0741 20.9795 20.2481 23.8514C17.3797 28.3628 18.5435 34.2509 22.8342 37.0851Z" fill="#E0E0E0"/>
<path fill-rule="evenodd" clip-rule="evenodd" d="M23.2378 35.7477C23.0996 36.1999 22.965 36.6457 22.8342 37.0851C18.5435 34.2509 17.3797 28.3628 20.2481 23.8514C22.0741 20.9795 25.0985 19.3506 28.1871 19.2381C28.7792 17.1371 30.7099 15.5972 33.0002 15.5972C33.3427 15.5972 33.6771 15.6316 34.0002 15.6972C32.1624 16.0702 30.6907 17.4513 30.1871 19.2381C27.0985 19.3506 24.0741 20.9795 22.2481 23.8514C19.7758 27.7397 20.2989 32.6508 23.2378 35.7477Z" fill="#F5F5F5"/>
<path d="M37.8601 19.4198C37.3307 17.2265 35.3554 15.5972 32.9995 15.5972C30.7091 15.5972 28.7785 17.1371 28.1864 19.2382C25.0978 19.3507 22.0736 20.9796 20.2476 23.8514C17.8609 27.6051 18.2658 32.3121 20.9409 35.4198" stroke="#040A1F" stroke-opacity="0.6" stroke-linecap="round" stroke-linejoin="round"/>
<path d="M49.5 61.4199L46 67.9199L56.5 71.9199L69.5 68.4199L72.5 44.4199L71 43.9199L61 61.4199H49.5Z" fill="#FAFAFA"/>
<path fill-rule="evenodd" clip-rule="evenodd" d="M49.2491 61.5973L44.5464 71.0026C49.2724 70.1306 58.7701 67.0725 63 60.9199L55.3808 61.1657C54.4551 61.4472 53.4773 61.5973 52.4721 61.5973H49.2491Z" fill="#EEEEEE"/>
<path d="M73.2879 38.042L69.1718 72.2929M49.0834 62.1826L42.8164 74.7165" stroke="#040A1F" stroke-opacity="0.6" stroke-linecap="round" stroke-linejoin="round"/>
<path d="M33.864 61.4199C15.3671 61.4199 18.1727 50.7469 26.2875 26.2825C27.6445 22.1914 31.4788 19.4199 35.7891 19.4199H67.8899C73.2062 19.4199 77.0437 24.5095 75.5812 29.6207L68.5567 54.1708C67.3288 58.462 63.411 61.4199 58.9477 61.4199H33.864Z" fill="white"/>
<path d="M67.4504 57.0038L71 47.4199L69.5 41.9199L64.0513 54.7632C63.1108 56.9801 60.936 58.4199 58.5278 58.4199H21.5L24.7704 60.4639C25.2472 60.7619 25.7981 60.9199 26.3604 60.9199H61.8239C64.3339 60.9199 66.5787 59.3576 67.4504 57.0038Z" fill="#F5F5F5"/>
<path d="M27.0216 33.8837C26.951 33.0406 27.6354 32.3264 28.4807 32.3609L34.0073 32.5867C34.5425 32.6085 34.9778 33.0255 35.0225 33.5594C35.0714 34.144 34.6372 34.6576 34.0525 34.7066L28.5407 35.1681C27.7665 35.2329 27.0864 34.6579 27.0216 33.8837Z" fill="#E0E0E0"/>
<path d="M27.0216 33.8837C26.951 33.0406 27.6354 32.3264 28.4807 32.3609L34.0073 32.5867C34.5425 32.6085 34.9778 33.0255 35.0225 33.5594V33.5594C35.0714 34.144 34.6372 34.6576 34.0525 34.7066L28.5407 35.1681C27.7665 35.2329 27.0864 34.6579 27.0216 33.8837V33.8837Z" stroke="#040A1F" stroke-opacity="0.38" stroke-linejoin="round"/>
<path d="M56.0897 34.2123C56.1603 33.3692 55.476 32.655 54.6306 32.6895L49.1041 32.9153C48.5688 32.9371 48.1336 33.3542 48.0889 33.888C48.0399 34.4726 48.4742 34.9862 49.0588 35.0352L54.5706 35.4967C55.3448 35.5615 56.0249 34.9865 56.0897 34.2123Z" fill="#E0E0E0"/>
<path d="M56.0897 34.2123C56.1603 33.3692 55.476 32.655 54.6306 32.6895L49.1041 32.9153C48.5688 32.9371 48.1336 33.3542 48.0889 33.888V33.888C48.0399 34.4726 48.4742 34.9862 49.0588 35.0352L54.5706 35.4967C55.3448 35.5615 56.0249 34.9865 56.0897 34.2123V34.2123Z" stroke="#040A1F" stroke-opacity="0.38" stroke-linejoin="round"/>
<circle cx="28.5" cy="39.457" r="1.5" fill="#040A1F" fill-opacity="0.6"/>
<circle cx="49.5" cy="39.457" r="1.5" fill="#040A1F" fill-opacity="0.6"/>
<path d="M62.4998 19.4199H35.7891C31.4788 19.4199 27.6445 22.1914 26.2875 26.2825C18.1727 50.7469 15.3671 61.4199 33.864 61.4199C45.3758 61.4199 53.5733 61.4199 58.9476 61.4199C63.411 61.4199 67.3288 58.462 68.5566 54.1708L69.2007 51.9199" stroke="#040A1F" stroke-opacity="0.6" stroke-linecap="round" stroke-linejoin="round"/>
<path d="M35.4152 43.8098C39.3133 43.2758 40.9118 44.6313 41.2272 45.4197C43.2272 52.4197 24.2272 50.4197 26.7272 48.9197C28.098 48.0972 30.0168 47.3844 31.5178 46.9099C31.9004 46.789 31.8684 46.1932 31.4727 46.1273C31.1082 46.0665 31.0585 45.5916 31.4106 45.4796C32.834 45.0267 34.1689 44.8646 35.1909 44.8389C35.4568 44.8322 35.5868 44.3495 35.3489 44.2306C35.1498 44.131 35.1946 43.84 35.4152 43.8098Z" fill="#EEEEEE"/>
<path d="M41.2615 35.4199C39.2615 39.2533 36.7615 46.3199 42.7615 43.9199" stroke="#040A1F" stroke-opacity="0.6" stroke-linecap="round" stroke-linejoin="round"/>
<path d="M47.6863 43.5412C43.7883 43.0073 42.1898 44.3627 41.8744 45.1512C39.8744 52.1512 58.8744 50.1512 56.3744 48.6512C55.0036 47.8287 53.0848 47.1158 51.5838 46.6414C51.2012 46.5204 51.2331 45.9247 51.6289 45.8587C51.9934 45.798 52.043 45.323 51.6909 45.211C50.2676 44.7581 48.9327 44.596 47.9106 44.5704C47.6448 44.5637 47.5148 44.081 47.7526 43.962C47.9518 43.8624 47.907 43.5714 47.6863 43.5412Z" fill="#EEEEEE"/>
<path d="M35.0245 43.8684C39.2071 43.1864 40.9015 44.6054 41.2272 45.4197C43.2272 52.4197 24.2272 50.4197 26.7272 48.9197C28.5224 47.8426 31.2575 46.9535 32.7631 46.5416C32.8677 46.513 32.8599 46.3585 32.7529 46.3407L30.5638 45.9758C30.4653 45.9594 30.4501 45.8262 30.5429 45.7894C32.7473 44.9134 34.8517 44.7815 36.067 44.8511C36.1816 44.8576 36.235 44.6736 36.1324 44.6223L34.9955 44.0539C34.9096 44.0109 34.9297 43.8839 35.0245 43.8684Z" stroke="#040A1F" stroke-opacity="0.6" stroke-linejoin="round"/>
<path d="M48.0771 43.5999C43.8944 42.9178 42.2001 44.3369 41.8744 45.1512C39.8744 52.1512 58.8744 50.1512 56.3744 48.6512C54.5792 47.574 51.8441 46.6849 50.3385 46.2731C50.2339 46.2444 50.2416 46.0899 50.3486 46.0721L52.5377 45.7073C52.6362 45.6908 52.6515 45.5577 52.5586 45.5208C50.3543 44.6449 48.2499 44.5129 47.0345 44.5825C46.9199 44.5891 46.8665 44.4051 46.9692 44.3537L48.106 43.7853C48.192 43.7423 48.1719 43.6153 48.0771 43.5999Z" stroke="#040A1F" stroke-opacity="0.6" stroke-linejoin="round"/>
<path d="M39 49.4199C39.8333 50.0866 42.1 51.0199 44.5 49.4199" stroke="#040A1F" stroke-opacity="0.38" stroke-linecap="round" stroke-linejoin="round"/>
<path d="M40 53.8618C40.6667 53.5285 42.4 53.0618 44 53.8618" stroke="#040A1F" stroke-opacity="0.6" stroke-linecap="round" stroke-linejoin="round"/>
<path d="M34.5 24.9199H37.5" stroke="#040A1F" stroke-opacity="0.6" stroke-linecap="round" stroke-linejoin="round"/>
<path d="M36.5 27.4199H38.5" stroke="#040A1F" stroke-opacity="0.6" stroke-linecap="round" stroke-linejoin="round"/>
<path d="M55.5 25.4199H57.5" stroke="#040A1F" stroke-opacity="0.6" stroke-linecap="round" stroke-linejoin="round"/>
<path d="M54.5 27.4199H56.5" stroke="#040A1F" stroke-opacity="0.6" stroke-linecap="round" stroke-linejoin="round"/>
<path fill-rule="evenodd" clip-rule="evenodd" d="M72 15.4199C74.6566 15.4199 76.8733 17.3035 77.3875 19.8079C80.3591 20.8051 82.5 23.6125 82.5 26.9199C82.5 28.5396 81.9865 30.0395 81.1135 31.2655C81.9902 32.6025 82.5 34.2017 82.5 35.9199C82.5 40.6143 78.6944 44.4199 74 44.4199C69.3056 44.4199 65.5 40.6143 65.5 35.9199C65.5 35.495 65.5312 35.0773 65.5914 34.669C63.7477 33.6452 62.5 31.6783 62.5 29.4199C62.5 27.272 63.6286 25.3878 65.3251 24.3278C64.2723 24.0333 63.5 23.0668 63.5 21.9199C63.5 20.5392 64.6193 19.4199 66 19.4199C66.2362 19.4199 66.4648 19.4527 66.6814 19.5139C67.3026 17.1575 69.4484 15.4199 72 15.4199Z" fill="white"/>
<path fill-rule="evenodd" clip-rule="evenodd" d="M72 15.4199C74.4558 15.4199 76.5356 17.0294 77.2423 19.2511C77.3503 19.5906 77.5976 19.8729 77.9256 20.012C80.6141 21.152 82.5 23.8157 82.5 26.9199C82.5 28.2949 82.13 29.5834 81.4841 30.6914C81.2766 31.0475 81.2674 31.4898 81.4649 31.8515C82.1249 33.0598 82.5 34.4461 82.5 35.9199C82.5 40.6143 78.6944 44.4199 74 44.4199C69.3056 44.4199 65.5 40.6143 65.5 35.9199C65.5 35.7307 65.5062 35.5429 65.5184 35.3567C65.5455 34.9414 65.3455 34.5417 65.0073 34.2991C63.4891 33.2104 62.5 31.4307 62.5 29.4199C62.5 28.0861 62.9352 26.8539 63.6714 25.8577C64.1879 25.1588 64.0199 23.6766 63.6882 22.8734C63.5669 22.5796 63.5 22.2576 63.5 21.9199C63.5 20.5392 64.6193 19.4199 66 19.4199C66.3791 19.4199 66.7568 19.211 66.8989 18.8595C67.7143 16.8428 69.691 15.4199 72 15.4199Z" fill="#E0E0E0"/>
<path fill-rule="evenodd" clip-rule="evenodd" d="M75.1666 16.4224C74.2713 15.7909 73.1789 15.4199 72 15.4199C69.691 15.4199 67.7143 16.8428 66.8989 18.8595C66.7568 19.211 66.3791 19.4199 66 19.4199C64.6193 19.4199 63.5 20.5392 63.5 21.9199C63.5 22.2576 63.5669 22.5796 63.6882 22.8734C64.0199 23.6766 64.1879 25.1588 63.6714 25.8577C62.9352 26.8539 62.5 28.0861 62.5 29.4199C62.5 31.4307 63.4891 33.2104 65.0073 34.2991C65.3455 34.5417 65.5455 34.9414 65.5184 35.3567C65.5062 35.5429 65.5 35.7307 65.5 35.9199C65.5 40.2268 68.7032 43.7856 72.8572 44.3438C70.2576 42.8899 68.5 40.1102 68.5 36.9199C68.5 36.7307 68.5062 36.5429 68.5184 36.3567C68.5455 35.9414 68.3455 35.5417 68.0073 35.2991C66.4891 34.2104 65.5 32.4307 65.5 30.4199C65.5 29.0861 65.9352 27.8539 66.6714 26.8577C67.1879 26.1588 67.0199 24.6766 66.6882 23.8734C66.5669 23.5796 66.5 23.2576 66.5 22.9199C66.5 21.5392 67.6193 20.4199 69 20.4199C69.3791 20.4199 69.7568 20.211 69.8989 19.8595C70.7143 17.8428 72.691 16.4199 75 16.4199C75.0557 16.4199 75.1113 16.4208 75.1666 16.4224Z" fill="#EEEEEE"/>
<path d="M67.8965 41.8351C69.4415 43.429 71.6052 44.4197 74.0004 44.4197C78.6948 44.4197 82.5004 40.6141 82.5004 35.9197C82.5004 34.4458 82.1252 33.0596 81.4653 31.8512C81.2677 31.4895 81.277 31.0472 81.4845 30.6912C82.1304 29.5832 82.5004 28.2946 82.5004 26.9197C82.5004 23.8155 80.5005 20.9196 77.926 20.0117C79.0005 21.4196 79.5004 21.8155 79.5004 24.9197C79.5004 26.2946 79.1304 27.5832 78.4845 28.6912C78.277 29.0472 78.2677 29.4895 78.4653 29.8512C79.1252 31.0596 79.5004 32.4458 79.5004 33.9197C79.5004 38.6141 75.6948 42.4197 71.0004 42.4197C69.905 42.4197 68.858 42.2125 67.8965 41.8351Z" fill="#BDBDBD"/>
<path d="M66.8989 18.8595L66.4354 18.6721L66.8989 18.8595ZM65.0073 34.2991L64.7159 34.7054L65.0073 34.2991ZM81.4841 30.6914L81.0522 30.4396L81.4841 30.6914ZM81.4649 31.8515L81.9037 31.6118L81.4649 31.8515ZM77.2423 19.2511L77.7187 19.0995L77.2423 19.2511ZM77.9256 20.012L78.1208 19.5517L77.9256 20.012ZM77.7187 19.0995C76.948 16.6764 74.6798 14.9199 72 14.9199V15.9199C74.2318 15.9199 76.1232 17.3825 76.7658 19.4026L77.7187 19.0995ZM83 26.9199C83 23.608 80.9876 20.7673 78.1208 19.5517L77.7304 20.4723C80.2407 21.5368 82 24.0235 82 26.9199H83ZM81.9161 30.9432C82.6053 29.7609 83 28.3857 83 26.9199H82C82 28.2041 81.6547 29.406 81.0522 30.4396L81.9161 30.9432ZM81.0261 32.0911C81.6469 33.2278 82 34.5319 82 35.9199H83C83 34.3602 82.6028 32.8918 81.9037 31.6118L81.0261 32.0911ZM82 35.9199C82 40.3382 78.4183 43.9199 74 43.9199V44.9199C78.9706 44.9199 83 40.8905 83 35.9199H82ZM74 43.9199C69.5817 43.9199 66 40.3382 66 35.9199H65C65 40.8905 69.0294 44.9199 74 44.9199V43.9199ZM66 35.9199C66 35.7416 66.0058 35.5647 66.0173 35.3894L65.0194 35.3241C65.0065 35.5211 65 35.7198 65 35.9199H66ZM62 29.4199C62 31.5986 63.0724 33.5268 64.7159 34.7054L65.2987 33.8928C63.9058 32.8939 63 31.2627 63 29.4199H62ZM63.2693 25.5605C62.4717 26.6399 62 27.9755 62 29.4199H63C63 28.1966 63.3988 27.068 64.0736 26.1548L63.2693 25.5605ZM63 21.9199C63 22.3242 63.0802 22.7109 63.2261 23.0642L64.1504 22.6826C64.0536 22.4482 64 22.1909 64 21.9199H63ZM66 18.9199C64.3431 18.9199 63 20.2631 63 21.9199H64C64 20.8154 64.8954 19.9199 66 19.9199V18.9199ZM72 14.9199C69.4803 14.9199 67.3245 16.4729 66.4354 18.6721L67.3625 19.0469C68.1041 17.2126 69.9017 15.9199 72 15.9199V14.9199ZM64.0736 26.1548C64.4338 25.6673 64.5177 24.9807 64.4976 24.3877C64.4769 23.7759 64.3413 23.1449 64.1504 22.6826L63.2261 23.0642C63.3669 23.4051 63.4811 23.9168 63.4982 24.4216C63.5159 24.9452 63.4255 25.3492 63.2693 25.5605L64.0736 26.1548ZM66 19.9199C66.5403 19.9199 67.1292 19.6239 67.3625 19.0469L66.4354 18.6721C66.3845 18.7981 66.2178 18.9199 66 18.9199V19.9199ZM66.0173 35.3894C66.0563 34.7924 65.7696 34.2305 65.2987 33.8928L64.7159 34.7054C64.9215 34.8528 65.0347 35.0903 65.0194 35.3241L66.0173 35.3894ZM81.0522 30.4396C80.7579 30.9445 80.7432 31.5732 81.0261 32.0911L81.9037 31.6118C81.7915 31.4064 81.7953 31.1505 81.9161 30.9432L81.0522 30.4396ZM76.7658 19.4026C76.9157 19.8739 77.2612 20.2733 77.7304 20.4723L78.1208 19.5517C77.934 19.4724 77.7848 19.3074 77.7187 19.0995L76.7658 19.4026Z" fill="#040A1F" fill-opacity="0.6"/>
<path d="M72.0896 37.2894C70.064 34.258 66.0128 35.2684 65 37.7947L65.5064 46.3839C69.5576 46.8892 75.2302 41.9896 72.0896 37.2894Z" fill="white"/>
<path d="M65 37.7947C66.0128 35.2684 70.064 34.2579 72.0896 37.2894C75.2302 41.9896 69.5576 46.8892 65.5064 46.3839" stroke="#040A1F" stroke-opacity="0.6" stroke-linecap="round" stroke-linejoin="round"/>
<path fill-rule="evenodd" clip-rule="evenodd" d="M100.907 70.0986L11.0139 79.3961C5.38855 79.9779 0.6397 83.2592 -2 87.8732V104.42H100.907V70.0986Z" fill="#EEEEEE"/>
<path fill-rule="evenodd" clip-rule="evenodd" d="M100.907 70.0986L11.1761 78.5109C5.48449 79.0445 0.666626 82.3431 -2 87.0038V90.3594C0.666636 85.6986 5.48447 82.4001 11.1761 81.8665L100.907 73.4542V70.0986Z" fill="#F5F5F5"/>
<path d="M9 78.4199L99 70.4199" stroke="#040A1F" stroke-opacity="0.6" stroke-linecap="round" stroke-linejoin="round"/>
<path d="M41.96 70.3011L40.953 74.4335C40.7016 75.465 41.3018 76.5174 42.3264 76.7955C57.6936 80.9659 68.0956 77.5698 72.1751 74.8483C72.6761 74.514 72.9423 73.9366 72.9423 73.3343V70.1395C72.9423 68.8026 71.6549 67.8423 70.358 68.1666C59.1295 70.9739 49.6196 70.0112 44.6326 68.7665C43.4735 68.4773 42.2429 69.1404 41.96 70.3011Z" fill="white"/>
<path d="M42.3932 70.4725L41.0484 73.0676C40.1849 74.7338 41.0485 76.7809 42.8733 77.219C57.0081 80.6127 67.4538 77.6656 71.7695 75.093C72.5455 74.6304 72.9437 73.7617 72.9437 72.8583V71.4787C72.9437 69.4734 71.0126 68.034 69.0582 68.4831C58.8885 70.8205 50.8083 70.0177 46.1429 68.8794C44.6739 68.521 43.0889 69.1299 42.3932 70.4725Z" fill="#FAFAFA"/>
<path fill-rule="evenodd" clip-rule="evenodd" d="M40.7686 75.0133C54.8364 78.3571 65.2305 75.4203 69.5326 72.8557C70.3086 72.3931 70.7068 71.5245 70.7068 70.6211V69.2415C70.7068 68.849 70.6329 68.4783 70.4993 68.1391C71.7471 67.9115 72.944 68.8502 72.944 70.1393V72.8582C72.944 73.7616 72.5457 74.6302 71.7697 75.0928C67.4541 77.6655 57.0084 80.6126 42.8735 77.2189C41.7388 76.9464 40.9757 76.0517 40.7686 75.0133Z" fill="#EEEEEE"/>
<path d="M42.7991 69.6893L40.4948 74.1358C39.9192 75.2466 40.498 76.6108 41.7085 76.9271C56.9012 80.8959 68.0245 77.536 72.1721 74.8427C72.6772 74.5147 72.9437 73.9366 72.9437 73.3343V70.1395C72.9437 68.8026 71.6564 67.8426 70.3601 68.1694C58.9147 71.0551 49.9587 69.9513 45.2874 68.6569C44.316 68.3877 43.2629 68.7943 42.7991 69.6893Z" stroke="#040A1F" stroke-opacity="0.6" stroke-linecap="round" stroke-linejoin="round"/>
<ellipse opacity="0.5" cx="30.2857" cy="39.9199" rx="6.28571" ry="5.5" fill="#EEEEEE"/>
<ellipse opacity="0.5" cx="50.2427" cy="39.9199" rx="6.28571" ry="5.5" fill="#EEEEEE"/>
<ellipse cx="30.2857" cy="39.9199" rx="6.28571" ry="5.5" stroke="#040A1F" stroke-opacity="0.6" stroke-linecap="round" stroke-linejoin="round"/>
<ellipse cx="50.2427" cy="39.9199" rx="6.28571" ry="5.5" stroke="#040A1F" stroke-opacity="0.6" stroke-linecap="round" stroke-linejoin="round"/>
<path d="M36.1001 38.8198H44.3501" stroke="#040A1F" stroke-opacity="0.6" stroke-linecap="round" stroke-linejoin="round"/>
</g>
<rect x="0.5" y="0.919922" width="103" height="103" rx="51.5" stroke="#E0E0E0"/>
<defs>
<clipPath id="clip0_4594_29957">
<rect y="0.419922" width="104" height="104" rx="52" fill="white"/>
</clipPath>
</defs>
</svg>
