<svg xmlns="http://www.w3.org/2000/svg" viewBox="0 0 759.54 584.94"><defs><style>.cls-1{fill:#9f9f9f;}.cls-2{fill:#008FFF;}.cls-3{fill:#fff;}.cls-4{fill:#a09f9f;}</style></defs><g id="Layer_2" data-name="Layer 2"><g id="Layer_1-2" data-name="Layer 1"><path class="cls-1" d="M380,357.76H718.62a38.44,38.44,0,0,1,24.21,8.18,39.86,39.86,0,0,1,15.32,23.42c.37,1.65.59,3.3.82,5a108.94,108.94,0,0,1,.53,15.11q0,65.2,0,130.42a85.63,85.63,0,0,1-.84,10.88A34.18,34.18,0,0,1,754.53,563c-5.22,9.44-12.78,16.22-23.11,19.7a40.18,40.18,0,0,1-13.17,2.24c-1.41,0-2.81,0-4.21,0H41.32a40.15,40.15,0,0,1-23.64-7.49A40.29,40.29,0,0,1,1.53,554.1a54.13,54.13,0,0,1-1-6.2A94.66,94.66,0,0,1,0,535.31Q0,469,0,402.78c0-3.66.66-7.25.78-10.89A44.66,44.66,0,0,1,5.2,379.26a41,41,0,0,1,28.56-20.83,36.93,36.93,0,0,1,7.09-.67H380Z"/><path class="cls-2" d="M455.77,175.77V53.36c0-1.82,0-3.65,0-5.47a43.58,43.58,0,0,1,8.79-26.25,73.23,73.23,0,0,1,8.54-9.83A43.44,43.44,0,0,1,497,.33a30.37,30.37,0,0,1,8-.13.94.94,0,0,1,.59.55A4,4,0,0,1,505.7,2c0,1.54,0,3.09,0,4.63q0,81,0,162c0,1.4.05,2.8.1,4.2a.38.38,0,0,0,.25.27c.25,0,.61.16.75,0,1-.82,1.88-1.66,2.76-2.55q20.86-21.09,41.7-42.19,15.08-15.25,30.14-30.54a109,109,0,0,1,10.06-8.92,40.9,40.9,0,0,1,19-8.57c14.47-2.39,27.21,1.36,38,11.45.92.86,1.75,1.82,2.61,2.74A1.2,1.2,0,0,1,651,96c-.77.82-1.55,1.63-2.34,2.42l-79.56,80.47c-2.76,2.79-5.49,5.62-8.26,8.39-1.69,1.69-3.43,3.32-5.14,5a1,1,0,0,0-.12,1.47,114.63,114.63,0,0,1,10.32,9.88q27.82,28.1,55.61,56.24l27.18,27.54,2.36,2.4a1.18,1.18,0,0,1,.14,1.51,46.2,46.2,0,0,1-18.22,13.17c-1,.41-2.08.85-3.11,1.28a41,41,0,0,1-44.06-8.47q-1.66-1.62-3.28-3.26-30-30.37-60-60.73c-4.73-4.79-9.44-9.59-14.18-14.38a10.59,10.59,0,0,0-1.61-1.29.86.86,0,0,0-.71.18c-.1,1.11-.2,2.22-.2,3.33q0,16.41,0,32.81c0,3.65,0,7.29,0,10.94a43,43,0,0,1-22.05,37.28,68.72,68.72,0,0,1-7.07,3.69,38.24,38.24,0,0,1-15.11,3.19c-1.54,0-3.09,0-4.63-.08a1.22,1.22,0,0,1-1-1.13c0-1.54-.08-3.08-.08-4.62Z"/><path class="cls-2" d="M322.72,80.19h72.76a81,81,0,0,1,11.75.63,45.67,45.67,0,0,1,10.54,2.73,23.34,23.34,0,0,1,6.13,3.61,17.84,17.84,0,0,1,6.56,14,31.66,31.66,0,0,1-2.08,11.09,56.75,56.75,0,0,1-6.69,13.06c-1.4,2.09-2.85,4.16-4.39,6.15Q393.11,162.72,368.88,194,345,224.69,321.21,255.42c-.69.89-1.33,1.81-2,2.71-.24.33,0,1,.3,1,1.4,0,2.8.1,4.2.09l61.41-.18c1.68,0,3.36,0,5.05,0a37.69,37.69,0,0,1,20.7,6,45.27,45.27,0,0,1,21.28,40.44c-.06,1.24-.12,1.37-1.69,1.87a2.25,2.25,0,0,0-1.32.94,1.57,1.57,0,0,1-1.4.74c-1.12,0-2.25,0-3.37,0q-73,0-145.94,0c-3.23,0-6.46,0-9.67-.25a44.77,44.77,0,0,1-14.28-3.22,21.79,21.79,0,0,1-7.92-5.4,18.89,18.89,0,0,1-4.86-16.32A35.38,35.38,0,0,1,245,274a81.84,81.84,0,0,1,5.73-9.79c3.52-5.24,7.38-10.23,11.24-15.21l70.32-90.74q9.15-11.79,18.28-23.6c.6-.77,1.13-1.6,1.68-2.41.17-.25-.23-.88-.57-.9-.55-.05-1.11-.12-1.67-.13-1.26,0-2.52,0-3.78,0H286.07a70.93,70.93,0,0,1-8-.42,40.93,40.93,0,0,1-22.68-10.08,44.68,44.68,0,0,1-14.73-26.25,80.14,80.14,0,0,1-.77-8.36c-.08-1.12-.06-2.23,1.14-2.92.26-.15.31-.73.4-1.13.35-1.53.56-1.77,1.77-1.8,1.4,0,2.8,0,4.2,0Z"/><path class="cls-2" d="M745.13,174.32q0,43.52,0,87a74,74,0,0,1-.45,8.8,42.45,42.45,0,0,1-27.52,34.73c-1.18.43-2.34.93-3.52,1.37a39.9,39.9,0,0,1-15.19,2.84c-1.26,0-2.52,0-3.78-.06a1.32,1.32,0,0,1-1.28-1.36q-.06-1.68-.06-3.36,0-87.25,0-174.5a51.47,51.47,0,0,1,1.49-13.32,44.1,44.1,0,0,1,18-25.54c1.38-1,2.8-1.86,4.18-2.82a43.18,43.18,0,0,1,19-7.46,37.79,37.79,0,0,1,7.95-.38A1.24,1.24,0,0,1,745,81.4c.06,1.4.12,2.79.13,4.19v88.73Z"/><path class="cls-2" d="M748.94,31.24c-.28,9.92-4.39,17.78-12.56,23.49-1.26.88-2.52,1.77-3.76,2.68a27.66,27.66,0,0,1-39.76-7.59,26.86,26.86,0,0,1-4.38-14.3,27.4,27.4,0,0,1,7-19.27,49.51,49.51,0,0,1,4.3-4c.94-.84,2-1.56,2.93-2.38A27.76,27.76,0,0,1,737,8.21C744.8,13.87,748.67,21.62,748.94,31.24Z"/><path class="cls-3" d="M534.86,559H489c-1.68,0-3.36,0-5,0a21.75,21.75,0,0,1-13.77-5.46,41.06,41.06,0,0,1-4.75-4.76,30.28,30.28,0,0,1-6.13-12.3,27.9,27.9,0,0,1-.91-7.47q.06-38.69,0-77.38c0-4.77.08-9.54,0-14.3a28.42,28.42,0,0,1,2.64-11.78,28.86,28.86,0,0,1,9.59-12,24.92,24.92,0,0,1,14.74-5.38c3.93-.07,7.85,0,11.78-.05a28.91,28.91,0,0,0,6.69-.41,13.08,13.08,0,0,1,2.94-.11q6.51,0,13,.07a12.23,12.23,0,0,1,2.1.06,55.85,55.85,0,0,0,9.23.41q14.51.1,29,.17a28.11,28.11,0,0,1,20,8.31A29.89,29.89,0,0,1,588.35,430a28.89,28.89,0,0,1,1.28,8.26c0,5.05.2,10.11-.17,15.14-.4,5.46-.45,10.91-.44,16.37a23.83,23.83,0,0,1-2.25,9.73,28.94,28.94,0,0,1-17,15.91,17.31,17.31,0,0,1-6.56,1.28c-2-.06-3.92,0-5.88,0H501c-1,0-2,0-2.94,0-3.16-.14-5.3,1.51-6.92,4a4.94,4.94,0,0,0-.68,1.95,20.61,20.61,0,0,0-.14,2.94c0,4.9,0,9.81,0,14.72,0,.56,0,1.12,0,1.68a4.74,4.74,0,0,0,1.77,3.66,4.25,4.25,0,0,0,3,1.22c1.4,0,2.81,0,4.21,0h59.3a36.52,36.52,0,0,1,7.5.72,29.59,29.59,0,0,1,21.22,18.54,26.41,26.41,0,0,1,1.59,11.53,1.34,1.34,0,0,1-1.06,1.12c-1.4.07-2.8.14-4.2.14Z"/><path class="cls-3" d="M274.45,559h-45c-1.54,0-3.08-.07-4.62,0-5,.2-9.33-1.55-13.37-4.26a29.86,29.86,0,0,1-11.07-14,31.21,31.21,0,0,1-2.26-13.55c.07-1.68.12-3.36.12-5q0-32.39,0-64.78c0-3.64,0-7.29,0-10.93a26.52,26.52,0,0,0-.32-5,12.49,12.49,0,0,1,.07-4.6,11.16,11.16,0,0,0,.26-2.08c.07-4.95,2-9.28,4.58-13.34,4.2-6.73,10.35-10.88,18-12.91a10.22,10.22,0,0,1,2.07-.29c1.82-.09,3.64-.17,5.46-.18,3.22,0,6.45,0,9.67,0a13.22,13.22,0,0,0,2.52,0c4.32-.81,8.67-.37,13-.44,1.69,0,3.37,0,5.05,0a14.67,14.67,0,0,1,2.1,0c4.18.66,8.39.4,12.59.44,8.84.09,17.67.09,26.5.18a28.5,28.5,0,0,1,20,8.27,31.26,31.26,0,0,1,8.78,16,10.28,10.28,0,0,1,.24,2.08c.07,1.82.14,3.64.13,5.46,0,9.26-.16,18.51-.13,27.76A28.71,28.71,0,0,1,324.63,483a28.39,28.39,0,0,1-14.53,12.17,21.91,21.91,0,0,1-8.18,1.61c-1.82,0-3.65,0-5.47,0H240.51c-1.12,0-2.25.05-3.36,0a6.48,6.48,0,0,0-3.91,1.27,7.28,7.28,0,0,0-3.55,6.32c-.11,5.74-.06,11.49,0,17.24a5.3,5.3,0,0,0,2.57,4.56,4.21,4.21,0,0,0,2.35.76c1.41,0,2.81,0,4.21,0h58.46a39.11,39.11,0,0,1,8.35.72,28.44,28.44,0,0,1,13.32,6.73,30.52,30.52,0,0,1,9.65,17.75,31.17,31.17,0,0,1,.23,5c0,1.25-.51,1.74-1.79,1.78s-2.8,0-4.2,0Z"/><path class="cls-3" d="M98.71,559h-50c-4.63,0-4.54,0-4.37-4.76a27.39,27.39,0,0,1,6.8-16.81,27.77,27.77,0,0,1,15.81-9.72,31.43,31.43,0,0,1,7.91-.78h59.72c1.41,0,2.81-.05,4.21-.05,1.71,0,4.13-2.36,4.17-4.14,0-.7.08-1.4.08-2.1q0-7.15,0-14.3a7.83,7.83,0,0,0-.1-1.68,3.92,3.92,0,0,0-.6-1.53,5.15,5.15,0,0,0-4.59-2.46c-2.24.09-4.49,0-6.73,0H74.16a42.43,42.43,0,0,1-7.1-.59,25,25,0,0,1-12.26-6,31.35,31.35,0,0,1-9-13.48,21.68,21.68,0,0,1-1.46-6.94c0-1.41-.09-2.81-.09-4.21q0-16.4,0-32.8c0-.84,0-1.69,0-2.53.24-7.76,3.29-14.36,8.44-20.06a25.25,25.25,0,0,1,10-6.78,19.3,19.3,0,0,1,7.34-1.54c1.54,0,3.08,0,4.63,0h94.21c1.54,0,3.08,0,4.62.08a1.39,1.39,0,0,1,1.31,1.36A28.16,28.16,0,0,1,171,422.83a28.84,28.84,0,0,1-16.86,13.71,26.35,26.35,0,0,1-8.26,1.2c-16.83-.06-33.65,0-50.47,0-4.49,0-9,.09-13.46,0a5.93,5.93,0,0,0-5.33,2.74,4.32,4.32,0,0,0-.93,2.73c0,.28,0,.56,0,.84,0,6,0,12.06,0,18.09a6.7,6.7,0,0,0,1.08,4,4.23,4.23,0,0,0,3.47,2.07c1.4,0,2.8.06,4.2.06,18.64,0,37.29.05,55.94,0,3.66,0,7.26.52,10.89.75a10.56,10.56,0,0,1,2.42.64c9,2.79,15.15,8.74,18.69,17.41a19.69,19.69,0,0,1,1.79,7.29,4.06,4.06,0,0,0,.13,1.26c.82,2.31.6,4.7.61,7.07,0,8.55,0,17.11,0,25.66a31.39,31.39,0,0,1-5.9,18.91c-3.84,5.37-8.71,9.47-15.25,11.22a14.86,14.86,0,0,1-2.88.51c-1.95.1-3.92.12-5.88.12Z"/><path class="cls-3" d="M612.53,499.56c0-18.23,0-36.45,0-54.68a45.62,45.62,0,0,1,1-9.58,35.52,35.52,0,0,1,5.35-12.7A37.41,37.41,0,0,1,642,406.38a23.9,23.9,0,0,1,5-.69c1.82,0,3.64-.09,5.46-.09h32l3.36,0c7.39.06,13.54,2.94,18.83,8a30.89,30.89,0,0,1,8.28,14.84,13.5,13.5,0,0,1,.23,2.92,1.34,1.34,0,0,1-1.34,1.32q-1.89.07-3.78.09c-10.23,0-20.47,0-30.7.07-1.68,0-3.35.21-5,.31-1.26.08-2.51.16-3.77.17-5,.07-10.1.09-15.14.18-5.53.1-9.1,3.1-11.37,7.89a5.42,5.42,0,0,0-.46,2q-.15,2.94-.15,5.88,0,38.49,0,77c0,1.4.08,2.81,0,4.21a59.82,59.82,0,0,1-.78,7.93,25,25,0,0,1-5.12,10.92,27.38,27.38,0,0,1-14.68,9.24,10.23,10.23,0,0,1-2.07.3c-1.12.07-2.24.11-3.36.11-5.05,0-4.82.37-4.82-4.74V499.56Z"/><path class="cls-3" d="M435.06,460.74v66.47c0,2.1,0,4.21-.07,6.31a25.27,25.27,0,0,1-6.82,16.31,28.52,28.52,0,0,1-13.79,8.42,26,26,0,0,1-6.66.73c-3.91.06-4,.11-4-3.9q0-19.35,0-38.7v-99.7c0-1.68,0-3.37,0-5.05a27.76,27.76,0,0,1,7.7-18.56A30.12,30.12,0,0,1,422,385.61a25.26,25.26,0,0,1,11.49-1.88,1.52,1.52,0,0,1,1.41,1.3c.06,1.39.12,2.8.12,4.19Z"/><path class="cls-3" d="M383.62,460.18v67.31c0,1.82,0,3.65,0,5.47a25.33,25.33,0,0,1-6.66,16.36c-.83.95-1.76,1.81-2.66,2.69a26.79,26.79,0,0,1-13.76,6.74,27.15,27.15,0,0,1-5,.24c-2.88,0-3.07-.19-3.11-3.08,0-1,0-2,0-2.94V417.1c0-1.83.08-3.65,0-5.47-.31-8.28,5.31-18.3,12.25-22.8a40,40,0,0,1,7.45-3.82,23,23,0,0,1,10.33-1.22,1.35,1.35,0,0,1,1.09,1.11c.06,1.4.13,2.79.13,4.19v71.09Z"/><path class="cls-2" d="M207.07,212.19q0-38.91,0-77.82c0-2.39.06-4.77.12-7.15a44.35,44.35,0,0,0-.56-9.22A48,48,0,0,0,192.3,91,37.48,37.48,0,0,0,165.73,80.2h-143c-2.81,0-5.61,0-8.41,0-.7,0-1.4.06-2.1.11a1.33,1.33,0,0,0-1.09,1.09,48.25,48.25,0,0,0,.8,14.64,44,44,0,0,0,12.77,23.22,42.12,42.12,0,0,0,29.2,12c1.68,0,3.36,0,5,0H151a7.24,7.24,0,0,1,6.5,4,8.33,8.33,0,0,1,1.21,4.39c0,8.27,0,16.54,0,24.81a10.78,10.78,0,0,1,0,1.27,6.69,6.69,0,0,1-2.17,4.41,21.51,21.51,0,0,1-1.94,1.61,7.89,7.89,0,0,1-5.47,1.7,36.83,36.83,0,0,0-3.79,0H57.82c-1.82,0-3.65.05-5.47,0A32.27,32.27,0,0,0,44,174.63a43.67,43.67,0,0,0-24,16c-3.86,4.95-6,10.71-8.07,16.53a2.82,2.82,0,0,0-.1.83c-.28,4.05-.72,8.1-.79,12.16-.21,12.48-.28,25-.39,37.44,0,2.8,0,5.6,0,8.41a32.78,32.78,0,0,0,1.3,8.71,45.28,45.28,0,0,0,12.35,21.16c8.23,7.91,18,12.23,29.47,12.39q23.55.35,47.1.59,9.89.1,19.77.15c5.75,0,11.5.1,17.25.08a38.78,38.78,0,0,0,6.29-.34,42.86,42.86,0,0,0,23.36-11.56c.8-.77,1.62-1.54,2.47-2.26a.79.79,0,0,1,.76,0,15.56,15.56,0,0,1,1.6,1.34,40.18,40.18,0,0,0,28.12,11.4c1.26,0,2.52,0,3.78,0a2.07,2.07,0,0,0,1.71-1,4.57,4.57,0,0,0,1.1-3.08c-.1-1.11,0-2.24,0-3.36Zm-48.32,39.52c0,1,0,2,0,2.94a3.87,3.87,0,0,1-1.12,2.65,6.22,6.22,0,0,1-4,2.13,36.74,36.74,0,0,1-4.19.21H108.65q-20,0-39.93,0a35.36,35.36,0,0,1-4.6-.25,4.52,4.52,0,0,1-3.82-3.46,10.28,10.28,0,0,1-.47-3.31c.05-5.18.09-10.36.15-15.55,0-2.24.19-4.48.14-6.72-.08-3.32,2.29-6.43,6.48-7a26.45,26.45,0,0,1,3.78-.09l50.44.09c2.25,0,4.49,0,6.73,0a40.69,40.69,0,0,0,27.33-11.23,6.65,6.65,0,0,1,.61-.58c1-.69,1.42-2.1,2.9-2.08.74,1,.33,2.14.33,3.2Q158.78,232.17,158.75,251.71Z"/><path class="cls-4" d="M529.29,465.34H513.72l-2.94,0c-6.76.05-12.51,2.62-17.56,7-.73.62-1.25,1.52-2.27,1.77a.46.46,0,0,1-.39-.11,2,2,0,0,1-.25-.77c0-.84,0-1.68,0-2.52q0-11.77,0-23.56c0-1,0-2,0-2.94a5,5,0,0,1,4.88-4.77c1,0,2,0,2.94,0h51.75c1.12,0,2.24,0,3.36.08a4,4,0,0,1,3.42,3.23,10.43,10.43,0,0,1,.12,1.67c0,4.49,0,9,0,13.47a12.36,12.36,0,0,1-.46,3.31,5.25,5.25,0,0,1-5.12,4.19c-1,.06-2,0-2.94,0H529.29Z"/><path class="cls-1" d="M269,465.34c-5.89,0-11.78,0-17.66,0a26.53,26.53,0,0,0-7.07.81,29.63,29.63,0,0,0-9.73,4.77c-1.35,1-2.62,2.1-3.93,3.15a.62.62,0,0,1-.38.09.51.51,0,0,1-.53-.52c0-.7-.07-1.4-.07-2.1q0-12.41,0-24.81c0-.84,0-1.69.05-2.52a5.25,5.25,0,0,1,4.6-4.74,14.69,14.69,0,0,1,2.1-.07h54.67a8.52,8.52,0,0,1,2.09.12,6.23,6.23,0,0,1,1.83.94,2.46,2.46,0,0,1,1,1.76,13.27,13.27,0,0,1,.13,1.67c0,5.19,0,10.37-.07,15.56a7.59,7.59,0,0,1-.37,2.47,5,5,0,0,1-4.42,3.39c-1.11.12-2.24.06-3.36.07H269Z"/></g></g></svg>