<svg width="48" height="49" viewBox="0 0 48 49" fill="none" xmlns="http://www.w3.org/2000/svg">
<g opacity="0.87">
<path fill-rule="evenodd" clip-rule="evenodd" d="M22.3355 16.0549C23.8827 14.428 25.875 13.2284 28.1173 12.6513C27.6213 12.5236 27.1132 12.4264 26.5949 12.3618C26.8463 12.3304 27.1001 12.3068 27.356 12.291C27.1043 12.2755 26.8505 12.2676 26.5949 12.2676C23.3143 12.2676 20.3367 13.5648 18.147 15.6742L22.3355 16.0549Z" fill="#040A1F"/>
<path d="M28.1173 12.6513L28.2419 13.1355C28.4629 13.0786 28.6173 12.8794 28.6173 12.6513C28.6173 12.4232 28.4629 12.2239 28.2419 12.1671L28.1173 12.6513ZM22.3355 16.0549L22.2902 16.5529C22.4424 16.5667 22.5925 16.5102 22.6978 16.3995L22.3355 16.0549ZM26.5949 12.3618L26.533 11.8656C26.2827 11.8968 26.0949 12.1096 26.0949 12.3618C26.0949 12.614 26.2827 12.8267 26.533 12.858L26.5949 12.3618ZM27.356 12.291L27.3868 12.79C27.6505 12.7738 27.856 12.5552 27.856 12.291C27.856 12.0268 27.6505 11.8082 27.3868 11.7919L27.356 12.291ZM18.147 15.6742L17.8001 15.3141C17.6591 15.4498 17.6104 15.6554 17.6753 15.84C17.7402 16.0246 17.9068 16.1544 18.1017 16.1721L18.147 15.6742ZM27.9927 12.1671C25.6574 12.7681 23.5833 14.0172 21.9732 15.7104L22.6978 16.3995C24.1821 14.8387 26.0927 13.6886 28.2419 13.1355L27.9927 12.1671ZM26.533 12.858C27.03 12.9199 27.5172 13.0131 27.9927 13.1355L28.2419 12.1671C27.7255 12.0341 27.1963 11.9329 26.6567 11.8656L26.533 12.858ZM27.3252 11.7919C27.0589 11.8083 26.7947 11.833 26.533 11.8656L26.6567 12.858C26.8978 12.8279 27.1413 12.8052 27.3868 12.79L27.3252 11.7919ZM26.5949 12.7676C26.8402 12.7676 27.0838 12.7751 27.3252 12.79L27.3868 11.7919C27.1248 11.7758 26.8608 11.7676 26.5949 11.7676V12.7676ZM18.4939 16.0343C20.5941 14.011 23.4488 12.7676 26.5949 12.7676V11.7676C23.1798 11.7676 20.0792 13.1185 17.8001 15.3141L18.4939 16.0343ZM22.3808 15.557L18.1922 15.1762L18.1017 16.1721L22.2902 16.5529L22.3808 15.557Z" fill="#040A1F"/>
</g>
<path opacity="0.15" fill-rule="evenodd" clip-rule="evenodd" d="M36.8674 21.4012H39.9119C38.5601 16.1487 33.792 12.2676 28.1175 12.2676C27.6019 12.2676 27.0939 12.2996 26.5952 12.3618C31.5856 12.9841 35.6384 16.6259 36.8674 21.4012Z" fill="#2341DF"/>
<path d="M36.8674 21.4012L36.3832 21.5259C36.4401 21.7468 36.6393 21.9012 36.8674 21.9012V21.4012ZM39.9119 21.4012V21.9012C40.0665 21.9012 40.2124 21.8298 40.3071 21.7076C40.4018 21.5854 40.4347 21.4263 40.3962 21.2766L39.9119 21.4012ZM26.5952 12.3618L26.5333 11.8656C26.2831 11.8968 26.0952 12.1096 26.0952 12.3618C26.0952 12.614 26.2831 12.8267 26.5333 12.858L26.5952 12.3618ZM36.8674 21.9012H39.9119V20.9012H36.8674V21.9012ZM40.3962 21.2766C38.9888 15.8085 34.0257 11.7676 28.1175 11.7676V12.7676C33.5584 12.7676 38.1313 16.4889 39.4277 21.5259L40.3962 21.2766ZM28.1175 11.7676C27.5812 11.7676 27.0525 11.8009 26.5333 11.8656L26.6571 12.858C27.1353 12.7983 27.6227 12.7676 28.1175 12.7676V11.7676ZM26.5333 12.858C31.3176 13.4545 35.2047 16.9469 36.3832 21.5259L37.3516 21.2766C36.072 16.3049 31.8537 12.5137 26.6571 11.8656L26.5333 12.858Z" fill="#040A1F" fill-opacity="0.87"/>
<path opacity="0.15" fill-rule="evenodd" clip-rule="evenodd" d="M19.7054 43.6231C21.6647 44.9697 24.0378 45.7578 26.5949 45.7578C27.1105 45.7578 27.6185 45.7258 28.1172 45.6636C25.7588 45.3695 23.6098 44.401 21.8693 42.9573L19.7054 43.6231Z" fill="#2341DF"/>
<path d="M19.7054 43.6231L19.5584 43.1452C19.3751 43.2016 19.2402 43.3579 19.2112 43.5474C19.1822 43.737 19.2642 43.9265 19.4222 44.0351L19.7054 43.6231ZM28.1172 45.6636L28.1791 46.1598C28.4293 46.1285 28.6172 45.9158 28.6172 45.6636C28.6172 45.4114 28.4293 45.1986 28.1791 45.1674L28.1172 45.6636ZM21.8693 42.9573L22.1885 42.5724C22.0587 42.4648 21.8834 42.4298 21.7222 42.4794L21.8693 42.9573ZM19.4222 44.0351C21.4622 45.4372 23.9335 46.2578 26.5949 46.2578V45.2578C24.1421 45.2578 21.8673 44.5022 19.9886 43.211L19.4222 44.0351ZM26.5949 46.2578C27.1312 46.2578 27.6599 46.2245 28.1791 46.1598L28.0553 45.1674C27.5771 45.2271 27.0897 45.2578 26.5949 45.2578V46.2578ZM28.1791 45.1674C25.9182 44.8855 23.8579 43.9572 22.1885 42.5724L21.55 43.3421C23.3617 44.8449 25.5993 45.8535 28.0553 46.1598L28.1791 45.1674ZM21.7222 42.4794L19.5584 43.1452L19.8525 44.1009L22.0163 43.4351L21.7222 42.4794Z" fill="#040A1F" fill-opacity="0.87"/>
<path opacity="0.15" fill-rule="evenodd" clip-rule="evenodd" d="M39.8616 37.0923L43.7656 36.718C44.1149 36.6845 44.4449 36.5922 44.7463 36.4518L44.7473 36.4684C44.8451 38.0814 43.6477 39.4819 42.0392 39.6362L38.4287 39.9824C39.0213 39.0846 39.506 38.1135 39.8616 37.0923ZM35.125 37.5465L13.352 39.6343C11.6617 39.7964 10.1739 38.5245 10.0712 36.8295L8.97481 18.7372C7.89361 19.2414 7.17047 20.3693 7.2474 21.6389L8.34474 39.7476C8.44745 41.4426 9.93526 42.7146 11.6256 42.5525L33.5469 40.4505C34.1885 39.5546 34.7223 38.5777 35.125 37.5465Z" fill="#2341DF"/>
<path opacity="0.05" d="M14.1631 22.7676L19.9791 22.6195L20.1889 26.0814L14.3975 26.6367L14.1631 22.7676Z" fill="#2341DF"/>
<path opacity="0.05" d="M14.582 33.2178L34.9677 32.0575L33.4454 33.5797L35.9825 33.5797L35.9825 35.102L14.7854 36.5743L14.582 33.2178Z" fill="#2341DF"/>
<path opacity="0.15" d="M40.5384 33.5793H42.5789L38.0121 27.4902L33.4453 33.5793H35.9715C35.724 39.3249 31.3076 44.5054 25.834 45.5437C26.5736 45.684 27.3369 45.7574 28.1174 45.7574C34.6735 45.7574 40.2607 40.0945 40.5384 33.5793Z" fill="#2341DF"/>
<path d="M40.5384 33.5793H42.5789L38.0121 27.4902L33.4453 33.5793H35.9715C35.724 39.3249 31.3076 44.5054 25.834 45.5437C26.5736 45.684 27.3369 45.7574 28.1174 45.7574C34.6735 45.7574 40.2607 40.0945 40.5384 33.5793Z" stroke="#040A1F" stroke-opacity="0.87" stroke-linecap="round" stroke-linejoin="round"/>
<path d="M7.05957 18.5371L20.8739 18.1855L27.7811 18.0096L31.2347 17.9217M38.8417 17.7281L40.7089 17.6806C42.3243 17.6394 43.682 18.8852 43.7797 20.4981L44.7475 36.4681C44.8452 38.081 43.6478 39.4816 42.0393 39.6358L40.225 39.8098M30.4009 40.7518L11.6257 42.5521C9.93536 42.7142 8.44756 41.4423 8.34485 39.7473L7.78661 30.5351M7.41763 24.446L7.66362 28.5054" stroke="#2341DF" stroke-opacity="0.8" stroke-linecap="round" stroke-linejoin="round"/>
<path d="M13.127 20.0185L11.826 22.3293C11.2572 23.3435 8.84498 23.0701 6.44161 21.7163C4.03824 20.3625 2.55212 18.4442 3.12099 17.4299L4.4219 15.1191" fill="#2341DF" fill-opacity="0.3"/>
<path opacity="0.87" d="M13.127 20.0185L11.826 22.3293C11.2572 23.3435 8.84498 23.0701 6.44161 21.7163C4.03824 20.3625 2.55212 18.4442 3.12099 17.4299L4.4219 15.1191" stroke="#040A1F" stroke-linecap="round" stroke-linejoin="round"/>
<path d="M7.74147 19.4063C10.1465 20.7592 12.5588 21.0334 13.1296 20.0188C13.7004 19.0042 12.2135 17.0849 9.80847 15.7319C7.40349 14.379 4.99114 14.1048 4.42036 15.1194C4.08086 15.7229 4.46934 16.6465 5.34599 17.5805C5.63889 17.8926 5.9863 18.2059 6.37925 18.5088C6.7875 18.8235 7.24492 19.1269 7.74147 19.4063Z" fill="white"/>
<path d="M5.34599 17.5805C4.46934 16.6465 4.08086 15.7229 4.42036 15.1194C4.99114 14.1048 7.40349 14.379 9.80847 15.7319C12.2135 17.0849 13.7004 19.0042 13.1296 20.0188C12.5588 21.0334 10.1465 20.7592 7.74147 19.4063C7.47394 19.2558 7.21776 19.0983 6.97451 18.9358" stroke="#040A1F" stroke-opacity="0.87" stroke-linecap="round" stroke-linejoin="round"/>
<g opacity="0.87">
<g opacity="0.15">
<path d="M16.4211 6.18457L17.1674 7.79657C17.4957 8.50448 15.7984 9.98428 13.3762 11.1059C10.9539 12.2274 8.72782 12.5601 8.39945 11.8522L7.65316 10.2402" fill="white"/>
<path d="M16.4211 6.18457L17.1674 7.79657C17.4957 8.50448 15.7984 9.98428 13.3762 11.1059C10.9539 12.2274 8.72782 12.5601 8.39945 11.8522L7.65316 10.2402" stroke="#040A1F" stroke-linecap="round" stroke-linejoin="round"/>
</g>
<path d="M16.4211 6.18457L17.1674 7.79657C17.4957 8.50448 15.7984 9.98428 13.3762 11.1059C10.9539 12.2274 8.72782 12.5601 8.39945 11.8522L7.65316 10.2402" stroke="#2341DF" stroke-opacity="0.3" stroke-linecap="round" stroke-linejoin="round"/>
<path d="M7.65223 10.2388C7.32486 9.53127 9.02274 8.04931 11.4445 6.92874C13.8664 5.80817 16.095 5.47332 16.4224 6.18084C16.7498 6.88836 15.0519 8.37032 12.6301 9.49089C10.2082 10.6115 7.9796 10.9463 7.65223 10.2388Z" fill="white"/>
<path d="M7.65223 10.2388C7.32486 9.53127 9.02274 8.04931 11.4445 6.92874C13.8664 5.80817 16.095 5.47332 16.4224 6.18084C16.7498 6.88836 15.0519 8.37032 12.6301 9.49089C10.2082 10.6115 7.9796 10.9463 7.65223 10.2388Z" stroke="#2341DF" stroke-opacity="0.8" stroke-linecap="round" stroke-linejoin="round"/>
</g>
</svg>
