<svg width="48" height="49" viewBox="0 0 48 49" fill="none" xmlns="http://www.w3.org/2000/svg">
<path d="M38.744 6.46194L20.8658 3.4717C20.5255 9.74316 18.8241 24.9405 14.7404 35.5579L32.747 38.1348C36.9432 24.6784 38.4934 11.4127 38.744 6.46194Z" stroke="#040A1F" stroke-opacity="0.87" stroke-linecap="round" stroke-linejoin="round"/>
<path opacity="0.15" d="M22.3975 8.50374C23.2482 8.67389 25.0518 8.50374 25.4602 6.46191L33.6275 7.99328C33.4573 9.01419 33.7296 11.1581 36.1798 11.5665C35.4992 15.8203 33.8317 25.7571 32.6066 31.4742C31.7558 31.3041 29.8501 31.6784 29.0334 34.537L25.4602 34.0265" stroke="#2341DF" stroke-linecap="round" stroke-linejoin="round"/>
<path opacity="0.15" d="M24.4393 8.50402C23.6226 7.27893 21.7169 6.97266 20.8662 6.97266L17.293 35.5582L30.5648 38.1104C29.3397 27.0846 23.9289 24.3281 21.3766 24.3281C25.4603 21.0612 24.4393 15.8206 23.4184 13.6086L25.4603 11.5668L24.4393 8.50402Z" fill="#2341DF"/>
<path d="M39.269 10.0336L42.3338 10.5316C41.355 16.6755 38.2735 31.3073 33.7782 40.6834L28.1591 39.6853" stroke="#2341DF" stroke-opacity="0.8" stroke-linecap="round" stroke-linejoin="round"/>
<path opacity="0.15" d="M41.8381 14.1063L44.9028 14.6043C44.2071 19.0366 41.2844 30.045 35.1589 38.6207" stroke="#2341DF" stroke-linecap="round" stroke-linejoin="round"/>
<path d="M21.3765 10.5459L5.25116 15.4735L6.47585 20.1269C7.56492 24.2651 11.697 26.8316 15.8892 25.9737C20.0516 25.122 22.8387 21.1863 22.2603 16.9773L21.3765 10.5459Z" fill="white"/>
<path d="M9.52363 35.0114L10.2307 39.8086C13.0743 40.2245 20.2999 40.1427 26.4542 36.4888L25.22 31.7994C24.1363 27.6815 20.0243 25.1275 15.8526 25.9811C11.6809 26.8348 8.90268 30.7988 9.52363 35.0114Z" fill="white"/>
<path opacity="0.8" d="M9.90525 37.5997L9.52368 35.0111C8.90273 30.7985 11.6809 26.8345 15.8526 25.9808V25.9808C20.0244 25.1272 24.1363 27.6812 25.2201 31.7991L26.394 36.2598" stroke="#2341DF" stroke-linecap="round" stroke-linejoin="round"/>
<path opacity="0.87" d="M19.3806 42.6847C14.154 43.7543 9.73116 43.7134 9.50197 42.5934L9.15615 40.9034C9.38534 42.0234 13.8082 42.0643 19.0348 40.9948C24.2615 39.9252 28.3127 38.1503 28.0835 37.0303L28.4293 38.7202C28.6585 39.8402 24.6073 41.6152 19.3806 42.6847Z" fill="#040A1F" stroke="#040A1F" stroke-linecap="round" stroke-linejoin="round"/>
<path opacity="0.3" fill-rule="evenodd" clip-rule="evenodd" d="M10.4602 39.5634C10.4562 39.5282 10.4173 39.5087 10.3867 39.5267C9.53122 40.0274 9.07503 40.5065 9.15624 40.9034C9.38542 42.0234 13.8082 42.0643 19.0349 40.9947C24.2615 39.9252 28.3128 38.1502 28.0836 37.0302C28.0125 36.683 27.5383 36.4394 26.762 36.3006C26.5933 36.2704 26.4563 36.4294 26.5027 36.5944C26.5254 36.6753 26.5056 36.7624 26.4422 36.8176C25.512 37.6267 22.2242 38.642 18.8739 39.3276C15.6113 39.9952 11.7079 39.9636 10.4933 39.6042C10.4746 39.5987 10.4625 39.5828 10.4602 39.5634Z" fill="#2341DF"/>
<path opacity="0.87" d="M10.4513 39.4886C9.55427 40.003 9.07301 40.4961 9.15624 40.9028C9.38542 42.0228 13.8082 42.0637 19.0349 40.9941C24.2615 39.9246 28.3128 38.1496 28.0836 37.0296C28.0022 36.6319 27.3919 36.3702 26.4046 36.2461C25.6313 37.0691 22.3534 38.6149 18.8736 39.327C18.0681 39.4918 17.2229 39.6077 16.3884 39.6832M12.4536 39.7612C13.1301 39.7993 13.9113 39.81 14.7405 39.7835" stroke="#040A1F" stroke-linecap="round" stroke-linejoin="round"/>
<path opacity="0.15" d="M12.7927 32.8958C13.4385 32.6629 14.0255 32.2552 14.3225 31.6362C15.2975 29.6038 15.3795 27.2465 15.1751 25.7681L15.699 25.6609L15.7225 25.7757L16.2229 25.5537C16.6085 26.9671 17.5806 29.051 19.2195 30.5327C19.7515 31.0137 20.4858 31.1624 21.2008 31.1049C23.4424 30.9245 25.0009 31.1076 25.1134 31.6576L26.539 36.7248C25.7657 37.5478 22.3533 38.6156 18.8735 39.3277C15.5841 40.0008 11.6434 39.9631 10.4636 39.5954L9.96379 35.2859L9.96221 35.2723L9.90395 34.7699C9.80032 34.2635 10.946 33.5617 12.7927 32.8958Z" fill="#2341DF"/>
<path opacity="0.15" d="M16.0562 26.1158C12.4059 26.8628 9.65725 24.9603 8.7392 23.9156C8.42796 22.3947 12.3801 21.0577 14.915 20.539C17.4499 20.0203 21.1717 20.139 21.817 20.7113C21.4177 22.2016 19.7065 25.3689 16.0562 26.1158Z" fill="#2341DF"/>
<ellipse opacity="0.15" cx="6.72735" cy="1.50841" rx="6.72735" ry="1.50841" transform="matrix(-0.979698 0.200478 0.200478 0.979698 21.5293 19.3066)" stroke="#2341DF" stroke-width="0.5" stroke-linecap="round" stroke-linejoin="round"/>
<path opacity="0.15" d="M21.121 31.4282C23.4551 31.2203 25.0759 31.3781 25.1857 31.9147C25.3527 32.7308 21.9606 34.1143 17.6093 35.0047C13.258 35.8951 9.59518 35.9553 9.42817 35.1392C9.34461 34.7308 10.1519 34.1805 11.5245 33.621" stroke="#2341DF" stroke-width="0.5" stroke-linecap="round" stroke-linejoin="round"/>
<path opacity="0.8" d="M21.8869 14.9514L22.1817 16.9514C22.8027 21.164 20.0245 25.128 15.8528 25.9817V25.9817C11.681 26.8353 7.56908 24.2813 6.48532 20.1634L5.35279 15.8601" stroke="#2341DF" stroke-linecap="round" stroke-linejoin="round"/>
<path opacity="0.3" d="M13.6394 15.1652C8.41277 16.2347 3.98994 16.1938 3.76076 15.0738L3.41494 13.3839C3.64413 14.5039 8.06697 14.5448 13.2936 13.4752C18.5203 12.4057 22.5715 10.6307 22.3423 9.51074L22.6881 11.2007C22.9173 12.3207 18.8661 14.0956 13.6394 15.1652Z" fill="#2341DF"/>
<path d="M3.41494 13.3839L3.76076 15.0738C3.98994 16.1938 8.41277 16.2347 13.6394 15.1652C18.8661 14.0956 22.9173 12.3207 22.6881 11.2007L22.3423 9.51074" stroke="#040A1F" stroke-opacity="0.87" stroke-linecap="round" stroke-linejoin="round"/>
<path d="M3.41488 13.3845C3.64407 14.5045 8.06689 14.5454 13.2935 13.4758C18.5202 12.4063 22.5714 10.6313 22.3422 9.51133C22.113 8.39133 17.6902 8.35043 12.4636 9.41997C7.23693 10.4895 3.1857 12.2645 3.41488 13.3845Z" fill="white"/>
<path opacity="0.15" d="M3.41488 13.3845C3.64407 14.5045 8.06689 14.5454 13.2935 13.4758C18.5202 12.4063 22.5714 10.6313 22.3422 9.51133C22.113 8.39133 17.6902 8.35043 12.4636 9.41997C7.23693 10.4895 3.1857 12.2645 3.41488 13.3845Z" fill="#2341DF"/>
<path d="M3.41488 13.3845C3.64407 14.5045 8.06689 14.5454 13.2935 13.4758C18.5202 12.4063 22.5714 10.6313 22.3422 9.51133C22.113 8.39133 17.6902 8.35043 12.4636 9.41997C7.23693 10.4895 3.18569 12.2645 3.41488 13.3845Z" stroke="#040A1F" stroke-opacity="0.87" stroke-linecap="round" stroke-linejoin="round"/>
</svg>
