<svg width="48" height="49" viewBox="0 0 48 49" fill="none" xmlns="http://www.w3.org/2000/svg">
<path opacity="0.05" d="M3 32.2496C3 35.9737 4.0771 39.4462 5.93676 42.3726H10.14C10.14 42.3726 9.3 34.7323 9.3 32.2496C9.3 25.2908 14.9412 19.6496 21.9 19.6496C28.8588 19.6496 34.5 25.2908 34.5 32.2496C34.5 34.3747 33.9739 36.3769 33.0449 38.1331C32.7865 38.6216 32.9207 39.2384 33.3875 39.5343L37.8632 42.3726H42.0592L40.8 32.2496C40.8 23.2549 34.5168 15.7278 26.1 13.8179V13.3496H21.9C11.4618 13.3496 3 21.8114 3 32.2496Z" fill="#2341DF"/>
<path opacity="0.15" fill-rule="evenodd" clip-rule="evenodd" d="M41.5841 38.5498H32.9205C32.8841 38.9326 33.0477 39.3188 33.3879 39.5346L37.8637 42.3729H42.0596L41.5841 38.5498Z" fill="#2341DF"/>
<path opacity="0.87" d="M10.3532 41.9621C10.3532 41.9621 9.3 34.7323 9.3 32.2496C9.3 25.2908 14.9412 19.6496 21.9 19.6496M28.2 21.3353C31.9661 23.5139 34.5 27.5858 34.5 32.2496C34.5 34.3283 33.9966 36.2895 33.1051 38.0179C32.8252 38.5605 33.0008 39.2441 33.539 39.5324L37.852 41.8435C37.9972 41.9214 38.1595 41.9621 38.3243 41.9621H41.85L40.8 32.2496C40.8 23.2549 34.5167 15.7278 26.1 13.8179V13.3496H21.9C11.4618 13.3496 3 21.8114 3 32.2496C3 35.7764 4.15725 38.7094 5.85935 41.4958C6.0377 41.7878 6.35723 41.9621 6.69936 41.9621H7.725" stroke="#040A1F" stroke-linecap="round" stroke-linejoin="round"/>
<path fill-rule="evenodd" clip-rule="evenodd" d="M10.137 42.3727C8.27731 39.4463 7.2002 35.9737 7.2002 32.2496C7.2002 21.8114 15.662 13.3496 26.1002 13.3496C36.5384 13.3496 45.0002 21.8114 45.0002 32.2496C45.0002 35.9738 43.923 39.4464 42.0633 42.3728L36.7421 38.9984C37.9819 37.0475 38.7 34.7324 38.7 32.2497C38.7 25.2909 33.0588 19.6497 26.1 19.6497C19.1412 19.6497 13.5 25.2909 13.5 32.2497C13.5 34.7324 14.2181 37.0475 15.4579 38.9985L10.137 42.3727Z" fill="white"/>
<path opacity="0.05" fill-rule="evenodd" clip-rule="evenodd" d="M7.2002 32.2495C7.2002 35.9736 8.27731 39.4462 10.137 42.3726L15.4579 38.9984C14.2181 37.0474 13.5 34.7323 13.5 32.2495C13.5 28.8156 14.8737 25.7025 17.1015 23.4298L12.7304 18.8906C9.31341 22.3104 7.2002 27.0332 7.2002 32.2495Z" fill="#2341DF"/>
<path opacity="0.25" fill-rule="evenodd" clip-rule="evenodd" d="M7.2002 32.249C7.20021 35.9731 8.27732 39.4456 10.137 42.372L15.4579 38.9978C14.2181 37.0468 13.5 34.7318 13.5 32.249H7.2002Z" fill="#2341DF"/>
<path opacity="0.87" d="M37.2448 38.1332L36.8029 37.8994L37.2448 38.1332ZM14.9552 38.1332L14.5132 38.367L14.9552 38.1332ZM42.5766 41.5159L43.0122 41.7614L42.5766 41.5159ZM41.2196 41.8378L40.9518 42.2601L41.2196 41.8378ZM9.62369 41.5157L10.0593 41.2702L9.62369 41.5157ZM10.9807 41.8377L10.7129 41.4154L10.9807 41.8377ZM6.7002 32.2496C6.7002 35.7047 7.60386 38.9503 9.1881 41.7612L10.0593 41.2702C8.55729 38.6052 7.7002 35.5283 7.7002 32.2496H6.7002ZM26.1002 12.8496C15.3859 12.8496 6.7002 21.5353 6.7002 32.2496H7.7002C7.7002 22.0876 15.9382 13.8496 26.1002 13.8496V12.8496ZM45.5002 32.2496C45.5002 21.5353 36.8145 12.8496 26.1002 12.8496V13.8496C36.2622 13.8496 44.5002 22.0876 44.5002 32.2496H45.5002ZM43.0122 41.7614C44.5965 38.9504 45.5002 35.7048 45.5002 32.2496H44.5002C44.5002 35.5283 43.6431 38.6053 42.141 41.2704L43.0122 41.7614ZM37.3197 39.9567L40.9518 42.2601L41.4874 41.4156L37.8552 39.1122L37.3197 39.9567ZM37.6868 38.367C38.6531 36.5405 39.2 34.4582 39.2 32.2497H38.2C38.2 34.2913 37.6947 36.2135 36.8029 37.8994L37.6868 38.367ZM39.2 32.2497C39.2 25.0147 33.3349 19.1497 26.1 19.1497V20.1497C32.7826 20.1497 38.2 25.567 38.2 32.2497H39.2ZM26.1 19.1497C18.8651 19.1497 13 25.0147 13 32.2497H14C14 25.567 19.4174 20.1497 26.1 20.1497V19.1497ZM13 32.2497C13 34.4582 13.5469 36.5405 14.5132 38.367L15.3971 37.8994C14.5053 36.2135 14 34.2913 14 32.2497H13ZM11.2485 42.2599L14.8804 39.9568L14.3448 39.1123L10.7129 41.4154L11.2485 42.2599ZM37.8552 39.1122C37.6296 38.9692 37.5386 38.6473 37.6868 38.367L36.8029 37.8994C36.4343 38.5962 36.6118 39.5079 37.3197 39.9567L37.8552 39.1122ZM14.5132 38.367C14.6615 38.6473 14.5704 38.9692 14.3448 39.1123L14.8804 39.9568C15.5882 39.5079 15.7657 38.5962 15.3971 37.8994L14.5132 38.367ZM42.141 41.2704C42.0192 41.4865 41.7267 41.5673 41.4874 41.4156L40.9518 42.2601C41.6447 42.6994 42.592 42.5069 43.0122 41.7614L42.141 41.2704ZM9.1881 41.7612C9.60828 42.5068 10.5556 42.6993 11.2485 42.2599L10.7129 41.4154C10.4736 41.5672 10.1811 41.4863 10.0593 41.2702L9.1881 41.7612Z" fill="#040A1F"/>
<ellipse opacity="0.15" cx="25.1051" cy="32.2496" rx="3.15" ry="3.15" fill="#2341DF"/>
<ellipse cx="25.1051" cy="32.2496" rx="3.15" ry="3.15" stroke="#2341DF" stroke-opacity="0.8" stroke-linecap="round" stroke-linejoin="round"/>
<path opacity="0.87" d="M9.63431 35.9626L11.4913 33.7529L24.9969 31.3303C25.5186 31.2367 26.0227 31.5665 26.146 32.0821L26.1534 32.1131C26.2778 32.6331 25.9711 33.1589 25.4572 33.3067L12.29 37.0933L9.63431 35.9626Z" fill="#040A1F"/>
<path opacity="0.3" d="M27.4499 13.3496C27.4499 13.1839 27.3156 13.0496 27.1499 13.0496C26.9842 13.0496 26.8499 13.1839 26.8499 13.3496H27.4499ZM27.4499 16.4996V13.3496H26.8499V16.4996H27.4499ZM27.4499 18.0746V16.4996H26.8499V18.0746H27.4499Z" fill="#2341DF"/>
<path opacity="0.3" d="M35.8631 22.0619C35.7459 22.179 35.7459 22.369 35.8631 22.4862C35.9802 22.6033 36.1702 22.6033 36.2873 22.4862L35.8631 22.0619ZM37.3373 21.4362L39.4373 19.3362L39.0131 18.9119L36.9131 21.0119L37.3373 21.4362ZM36.2873 22.4862L37.3373 21.4362L36.9131 21.0119L35.8631 22.0619L36.2873 22.4862Z" fill="#2341DF"/>
<path opacity="0.3" d="M12.2378 18.8117C12.1206 18.6946 12.1206 18.5046 12.2378 18.3875C12.3549 18.2703 12.5449 18.2703 12.662 18.3875L12.2378 18.8117ZM14.6003 21.1742L12.2378 18.8117L12.662 18.3875L15.0245 20.75L14.6003 21.1742ZM15.7815 22.3555L14.6003 21.1742L15.0245 20.75L16.2058 21.9312L15.7815 22.3555Z" fill="#2341DF"/>
<path opacity="0.3" d="M40.2749 31.949C40.1092 31.949 39.9749 32.0833 39.9749 32.249C39.9749 32.4147 40.1092 32.549 40.2749 32.549V31.949ZM41.8499 32.549H44.9999V31.949H41.8499V32.549ZM40.2749 32.549H41.8499V31.949H40.2749V32.549Z" fill="#2341DF"/>
<path opacity="0.3" d="M7.2002 31.949C7.03451 31.949 6.9002 32.0833 6.9002 32.249C6.9002 32.4147 7.03451 32.549 7.2002 32.549L7.2002 31.949ZM7.2002 32.549H10.3502L10.3502 31.949H7.2002L7.2002 32.549ZM10.3502 32.549H11.9252V31.949H10.3502L10.3502 32.549Z" fill="#2341DF"/>
<path opacity="0.15" d="M32.6513 17.739C32.6108 17.8418 32.6613 17.9579 32.7641 17.9984C32.8669 18.0389 32.983 17.9884 33.0235 17.8856L32.6513 17.739ZM33.0235 17.8856L34.161 14.9981L33.7888 14.8515L32.6513 17.739L33.0235 17.8856Z" fill="#2341DF"/>
<path opacity="0.15" d="M40.7237 26.0115C40.6215 26.0536 40.5728 26.1705 40.6149 26.2726C40.6569 26.3748 40.7738 26.4235 40.876 26.3814L40.7237 26.0115ZM40.876 26.3814L44.026 25.0843L43.8737 24.7145L40.7237 26.0115L40.876 26.3814Z" fill="#2341DF"/>
<path opacity="0.15" d="M20.1387 14.9981C20.0982 14.8953 20.1487 14.7792 20.2515 14.7387C20.3543 14.6982 20.4704 14.7487 20.5109 14.8515L20.1387 14.9981ZM21.1728 17.6231L20.1387 14.9981L20.5109 14.8515L21.545 17.4765L21.1728 17.6231Z" fill="#2341DF"/>
<path opacity="0.15" d="M8.17405 25.6097C8.07191 25.5677 8.0232 25.4508 8.06526 25.3487C8.10732 25.2465 8.22421 25.1978 8.32635 25.2399L8.17405 25.6097ZM11.0615 26.7987L8.17405 25.6097L8.32635 25.2399L11.2138 26.4288L11.0615 26.7987Z" fill="#2341DF"/>
<path d="M12.4498 3.89941L9.2998 8.62441H12.4498L9.2998 13.3494" stroke="#BDC6F6" stroke-linecap="round" stroke-linejoin="round"/>
<path d="M7.2001 7.0498L5.1001 10.7248H7.2001L5.1001 14.3998" stroke="#BDC6F6" stroke-linecap="round" stroke-linejoin="round"/>
</svg>
