<svg width="114" height="40" viewBox="0 0 114 40" fill="none" xmlns="http://www.w3.org/2000/svg">
<rect width="114" height="40" rx="8" fill="#E8E8E8"/>
<path d="M42.0586 21.2501V10.0562C42.0586 8.39327 44.4257 7.25039 45.8731 8.79659C46.2137 9.16395 46.4461 9.71683 46.4461 10.4122V20.8432C46.4461 21.6626 46.2158 22.1377 45.8334 22.5724C44.5289 24.0569 42.0586 22.9804 42.0586 21.2501ZM55.1186 23.6435V12.2005L55.1256 12.2017C55.1389 11.9108 55.2184 11.6267 55.3582 11.3708C55.8673 10.4134 57.2974 9.81302 58.4796 10.5826C59.5372 11.271 59.525 12.3137 59.5107 13.5405V13.5412C59.5091 13.6858 59.5074 13.8327 59.5074 13.9821C59.5074 14.0948 59.5058 14.4005 59.5034 14.8341V14.8378C59.4915 17.0479 59.4622 22.5633 59.5398 22.7984C59.5715 22.8863 59.622 22.9661 59.6878 23.0325C59.7537 23.0988 59.8334 23.1498 59.9213 23.1821C60.1476 23.2764 60.8456 23.2571 61.6552 23.235C62.8368 23.2025 64.2563 23.1637 64.7923 23.4615C66.3711 24.3364 66.2479 26.2327 65.3028 27.0313C64.8907 27.4082 64.3506 27.6153 63.7915 27.6109H59.3445C58.7585 27.5898 58.1819 27.4568 57.6461 27.2191C57.187 27.0232 56.7859 26.6952 56.4279 26.3985C56.3428 26.3136 56.265 26.2218 56.1953 26.1239C56.1127 26.0383 56.0351 25.9481 55.9626 25.8539C55.5594 25.3206 55.1187 24.3668 55.1187 23.6436L55.1186 23.6435Z" fill="#212121"/>
<path d="M42.8392 29.2738C42.2169 28.7519 42.0596 28.2033 42.0591 27.4098C42.0599 26.7302 42.5314 26.1409 42.9322 25.8409C43.4951 25.4217 43.8619 25.4235 44.6946 25.4273C44.7804 25.4277 44.8716 25.4282 44.9678 25.4282C45.2419 25.4282 45.5153 25.4277 45.7879 25.427H45.789C46.3332 25.4256 46.8754 25.4245 47.4173 25.4282C48.3995 25.434 48.5891 25.1837 48.5891 24.2066C48.5851 23.1338 48.5866 22.0606 48.5877 20.9871V20.9859C48.5884 20.4489 48.5891 19.9119 48.5891 19.3748L48.5888 19.2524C48.5873 18.4563 48.5866 18.0176 49.2319 17.3709C50.184 16.4148 51.7581 16.6185 52.4161 17.4925C52.8113 18.0164 52.9764 18.3574 52.9764 19.2729V25.0679C52.9764 27.9224 51.0873 29.7979 48.2321 29.7979H44.6097C43.8285 29.7979 43.2739 29.6389 42.839 29.274L42.8392 29.2738ZM29.0001 23.0355C29.0006 23.9874 29.3075 24.7946 30.2243 25.2208C30.4934 25.3553 30.7905 25.4248 31.0915 25.4237H35.7848C37.8913 25.4237 39.9164 23.4257 39.9164 21.0496V14.6439C39.921 14.0737 39.7072 13.5231 39.3187 13.1047C38.3713 12.1206 36.8204 12.1983 36.0451 13.1753C35.5672 13.7791 35.5289 14.0085 35.5289 15.0506V19.8826C35.5289 19.9397 35.5296 19.9932 35.53 20.0434C35.5336 20.4148 35.5354 20.6039 35.3151 20.8388C35.0924 21.0784 34.924 21.0716 34.5948 21.059C34.5096 21.0556 34.414 21.052 34.3036 21.052H31.8564C30.7253 21.052 29.8964 21.1678 29.3082 22.1218C29.192 22.3001 29.0003 22.7574 29 23.0355H29.0001ZM52.9256 29.6448C52.9256 30.995 53.8473 31.9339 55.1705 31.9339C57.5304 31.9339 58.0489 28.6711 56.0678 27.7836C54.3951 27.0347 52.9292 28.3781 52.9292 29.6448H52.9256ZM49.2123 13.9705C48.7287 13.4884 48.5893 12.9981 48.5893 12.3027V12.3039C48.5893 11.174 49.6508 10.2178 50.783 10.2178C51.9153 10.2178 52.9615 11.2169 52.9615 12.4035C52.9581 14.4237 50.5224 15.2757 49.2124 13.9705H49.2123Z" fill="#212121"/>
<line x1="74.5" y1="8" x2="74.5" y2="32" stroke="#B3B3B3"/>
<path d="M105.81 15.8512C105.441 15.5968 104.726 15.2503 103.352 14.9378C102.941 14.8442 102.47 14.7545 101.933 14.6741C101.256 14.5688 100.471 14.4752 99.5643 14.3974L99.4368 14.3866C99.2533 13.9687 99.0627 13.5417 98.8615 13.0921C98.7546 12.8509 98.6519 12.6085 98.5436 12.3514C98.5313 12.321 98.5175 12.2894 98.5038 12.259C98.108 11.314 97.6819 10.3436 96.9639 9.48161C96.1612 8.52585 95.1063 8 93.9954 8C92.8842 8 91.8306 8.52712 91.0266 9.48161C90.3033 10.3423 89.8841 11.3125 89.4882 12.2563L89.447 12.3514C89.3403 12.6085 89.2374 12.8509 89.1294 13.0921C88.9278 13.5417 88.7388 13.9687 88.5539 14.3866L88.4278 14.3974C87.5182 14.4751 86.7331 14.5688 86.0551 14.6755C85.518 14.7571 85.0495 14.848 84.6398 14.9392C83.2699 15.2515 82.5493 15.5982 82.182 15.8526C82.1172 15.898 82.0665 15.9596 82.0352 16.0305C82.0039 16.1016 81.9932 16.1794 82.0042 16.2558L82.1234 17.1087C82.3042 18.3848 82.4973 19.8835 82.8152 21.4285C83.0495 22.6179 83.3777 23.7884 83.7974 24.9296C83.9659 25.379 84.1535 25.8207 84.3633 26.2478C85.2598 27.9872 86.6467 29.449 88.3656 30.4659C90.0843 31.4831 92.0659 32.0146 94.0834 31.9997C96.1013 31.9849 98.074 31.4243 99.7765 30.382C101.479 29.3397 102.842 27.8578 103.711 26.1054C103.873 25.7626 104.022 25.412 104.159 25.0508C105.137 22.5197 105.514 19.7265 105.825 17.5082L105.998 16.244C106.006 16.1684 105.993 16.092 105.96 16.0228C105.927 15.9537 105.875 15.8944 105.81 15.8511L105.81 15.8512ZM93.9869 14.1877C92.8718 14.1877 91.8568 14.2075 90.9347 14.2429C90.9839 14.131 91.0347 14.0188 91.0867 13.903C91.2031 13.6393 91.3154 13.3756 91.4238 13.112C91.6491 12.5376 91.913 11.9778 92.2143 11.4365C92.3511 11.2016 92.5077 10.9776 92.6827 10.767C92.9074 10.5033 93.3774 10.0485 93.9867 10.0485C94.5965 10.0485 95.0664 10.4981 95.2925 10.767C95.4673 10.9775 95.6241 11.2016 95.7609 11.4365C96.0614 11.9781 96.3255 12.5379 96.5514 13.112C96.6597 13.3756 96.7707 13.6393 96.8883 13.903C96.9405 14.0188 96.9899 14.131 97.0405 14.2429C96.1183 14.2075 95.1033 14.1877 93.9866 14.1877H93.9869Z" fill="url(#paint0_linear_1354_13825)"/>
<defs>
<linearGradient id="paint0_linear_1354_13825" x1="94.0004" y1="8.00013" x2="94.0004" y2="31.9856" gradientUnits="userSpaceOnUse">
<stop stop-color="#97D700"/>
<stop offset="0.631" stop-color="#50BC25"/>
<stop offset="1" stop-color="#009F64"/>
</linearGradient>
</defs>
</svg>
