<svg width="40" height="40" viewBox="0 0 40 40" fill="none" xmlns="http://www.w3.org/2000/svg">
<rect width="40" height="40" rx="8" fill="#EBF9FF"/>
<path d="M15.0098 9C13.4185 9 11.8924 9.63214 10.7671 10.7574C9.64192 11.8826 9.00977 13.4087 9.00977 15V28C9.00977 28.7956 9.32583 29.5587 9.88844 30.1213C10.4511 30.6839 11.2141 31 12.0098 31H26.0098C26.8054 31 27.5685 30.6839 28.1311 30.1213C28.6937 29.5587 29.0098 28.7956 29.0098 28V12C29.0098 11.2044 28.6937 10.4413 28.1311 9.87868C27.5685 9.31607 26.8054 9 26.0098 9H15.0098Z" fill="#23B4FF"/>
<path fillRule="evenodd" clipRule="evenodd" d="M15.689 16.17C15.689 14.4193 17.1082 13 18.859 13C20.6097 13 22.029 14.4193 22.029 16.17C22.029 17.9207 20.6097 19.34 18.859 19.34C17.1082 19.34 15.689 17.9207 15.689 16.17ZM18.859 15C18.2128 15 17.689 15.5238 17.689 16.17C17.689 16.8162 18.2128 17.34 18.859 17.34C19.5051 17.34 20.029 16.8162 20.029 16.17C20.029 15.5238 19.5051 15 18.859 15Z" fill="#040A1F"/>
<path fillRule="evenodd" clipRule="evenodd" d="M17.179 20.6001H20.5063C21.2922 20.6058 22.0628 20.8182 22.7407 21.2159C23.418 21.6132 23.9789 22.1816 24.3673 22.864C24.6701 23.3924 24.7559 24.0177 24.6067 24.6082C24.4572 25.1993 24.0839 25.7093 23.5655 26.0303L23.5617 26.0326C22.1475 26.8997 20.5226 27.3623 18.8638 27.3701L18.8593 27.3701C17.1852 27.3705 15.5436 26.9076 14.1164 26.0326L14.1126 26.0303C13.5942 25.7093 13.2208 25.1993 13.0714 24.6082C12.9222 24.0178 13.008 23.3924 13.3107 22.864C13.6991 22.1816 14.2601 21.6132 14.9373 21.2159C15.6152 20.8182 16.3858 20.6058 17.1718 20.6001L17.179 20.6001ZM17.183 22.6001C16.749 22.6038 16.3237 22.7214 15.9494 22.9409C15.5741 23.1611 15.2634 23.4761 15.0484 23.8543L15.0462 23.8581C15.001 23.9368 14.9882 24.03 15.0104 24.1181C15.0326 24.2056 15.0876 24.2812 15.1642 24.3291C16.2755 25.0098 17.5533 25.37 18.8566 25.3701C20.1479 25.3636 21.4127 25.0036 22.5139 24.3291C22.5904 24.2812 22.6455 24.2056 22.6676 24.1181C22.6899 24.0301 22.677 23.9368 22.6318 23.858L22.6297 23.8543C22.4147 23.4761 22.1039 23.1611 21.7287 22.9409C21.3544 22.7214 20.929 22.6038 20.4951 22.6001H17.183Z" fill="#040A1F"/>
<path d="M27.9998 13C27.4475 13 26.9998 13.4477 26.9998 14C26.9998 14.5523 27.4475 15 27.9998 15H29.9998C30.552 15 30.9998 14.5523 30.9998 14C30.9998 13.4477 30.552 13 29.9998 13H27.9998Z" fill="#040A1F"/>
<path d="M27.9998 19C27.4475 19 26.9998 19.4477 26.9998 20C26.9998 20.5523 27.4475 21 27.9998 21H29.9998C30.552 21 30.9998 20.5523 30.9998 20C30.9998 19.4477 30.552 19 29.9998 19H27.9998Z" fill="#040A1F"/>
<path d="M26.9998 26C26.9998 25.4477 27.4475 25 27.9998 25H29.9998C30.552 25 30.9998 25.4477 30.9998 26C30.9998 26.5523 30.552 27 29.9998 27H27.9998C27.4475 27 26.9998 26.5523 26.9998 26Z" fill="#040A1F"/>
</svg>
