<svg width="56" height="56" viewBox="0 0 56 56" fill="none" xmlns="http://www.w3.org/2000/svg">
<path d="M11.6277 28.7258C11.9942 28.3845 12.4793 28.1949 12.9832 28.1958L46.9512 28.26C47.8559 28.2617 48.2799 29.3656 47.6037 29.9589L39.9617 36.6639C39.7814 36.8221 39.5486 36.9095 39.3074 36.9095L5.31801 36.9096C4.42658 36.9096 3.99368 35.8339 4.64213 35.2301L11.6277 28.7258Z" fill="url(#paint0_linear_4328_3200)"/>
<path opacity="0.7" fill-rule="evenodd" clip-rule="evenodd" d="M4.0572 35.4999C3.8394 36.1047 4.26266 36.8386 5.00201 36.8386H39.2339C39.4766 36.8386 39.711 36.7504 39.8934 36.5903L47.4665 29.9458C47.8452 29.6135 47.8888 29.1218 47.7001 28.7439L40.283 35.2516C40.1006 35.4116 39.8662 35.4999 39.6235 35.4999H4.0572Z" fill="#52AFFF"/>
<path fill-rule="evenodd" clip-rule="evenodd" d="M12.9763 28.1938C12.4765 28.1938 11.9953 28.3814 11.6304 28.7184L4.6597 35.1562C4.22257 35.5599 4.27229 36.1779 4.62146 36.5417L12.6407 28.7587C13.0139 28.3965 13.5136 28.1939 14.0336 28.1939H48.9274C48.9251 28.1939 48.9229 28.1938 48.9206 28.1938H12.9763Z" fill="white"/>
<path d="M47.9265 29.7815V29.1666C47.9265 28.6296 47.4855 28.1943 46.9415 28.1943H12.986C12.4805 28.1943 11.9943 28.3862 11.6281 28.7301L4.62193 35.3101C4.42653 35.4936 4.31592 35.7482 4.31592 36.0144V37.9659C4.31592 38.5265 4.79499 38.9709 5.36188 38.9362L39.6104 36.8389" stroke="url(#paint1_linear_4328_3200)" stroke-width="0.5" stroke-linecap="round" stroke-linejoin="round"/>
<g style="mix-blend-mode:overlay" opacity="0.6">
<path d="M20.2669 32.9971H30.1521V33.1848L27.7747 35.0622H17.7895V34.8744L20.2669 32.9971Z" fill="#60B6FF"/>
</g>
<g opacity="0.6">
<path fill-rule="evenodd" clip-rule="evenodd" d="M23.9549 29.7186C24.1 29.5994 24.0158 29.364 23.828 29.364H22.3664C22.3201 29.364 22.2753 29.3801 22.2395 29.4094L21.469 30.042C21.3239 30.1611 21.4081 30.3966 21.5959 30.3966H23.0574C23.1037 30.3966 23.1486 30.3805 23.1843 30.3511L23.9549 29.7186Z" fill="url(#paint2_linear_4328_3200)"/>
<path fill-rule="evenodd" clip-rule="evenodd" d="M33.3694 29.7186C33.5146 29.5994 33.4303 29.364 33.2425 29.364H31.781C31.7347 29.364 31.6898 29.3801 31.6541 29.4094L30.8836 30.042C30.7384 30.1611 30.8227 30.3966 31.0105 30.3966H32.472C32.5183 30.3966 32.5631 30.3805 32.5989 30.3511L33.3694 29.7186Z" fill="url(#paint3_linear_4328_3200)"/>
<path fill-rule="evenodd" clip-rule="evenodd" d="M17.6785 29.7186C17.8237 29.5994 17.7394 29.364 17.5516 29.364H16.0901C16.0438 29.364 15.9989 29.3801 15.9632 29.4094L15.1926 30.042C15.0475 30.1611 15.1317 30.3966 15.3195 30.3966H16.7811C16.8274 30.3966 16.8722 30.3805 16.908 30.3511L17.6785 29.7186Z" fill="url(#paint4_linear_4328_3200)"/>
<path fill-rule="evenodd" clip-rule="evenodd" d="M27.0931 29.7186C27.2382 29.5994 27.1539 29.364 26.9662 29.364H25.5046C25.4583 29.364 25.4135 29.3801 25.3777 29.4094L24.6072 30.042C24.462 30.1611 24.5463 30.3966 24.7341 30.3966H26.1956C26.2419 30.3966 26.2868 30.3805 26.3225 30.3511L27.0931 29.7186Z" fill="url(#paint5_linear_4328_3200)"/>
<path fill-rule="evenodd" clip-rule="evenodd" d="M36.5076 29.7186C36.6528 29.5994 36.5685 29.364 36.3807 29.364H34.9192C34.8729 29.364 34.828 29.3801 34.7923 29.4094L34.0217 30.042C33.8766 30.1611 33.9608 30.3966 34.1486 30.3966H35.6102C35.6565 30.3966 35.7013 30.3805 35.7371 30.3511L36.5076 29.7186Z" fill="url(#paint6_linear_4328_3200)"/>
<path fill-rule="evenodd" clip-rule="evenodd" d="M42.7845 29.7186C42.9296 29.5994 42.8454 29.364 42.6576 29.364H41.196C41.1497 29.364 41.1049 29.3801 41.0691 29.4094L40.2986 30.042C40.1534 30.1611 40.2377 30.3966 40.4255 30.3966H41.887C41.9333 30.3966 41.9782 30.3805 42.0139 30.3511L42.7845 29.7186Z" fill="url(#paint7_linear_4328_3200)"/>
<path fill-rule="evenodd" clip-rule="evenodd" d="M20.8167 29.7186C20.9618 29.5994 20.8776 29.364 20.6898 29.364H19.2282C19.182 29.364 19.1371 29.3801 19.1013 29.4094L18.3308 30.042C18.1857 30.1611 18.2699 30.3966 18.4577 30.3966H19.9193C19.9655 30.3966 20.0104 30.3805 20.0462 30.3511L20.8167 29.7186Z" fill="url(#paint8_linear_4328_3200)"/>
<path fill-rule="evenodd" clip-rule="evenodd" d="M30.2312 29.7186C30.3764 29.5994 30.2921 29.364 30.1043 29.364H28.6428C28.5965 29.364 28.5517 29.3801 28.5159 29.4094L27.7454 30.042C27.6002 30.1611 27.6845 30.3966 27.8723 30.3966H29.3338C29.3801 30.3966 29.4249 30.3805 29.4607 30.3511L30.2312 29.7186Z" fill="url(#paint9_linear_4328_3200)"/>
<path fill-rule="evenodd" clip-rule="evenodd" d="M39.6463 29.7186C39.7914 29.5994 39.7072 29.364 39.5194 29.364H38.0578C38.0116 29.364 37.9667 29.3801 37.9309 29.4094L37.1604 30.042C37.0153 30.1611 37.0995 30.3966 37.2873 30.3966H38.7489C38.7951 30.3966 38.84 30.3805 38.8758 30.3511L39.6463 29.7186Z" fill="url(#paint10_linear_4328_3200)"/>
</g>
<g opacity="0.7">
<path fill-rule="evenodd" clip-rule="evenodd" d="M20.9549 31.7186C21.1 31.5994 21.0158 31.364 20.828 31.364H19.3664C19.3201 31.364 19.2753 31.3801 19.2395 31.4094L18.469 32.042C18.3239 32.1611 18.4081 32.3966 18.5959 32.3966H20.0574C20.1037 32.3966 20.1486 32.3805 20.1843 32.3511L20.9549 31.7186Z" fill="url(#paint11_linear_4328_3200)"/>
<path fill-rule="evenodd" clip-rule="evenodd" d="M30.3694 31.7186C30.5146 31.5994 30.4303 31.364 30.2425 31.364H28.781C28.7347 31.364 28.6898 31.3801 28.6541 31.4094L27.8836 32.042C27.7384 32.1611 27.8227 32.3966 28.0105 32.3966H29.472C29.5183 32.3966 29.5631 32.3805 29.5989 32.3511L30.3694 31.7186Z" fill="url(#paint12_linear_4328_3200)"/>
<path fill-rule="evenodd" clip-rule="evenodd" d="M14.6785 31.7186C14.8237 31.5994 14.7394 31.364 14.5516 31.364H13.0901C13.0438 31.364 12.9989 31.3801 12.9632 31.4094L12.1926 32.042C12.0475 32.1611 12.1317 32.3966 12.3195 32.3966H13.7811C13.8274 32.3966 13.8722 32.3805 13.908 32.3511L14.6785 31.7186Z" fill="url(#paint13_linear_4328_3200)"/>
<path fill-rule="evenodd" clip-rule="evenodd" d="M24.0931 31.7186C24.2382 31.5994 24.1539 31.364 23.9662 31.364H22.5046C22.4583 31.364 22.4135 31.3801 22.3777 31.4094L21.6072 32.042C21.462 32.1611 21.5463 32.3966 21.7341 32.3966H23.1956C23.2419 32.3966 23.2868 32.3805 23.3225 32.3511L24.0931 31.7186Z" fill="url(#paint14_linear_4328_3200)"/>
<path fill-rule="evenodd" clip-rule="evenodd" d="M33.5076 31.7186C33.6528 31.5994 33.5685 31.364 33.3807 31.364H31.9192C31.8729 31.364 31.828 31.3801 31.7923 31.4094L31.0217 32.042C30.8766 32.1611 30.9608 32.3966 31.1486 32.3966H32.6102C32.6565 32.3966 32.7013 32.3805 32.7371 32.3511L33.5076 31.7186Z" fill="url(#paint15_linear_4328_3200)"/>
<path fill-rule="evenodd" clip-rule="evenodd" d="M39.7845 31.7186C39.9296 31.5994 39.8454 31.364 39.6576 31.364H38.196C38.1497 31.364 38.1049 31.3801 38.0691 31.4094L37.2986 32.042C37.1534 32.1611 37.2377 32.3966 37.4255 32.3966H38.887C38.9333 32.3966 38.9782 32.3805 39.0139 32.3511L39.7845 31.7186Z" fill="url(#paint16_linear_4328_3200)"/>
<path fill-rule="evenodd" clip-rule="evenodd" d="M17.8167 31.7186C17.9618 31.5994 17.8776 31.364 17.6898 31.364H16.2282C16.182 31.364 16.1371 31.3801 16.1013 31.4094L15.3308 32.042C15.1857 32.1611 15.2699 32.3966 15.4577 32.3966H16.9193C16.9655 32.3966 17.0104 32.3805 17.0462 32.3511L17.8167 31.7186Z" fill="url(#paint17_linear_4328_3200)"/>
<path fill-rule="evenodd" clip-rule="evenodd" d="M27.2312 31.7186C27.3764 31.5994 27.2921 31.364 27.1043 31.364H25.6428C25.5965 31.364 25.5517 31.3801 25.5159 31.4094L24.7454 32.042C24.6002 32.1611 24.6845 32.3966 24.8723 32.3966H26.3338C26.3801 32.3966 26.4249 32.3805 26.4607 32.3511L27.2312 31.7186Z" fill="url(#paint18_linear_4328_3200)"/>
<path fill-rule="evenodd" clip-rule="evenodd" d="M36.6463 31.7186C36.7914 31.5994 36.7072 31.364 36.5194 31.364H35.0578C35.0116 31.364 34.9667 31.3801 34.9309 31.4094L34.1604 32.042C34.0153 32.1611 34.0995 32.3966 34.2873 32.3966H35.7489C35.7951 32.3966 35.84 32.3805 35.8758 32.3511L36.6463 31.7186Z" fill="url(#paint19_linear_4328_3200)"/>
</g>
<path d="M47.9267 29.9572C47.9267 29.6962 47.6166 29.5597 47.4242 29.7359L40.0049 36.5267L40.0605 38.7884C40.0626 38.8729 40.1619 38.9169 40.2258 38.8617L47.5804 32.5096C47.8003 32.3197 47.9267 32.0434 47.9267 31.7528V29.9572Z" fill="url(#paint20_linear_4328_3200)" stroke="url(#paint21_linear_4328_3200)" stroke-opacity="0.4" stroke-width="0.5" stroke-linejoin="round"/>
<path d="M47.9267 29.9572C47.9267 29.6962 47.6166 29.5597 47.4242 29.7359L40.0049 36.5266L40.0603 38.7802C40.0624 38.866 40.1645 38.9095 40.2278 38.8515L47.602 32.1008C47.8089 31.9113 47.9267 31.6437 47.9267 31.3632V29.9572Z" stroke="url(#paint22_linear_4328_3200)" stroke-width="0.5" stroke-linecap="round" stroke-linejoin="round"/>
<path d="M4.31592 36.0835H39.6279C40.1719 36.0835 40.6129 36.5188 40.6129 37.0557V38.222C40.6129 38.6515 40.2601 38.9998 39.8249 38.9998H5.30089C4.7569 38.9998 4.31592 38.5645 4.31592 38.0275V36.0835Z" fill="url(#paint23_linear_4328_3200)" stroke="url(#paint24_linear_4328_3200)" stroke-opacity="0.4" stroke-width="0.5" stroke-linejoin="round"/>
<path d="M39.6279 35.7581C40.1719 35.7581 40.6129 36.1933 40.6129 36.7303V38.222C40.6129 38.6515 40.2601 38.9998 39.8249 38.9998H5.30089C4.7569 38.9998 4.31592 38.5645 4.31592 38.0275V36.0835H35.3424" stroke="url(#paint25_linear_4328_3200)" stroke-width="0.5" stroke-linecap="round" stroke-linejoin="round"/>
<path opacity="0.8" d="M5.48438 36.7264C5.48438 36.6159 5.57392 36.5264 5.68437 36.5264H8.4226C8.53306 36.5264 8.6226 36.6159 8.6226 36.7264V37.3589C8.6226 37.4694 8.53306 37.5589 8.4226 37.5589H5.68438C5.57392 37.5589 5.48438 37.4694 5.48438 37.3589V36.7264Z" fill="#0664EF"/>
<path opacity="0.8" d="M9.66846 36.7264C9.66846 36.6159 9.758 36.5264 9.86846 36.5264H10.514C10.6244 36.5264 10.714 36.6159 10.714 36.7264V37.3589C10.714 37.4694 10.6244 37.5589 10.514 37.5589H9.86846C9.758 37.5589 9.66846 37.4694 9.66846 37.3589V36.7264Z" fill="#0664EF"/>
<path opacity="0.8" d="M11.7607 36.7264C11.7607 36.6159 11.8503 36.5264 11.9607 36.5264H12.6062C12.7167 36.5264 12.8062 36.6159 12.8062 36.7264V37.3589C12.8062 37.4694 12.7167 37.5589 12.6062 37.5589H11.9607C11.8503 37.5589 11.7607 37.4694 11.7607 37.3589V36.7264Z" fill="#0664EF"/>
<path opacity="0.8" d="M13.853 36.7264C13.853 36.6159 13.9426 36.5264 14.053 36.5264H14.6985C14.809 36.5264 14.8985 36.6159 14.8985 36.7264V37.3589C14.8985 37.4694 14.809 37.5589 14.6985 37.5589H14.053C13.9426 37.5589 13.853 37.4694 13.853 37.3589V36.7264Z" fill="#0664EF"/>
<path d="M15.6108 4.93271C15.6462 4.40774 16.0824 4 16.6085 4H48.9055C49.4843 4 49.9422 4.48983 49.9032 5.06729L48.4064 27.2615C48.371 27.7865 47.9348 28.1942 47.4087 28.1942H15.1117C14.5329 28.1942 14.075 27.7044 14.114 27.1269L15.6108 4.93271Z" fill="url(#paint26_linear_4328_3200)" stroke="url(#paint27_linear_4328_3200)" stroke-opacity="0.4" stroke-width="0.5" stroke-linejoin="round"/>
<path d="M47.9264 4H48.9053C49.484 4 49.942 4.48983 49.903 5.06729L48.4062 27.2615C48.3708 27.7865 47.9346 28.1942 47.4084 28.1942H45.3657" stroke="url(#paint28_linear_4328_3200)" stroke-width="0.5" stroke-linecap="round" stroke-linejoin="round"/>
<path d="M14.5864 4.93271C14.6218 4.40774 15.058 4 15.5841 4H47.8811C48.4599 4 48.9178 4.48983 48.8788 5.06729L47.382 27.2615C47.3466 27.7865 46.9104 28.1942 46.3843 28.1942H14.0873C13.5085 28.1942 13.0506 27.7044 13.0896 27.1269L14.5864 4.93271Z" fill="url(#paint29_linear_4328_3200)"/>
<path fill-rule="evenodd" clip-rule="evenodd" d="M45.3599 28.1942H46.3842C46.9103 28.1942 47.3465 27.7865 47.3819 27.2615L48.8787 5.06729C48.9177 4.48983 48.4598 4 47.881 4H46.8567C47.4355 4 47.8934 4.48983 47.8544 5.06729L46.3576 27.2615C46.3222 27.7865 45.886 28.1942 45.3599 28.1942Z" fill="#C6E5FF"/>
<path fill-rule="evenodd" clip-rule="evenodd" d="M15.5843 4C15.0581 4 14.622 4.40774 14.5865 4.93271L13.0897 27.1269C13.0629 27.5245 13.2716 27.8805 13.5931 28.0638L15.0877 5.4397C15.1224 4.91415 15.5588 4.50562 16.0855 4.50562H48.7507C48.5792 4.20478 48.2555 4 47.8813 4H15.5843Z" fill="white"/>
<path d="M16.6541 6.48792C16.6721 6.22571 16.8901 6.02222 17.1529 6.02222H46.4166C46.7062 6.02222 46.9353 6.26755 46.9154 6.55651L45.4277 28.1944H15.1616L16.6541 6.48792Z" fill="url(#paint30_linear_4328_3200)"/>
<path fill-rule="evenodd" clip-rule="evenodd" d="M17.1529 6.02222C16.8901 6.02222 16.6721 6.22571 16.6541 6.48792L15.1616 28.1944H16.2554L17.6784 7.49894C17.6964 7.23673 17.9144 7.03323 18.1772 7.03323H46.8826L46.9154 6.55651C46.9353 6.26755 46.7062 6.02222 46.4166 6.02222H17.1529Z" fill="white"/>
<path fill-rule="evenodd" clip-rule="evenodd" d="M15.2311 27.1833L15.1616 28.1944H45.4277L46.9154 6.55651C46.9353 6.26755 46.7062 6.02222 46.4166 6.02222H45.8584L44.4034 27.1833H15.2311Z" fill="url(#paint31_linear_4328_3200)"/>
<path fill-rule="evenodd" clip-rule="evenodd" d="M31.7429 6.02222H29.5748L15.7188 20.0897L15.5054 23.1945L31.7429 6.02222Z" fill="white"/>
<path fill-rule="evenodd" clip-rule="evenodd" d="M27.4408 6.02222H22.8315L16.2384 12.53L15.9028 17.4109L27.4408 6.02222Z" fill="white"/>
<path d="M14.5864 4.93271C14.6218 4.40774 15.058 4 15.5841 4H47.8811C48.4599 4 48.9178 4.48983 48.8788 5.06729L47.382 27.2615C47.3466 27.7865 46.9104 28.1942 46.3843 28.1942H14.0873C13.5085 28.1942 13.0506 27.7044 13.0896 27.1269L14.5864 4.93271Z" stroke="url(#paint32_linear_4328_3200)" stroke-width="0.5" stroke-linecap="round" stroke-linejoin="round"/>
<path d="M45.4277 28.1944L46.9154 6.55651C46.9353 6.26755 46.7062 6.02222 46.4166 6.02222H17.1529C16.8901 6.02222 16.6721 6.22571 16.6541 6.48792L15.1616 28.1944" stroke="url(#paint33_linear_4328_3200)" stroke-width="0.5" stroke-linecap="round" stroke-linejoin="round"/>
<path d="M43.7297 43.25H51.5C51.7761 43.25 52 43.4739 52 43.75V45L46.9459 51.9999H35V50.7298C35 50.4264 35.1377 50.1395 35.3744 49.9497L43.7297 43.25Z" fill="url(#paint34_linear_4328_3200)"/>
<path fill-rule="evenodd" clip-rule="evenodd" d="M35 50.7262C35.0007 50.5577 35.0438 50.3943 35.1228 50.25H47.3117L47.654 51.0194L46.946 52H35V50.7262Z" fill="url(#paint35_linear_4328_3200)"/>
<path d="M35 50.7262L34.75 50.7252V50.7262H35ZM35.1228 50.25V50C35.0314 50 34.9473 50.0498 34.9035 50.13L35.1228 50.25ZM47.3117 50.25L47.5401 50.1484C47.4999 50.0581 47.4104 50 47.3117 50V50.25ZM47.654 51.0194L47.8567 51.1657C47.9088 51.0936 47.9186 50.9991 47.8824 50.9178L47.654 51.0194ZM46.946 52V52.25C47.0263 52.25 47.1017 52.2114 47.1487 52.1463L46.946 52ZM35 52H34.75C34.75 52.138 34.8619 52.25 35 52.25V52ZM35.25 50.7271C35.2505 50.6008 35.2828 50.4783 35.3421 50.37L34.9035 50.13C34.8048 50.3103 34.7508 50.5145 34.75 50.7252L35.25 50.7271ZM35.1228 50.5H47.3117V50H35.1228V50.5ZM47.0833 50.3516L47.4256 51.121L47.8824 50.9178L47.5401 50.1484L47.0833 50.3516ZM47.4513 50.8731L46.7434 51.8536L47.1487 52.1463L47.8567 51.1657L47.4513 50.8731ZM46.946 51.75H35V52.25H46.946V51.75ZM35.25 52V50.7262H34.75V52H35.25Z" fill="url(#paint36_linear_4328_3200)" fill-opacity="0.4"/>
<path fill-rule="evenodd" clip-rule="evenodd" d="M51.9999 43.7501C51.9999 43.6541 51.9728 43.5644 51.9259 43.4883L47.1406 49.9855C47.0141 50.1574 46.9458 50.3652 46.9458 50.5786L46.9458 52L51.9999 45.0001V43.7501Z" fill="url(#paint37_linear_4328_3200)"/>
<path d="M51.9259 43.4883L52.1387 43.3572C52.0952 43.2864 52.0193 43.2419 51.9362 43.2385C51.8532 43.2351 51.7739 43.2731 51.7246 43.34L51.9259 43.4883ZM47.1406 49.9855L47.3419 50.1338H47.3419L47.1406 49.9855ZM46.9458 50.5786L47.1958 50.5786V50.5786H46.9458ZM46.9458 52L46.6958 52C46.6958 52.1085 46.7657 52.2045 46.8689 52.2379C46.9721 52.2713 47.085 52.2343 47.1485 52.1464L46.9458 52ZM51.9999 45.0001L52.2025 45.1465C52.2333 45.1039 52.2499 45.0527 52.2499 45.0001H51.9999ZM51.713 43.6194C51.7364 43.6573 51.7499 43.7017 51.7499 43.7501H52.2499C52.2499 43.6065 52.2092 43.4716 52.1387 43.3572L51.713 43.6194ZM47.3419 50.1338L52.1272 43.6365L51.7246 43.34L46.9393 49.8373L47.3419 50.1338ZM47.1958 50.5786C47.1958 50.4185 47.247 50.2627 47.3419 50.1338L46.9393 49.8373C46.7811 50.0521 46.6958 50.3118 46.6958 50.5786H47.1958ZM47.1958 52L47.1958 50.5786L46.6958 50.5786L46.6958 52L47.1958 52ZM51.7972 44.8538L46.7431 51.8537L47.1485 52.1464L52.2025 45.1465L51.7972 44.8538ZM51.7499 43.7501V45.0001H52.2499V43.7501H51.7499Z" fill="url(#paint38_linear_4328_3200)" fill-opacity="0.4"/>
<path d="M43.7297 43.25H51.5C51.7761 43.25 52 43.4739 52 43.75V45L46.9459 51.9999H35V50.4899C35 50.3382 35.0689 50.1947 35.1872 50.0998L43.7297 43.25Z" stroke="url(#paint39_linear_4328_3200)" stroke-width="0.5" stroke-linecap="round" stroke-linejoin="round"/>
<path d="M40.2378 38L41.7763 46.9304H48.0358L44.6027 38H40.2378Z" fill="url(#paint40_linear_4328_3200)"/>
<path d="M40.2378 38L41.7763 46.9304H48.0358L44.6027 38H40.2378Z" stroke="url(#paint41_linear_4328_3200)" stroke-width="0.5" stroke-linecap="round" stroke-linejoin="round"/>
<path d="M48.7602 45.4787L48.036 46.9305L45.1392 39.6716H45.8634L48.7602 45.4787Z" fill="#10A5F7"/>
<path d="M48.7602 45.4787L48.036 46.9305L45.1392 39.6716H45.8634L48.7602 45.4787Z" stroke="url(#paint42_linear_4328_3200)" stroke-width="0.5" stroke-linecap="round" stroke-linejoin="round"/>
<path d="M37.3975 18.4449C37.4256 18.1917 37.6396 18 37.8945 18H51.4599C51.7512 18 51.9808 18.248 51.9584 18.5384L50.2634 40.5384C50.2433 40.7989 50.0261 41 49.7649 41H35.4574C35.1594 41 34.9276 40.7411 34.9604 40.4449L37.3975 18.4449Z" fill="url(#paint43_linear_4328_3200)" stroke="url(#paint44_linear_4328_3200)" stroke-opacity="0.4" stroke-width="0.5" stroke-linejoin="round"/>
<path d="M47.5757 18H51.4601C51.7514 18 51.981 18.248 51.9586 18.5384L50.2636 40.5384C50.2435 40.7989 50.0263 41 49.7651 41H47.5005" stroke="url(#paint45_linear_4328_3200)" stroke-width="0.5" stroke-linecap="round" stroke-linejoin="round"/>
<path d="M35.7365 18.4616C35.7566 18.2011 35.9738 18 36.235 18H50.1844C50.4756 18 50.7053 18.248 50.6829 18.5384L48.9879 40.5384C48.9678 40.7989 48.7506 41 48.4893 41H34.54C34.2487 41 34.0191 40.752 34.0415 40.4616L35.7365 18.4616Z" fill="url(#paint46_linear_4328_3200)" stroke="url(#paint47_linear_4328_3200)" stroke-opacity="0.4" stroke-width="0.5" stroke-linejoin="round"/>
<path d="M42.6597 39.1049C42.6597 39.6471 42.2196 40.0865 41.6766 40.0865C41.1335 40.0865 40.6934 39.6471 40.6934 39.1049C40.6934 38.5628 41.1335 38.1233 41.6766 38.1233C42.2196 38.1233 42.6597 38.5628 42.6597 39.1049Z" fill="url(#paint48_linear_4328_3200)" stroke="url(#paint49_linear_4328_3200)" stroke-opacity="0.4" stroke-width="0.5" stroke-linejoin="round"/>
<path opacity="0.6" fill-rule="evenodd" clip-rule="evenodd" d="M34.0757 40.0183L34.0415 40.4616C34.0192 40.752 34.2488 41 34.5401 41H48.4894C48.7507 41 48.9679 40.7989 48.9879 40.5384L50.6829 18.5384C50.7053 18.248 50.4757 18 50.1844 18H49.958L48.2972 39.5567C48.2771 39.8172 48.0599 40.0183 47.7987 40.0183H34.0757Z" fill="#1D58DC"/>
<path fill-rule="evenodd" clip-rule="evenodd" d="M36.2351 18C35.9738 18 35.7566 18.2011 35.7366 18.4616L34.0415 40.4616C34.0192 40.752 34.2488 41 34.5401 41H34.6328L36.3263 19.0205C36.3463 18.7601 36.5636 18.559 36.8248 18.559H50.6814L50.6829 18.5384C50.7053 18.248 50.4757 18 50.1844 18H36.2351Z" fill="white"/>
<path d="M35.7365 18.4616C35.7566 18.2011 35.9738 18 36.235 18H50.1844C50.4756 18 50.7053 18.248 50.6829 18.5384L48.9879 40.5384C48.9678 40.7989 48.7506 41 48.4893 41H34.54C34.2487 41 34.0191 40.752 34.0415 40.4616L35.7365 18.4616Z" stroke="url(#paint50_linear_4328_3200)" stroke-width="0.5" stroke-linecap="round" stroke-linejoin="round"/>
<path d="M37.2471 19.563C37.2687 19.3039 37.4853 19.1045 37.7454 19.1045L39.3959 19.1045C39.6608 19.1045 39.9149 19.2096 40.1024 19.3968L40.4029 19.6968C40.5903 19.884 40.8445 19.9891 41.1094 19.9891H45.1596C45.4246 19.9891 45.6787 19.884 45.8662 19.6968L46.1666 19.3968C46.3541 19.2096 46.6082 19.1045 46.8731 19.1045H48.5741C48.8666 19.1045 49.0967 19.3545 49.0724 19.646L47.614 37.1739C47.5924 37.4331 47.3758 37.6325 47.1157 37.6325H36.287C35.9945 37.6325 35.7644 37.3825 35.7887 37.091L37.2471 19.563Z" fill="url(#paint51_linear_4328_3200)"/>
<path fill-rule="evenodd" clip-rule="evenodd" d="M46.9166 19.1045H46.8732C46.6082 19.1045 46.3541 19.2096 46.1666 19.3968L45.8662 19.6968C45.6787 19.884 45.4246 19.9891 45.1596 19.9891H42.7085L36.68 26.0079L36.3613 29.6429L46.9166 19.1045Z" fill="white"/>
<path fill-rule="evenodd" clip-rule="evenodd" d="M36.9935 22.4294L40.1803 19.4749L40.4026 19.6967C40.53 19.824 40.6882 19.9133 40.8597 19.9575L36.8853 23.6635L36.9935 22.4294Z" fill="white"/>
<path fill-rule="evenodd" clip-rule="evenodd" d="M35.825 36.651L35.7884 37.0911C35.7641 37.3826 35.9942 37.6326 36.2867 37.6326H47.1154C47.3755 37.6326 47.5921 37.4332 47.6137 37.174L49.0721 19.6462C49.0963 19.3547 48.8663 19.1047 48.5738 19.1047H48.0075L46.6294 36.1912C46.6085 36.4509 46.3916 36.651 46.131 36.651H35.825Z" fill="#ADDBFF"/>
<path fill-rule="evenodd" clip-rule="evenodd" d="M38.5647 19.6791C38.3055 19.6791 38.0893 19.8772 38.0666 20.1355L36.5326 37.6326H36.1289C35.8347 37.6326 35.6041 37.3798 35.6311 37.0868L37.2434 19.5589C37.2671 19.3016 37.4829 19.1047 37.7413 19.1047H39.3958C39.6607 19.1047 39.9149 19.2099 40.1023 19.3971L40.3849 19.6791H38.5647Z" fill="white"/>
<path d="M37.2471 19.563C37.2687 19.3039 37.4853 19.1045 37.7454 19.1045L39.6027 19.1045C39.7352 19.1045 39.8623 19.1571 39.956 19.2507L40.5492 19.8429C40.643 19.9365 40.77 19.9891 40.9025 19.9891H45.3665C45.4989 19.9891 45.626 19.9365 45.7198 19.8429L46.313 19.2507C46.4067 19.1571 46.5338 19.1045 46.6663 19.1045H48.5741C48.8666 19.1045 49.0967 19.3545 49.0724 19.646L47.614 37.1739C47.5924 37.4331 47.3758 37.6325 47.1157 37.6325H36.287C35.9945 37.6325 35.7644 37.3825 35.7887 37.091L37.2471 19.563Z" stroke="url(#paint52_linear_4328_3200)" stroke-width="0.5" stroke-linecap="round" stroke-linejoin="round"/>
<defs>
<linearGradient id="paint0_linear_4328_3200" x1="57.5811" y1="42.782" x2="48.0767" y2="11.5318" gradientUnits="userSpaceOnUse">
<stop stop-color="#0592FF"/>
<stop offset="1" stop-color="#DBEEFF"/>
</linearGradient>
<linearGradient id="paint1_linear_4328_3200" x1="2.34597" y1="41.781" x2="4.50206" y2="21.0986" gradientUnits="userSpaceOnUse">
<stop stop-color="#1B217C"/>
<stop offset="1" stop-color="#1B217C" stop-opacity="0"/>
</linearGradient>
<linearGradient id="paint2_linear_4328_3200" x1="23.1401" y1="27.4999" x2="20.9001" y2="27.5472" gradientUnits="userSpaceOnUse">
<stop stop-color="#6EBFFF"/>
<stop offset="1" stop-color="#6EBFFF" stop-opacity="0"/>
</linearGradient>
<linearGradient id="paint3_linear_4328_3200" x1="32.5547" y1="27.4999" x2="30.3146" y2="27.5472" gradientUnits="userSpaceOnUse">
<stop stop-color="#6EBFFF"/>
<stop offset="1" stop-color="#6EBFFF" stop-opacity="0"/>
</linearGradient>
<linearGradient id="paint4_linear_4328_3200" x1="16.8638" y1="27.4999" x2="14.6237" y2="27.5472" gradientUnits="userSpaceOnUse">
<stop stop-color="#6EBFFF"/>
<stop offset="1" stop-color="#6EBFFF" stop-opacity="0"/>
</linearGradient>
<linearGradient id="paint5_linear_4328_3200" x1="26.2783" y1="27.4999" x2="24.0382" y2="27.5472" gradientUnits="userSpaceOnUse">
<stop stop-color="#6EBFFF"/>
<stop offset="1" stop-color="#6EBFFF" stop-opacity="0"/>
</linearGradient>
<linearGradient id="paint6_linear_4328_3200" x1="35.6929" y1="27.4999" x2="33.4528" y2="27.5472" gradientUnits="userSpaceOnUse">
<stop stop-color="#6EBFFF"/>
<stop offset="1" stop-color="#6EBFFF" stop-opacity="0"/>
</linearGradient>
<linearGradient id="paint7_linear_4328_3200" x1="41.9697" y1="27.4999" x2="39.7296" y2="27.5472" gradientUnits="userSpaceOnUse">
<stop stop-color="#6EBFFF"/>
<stop offset="1" stop-color="#6EBFFF" stop-opacity="0"/>
</linearGradient>
<linearGradient id="paint8_linear_4328_3200" x1="20.002" y1="27.4999" x2="17.7619" y2="27.5472" gradientUnits="userSpaceOnUse">
<stop stop-color="#6EBFFF"/>
<stop offset="1" stop-color="#6EBFFF" stop-opacity="0"/>
</linearGradient>
<linearGradient id="paint9_linear_4328_3200" x1="29.4165" y1="27.4999" x2="27.1764" y2="27.5472" gradientUnits="userSpaceOnUse">
<stop stop-color="#6EBFFF"/>
<stop offset="1" stop-color="#6EBFFF" stop-opacity="0"/>
</linearGradient>
<linearGradient id="paint10_linear_4328_3200" x1="38.8316" y1="27.4999" x2="36.5915" y2="27.5472" gradientUnits="userSpaceOnUse">
<stop stop-color="#6EBFFF"/>
<stop offset="1" stop-color="#6EBFFF" stop-opacity="0"/>
</linearGradient>
<linearGradient id="paint11_linear_4328_3200" x1="20.1401" y1="29.4999" x2="17.9001" y2="29.5472" gradientUnits="userSpaceOnUse">
<stop stop-color="#6EBFFF"/>
<stop offset="1" stop-color="#6EBFFF" stop-opacity="0"/>
</linearGradient>
<linearGradient id="paint12_linear_4328_3200" x1="29.5547" y1="29.4999" x2="27.3146" y2="29.5472" gradientUnits="userSpaceOnUse">
<stop stop-color="#6EBFFF"/>
<stop offset="1" stop-color="#6EBFFF" stop-opacity="0"/>
</linearGradient>
<linearGradient id="paint13_linear_4328_3200" x1="13.8638" y1="29.4999" x2="11.6237" y2="29.5472" gradientUnits="userSpaceOnUse">
<stop stop-color="#6EBFFF"/>
<stop offset="1" stop-color="#6EBFFF" stop-opacity="0"/>
</linearGradient>
<linearGradient id="paint14_linear_4328_3200" x1="23.2783" y1="29.4999" x2="21.0382" y2="29.5472" gradientUnits="userSpaceOnUse">
<stop stop-color="#6EBFFF"/>
<stop offset="1" stop-color="#6EBFFF" stop-opacity="0"/>
</linearGradient>
<linearGradient id="paint15_linear_4328_3200" x1="32.6929" y1="29.4999" x2="30.4528" y2="29.5472" gradientUnits="userSpaceOnUse">
<stop stop-color="#6EBFFF"/>
<stop offset="1" stop-color="#6EBFFF" stop-opacity="0"/>
</linearGradient>
<linearGradient id="paint16_linear_4328_3200" x1="38.9697" y1="29.4999" x2="36.7296" y2="29.5472" gradientUnits="userSpaceOnUse">
<stop stop-color="#6EBFFF"/>
<stop offset="1" stop-color="#6EBFFF" stop-opacity="0"/>
</linearGradient>
<linearGradient id="paint17_linear_4328_3200" x1="17.002" y1="29.4999" x2="14.7619" y2="29.5472" gradientUnits="userSpaceOnUse">
<stop stop-color="#6EBFFF"/>
<stop offset="1" stop-color="#6EBFFF" stop-opacity="0"/>
</linearGradient>
<linearGradient id="paint18_linear_4328_3200" x1="26.4165" y1="29.4999" x2="24.1764" y2="29.5472" gradientUnits="userSpaceOnUse">
<stop stop-color="#6EBFFF"/>
<stop offset="1" stop-color="#6EBFFF" stop-opacity="0"/>
</linearGradient>
<linearGradient id="paint19_linear_4328_3200" x1="35.8316" y1="29.4999" x2="33.5915" y2="29.5472" gradientUnits="userSpaceOnUse">
<stop stop-color="#6EBFFF"/>
<stop offset="1" stop-color="#6EBFFF" stop-opacity="0"/>
</linearGradient>
<linearGradient id="paint20_linear_4328_3200" x1="53.5217" y1="46.8218" x2="49.499" y2="25.3448" gradientUnits="userSpaceOnUse">
<stop stop-color="#001BC1"/>
<stop offset="1" stop-color="#12B3FD"/>
</linearGradient>
<linearGradient id="paint21_linear_4328_3200" x1="50.659" y1="46.2037" x2="36.3958" y2="45.0017" gradientUnits="userSpaceOnUse">
<stop stop-color="white"/>
<stop offset="1" stop-color="white" stop-opacity="0"/>
</linearGradient>
<linearGradient id="paint22_linear_4328_3200" x1="43.3174" y1="55.0571" x2="53.9415" y2="27.2653" gradientUnits="userSpaceOnUse">
<stop stop-color="#1B217C"/>
<stop offset="1" stop-color="#1B217C" stop-opacity="0"/>
</linearGradient>
<linearGradient id="paint23_linear_4328_3200" x1="52.1579" y1="40.5641" x2="52.1138" y2="36.1185" gradientUnits="userSpaceOnUse">
<stop stop-color="#001BC1"/>
<stop offset="1" stop-color="#12B3FD"/>
</linearGradient>
<linearGradient id="paint24_linear_4328_3200" x1="41.3433" y1="40.4405" x2="25.9874" y2="15.9967" gradientUnits="userSpaceOnUse">
<stop stop-color="white"/>
<stop offset="1" stop-color="white" stop-opacity="0"/>
</linearGradient>
<linearGradient id="paint25_linear_4328_3200" x1="4.0502" y1="40.8531" x2="4.4612" y2="33.0345" gradientUnits="userSpaceOnUse">
<stop stop-color="#1B217C"/>
<stop offset="1" stop-color="#1B217C" stop-opacity="0"/>
</linearGradient>
<linearGradient id="paint26_linear_4328_3200" x1="61.3217" y1="39.8698" x2="58.837" y2="6.87375" gradientUnits="userSpaceOnUse">
<stop stop-color="#001BC1"/>
<stop offset="1" stop-color="#12B3FD"/>
</linearGradient>
<linearGradient id="paint27_linear_4328_3200" x1="50.6931" y1="38.9472" x2="-0.394012" y2="28.2388" gradientUnits="userSpaceOnUse">
<stop stop-color="white"/>
<stop offset="1" stop-color="white" stop-opacity="0"/>
</linearGradient>
<linearGradient id="paint28_linear_4328_3200" x1="14.0418" y1="42.0262" x2="34.1903" y2="-8.44495" gradientUnits="userSpaceOnUse">
<stop stop-color="#1B217C"/>
<stop offset="1" stop-color="#1B217C" stop-opacity="0"/>
</linearGradient>
<linearGradient id="paint29_linear_4328_3200" x1="41.9595" y1="5.78832" x2="31.3222" y2="37.1947" gradientUnits="userSpaceOnUse">
<stop stop-color="#DBEEFF"/>
<stop offset="1" stop-color="#85C5FF"/>
</linearGradient>
<linearGradient id="paint30_linear_4328_3200" x1="24.2702" y1="22.1978" x2="48.0031" y2="6.66947" gradientUnits="userSpaceOnUse">
<stop stop-color="#D6EEFF"/>
<stop offset="1" stop-color="white"/>
</linearGradient>
<linearGradient id="paint31_linear_4328_3200" x1="22.7753" y1="21.2141" x2="54.9298" y2="1.16781" gradientUnits="userSpaceOnUse">
<stop stop-color="#A8D9FF"/>
<stop offset="1" stop-color="#C7E6FF" stop-opacity="0"/>
</linearGradient>
<linearGradient id="paint32_linear_4328_3200" x1="10.2258" y1="38.5141" x2="24.3449" y2="-9.10429" gradientUnits="userSpaceOnUse">
<stop stop-color="#1B217C"/>
<stop offset="1" stop-color="#1B217C" stop-opacity="0"/>
</linearGradient>
<linearGradient id="paint33_linear_4328_3200" x1="20.0756" y1="40.4587" x2="34.4667" y2="-3.9099" gradientUnits="userSpaceOnUse">
<stop stop-color="#1B217C"/>
<stop offset="1" stop-color="#1B217C" stop-opacity="0"/>
</linearGradient>
<linearGradient id="paint34_linear_4328_3200" x1="58.6498" y1="42.5123" x2="40.3034" y2="29.8316" gradientUnits="userSpaceOnUse">
<stop stop-color="#0592FF"/>
<stop offset="1" stop-color="#DBEEFF"/>
</linearGradient>
<linearGradient id="paint35_linear_4328_3200" x1="51.6497" y1="52.8445" x2="51.6126" y2="50.4449" gradientUnits="userSpaceOnUse">
<stop stop-color="#001BC1"/>
<stop offset="1" stop-color="#12B3FD"/>
</linearGradient>
<linearGradient id="paint36_linear_4328_3200" x1="47.9068" y1="52.7777" x2="38.7071" y2="43.3892" gradientUnits="userSpaceOnUse">
<stop stop-color="white"/>
<stop offset="1" stop-color="white" stop-opacity="0"/>
</linearGradient>
<linearGradient id="paint37_linear_4328_3200" x1="53.6516" y1="57.5685" x2="51.0012" y2="44.8014" gradientUnits="userSpaceOnUse">
<stop stop-color="#001BC1"/>
<stop offset="1" stop-color="#12B3FD"/>
</linearGradient>
<linearGradient id="paint38_linear_4328_3200" x1="52.1044" y1="57.1982" x2="44.3852" y2="56.6113" gradientUnits="userSpaceOnUse">
<stop stop-color="white"/>
<stop offset="1" stop-color="white" stop-opacity="0"/>
</linearGradient>
<linearGradient id="paint39_linear_4328_3200" x1="30.7776" y1="43.6444" x2="34.8424" y2="57.4627" gradientUnits="userSpaceOnUse">
<stop stop-color="#1B217C"/>
<stop offset="1" stop-color="#1B217C" stop-opacity="0"/>
</linearGradient>
<linearGradient id="paint40_linear_4328_3200" x1="53.2852" y1="52.7654" x2="37.5021" y2="28.4559" gradientUnits="userSpaceOnUse">
<stop stop-color="#0592FF"/>
<stop offset="1" stop-color="#DBEEFF"/>
</linearGradient>
<linearGradient id="paint41_linear_4328_3200" x1="38.3009" y1="38.4026" x2="45.3226" y2="49.1306" gradientUnits="userSpaceOnUse">
<stop stop-color="#1B217C"/>
<stop offset="1" stop-color="#1B217C" stop-opacity="0"/>
</linearGradient>
<linearGradient id="paint42_linear_4328_3200" x1="44.2398" y1="39.9989" x2="50.4104" y2="45.3848" gradientUnits="userSpaceOnUse">
<stop stop-color="#1B217C"/>
<stop offset="1" stop-color="#1B217C" stop-opacity="0"/>
</linearGradient>
<linearGradient id="paint43_linear_4328_3200" x1="57.826" y1="49.618" x2="53.9519" y2="20.8906" gradientUnits="userSpaceOnUse">
<stop stop-color="#001BC1"/>
<stop offset="1" stop-color="#12B3FD"/>
</linearGradient>
<linearGradient id="paint44_linear_4328_3200" x1="52.5945" y1="48.8048" x2="26.6989" y2="45.7738" gradientUnits="userSpaceOnUse">
<stop stop-color="white"/>
<stop offset="1" stop-color="white" stop-opacity="0"/>
</linearGradient>
<linearGradient id="paint45_linear_4328_3200" x1="36.0771" y1="16.4447" x2="48.5042" y2="49.6365" gradientUnits="userSpaceOnUse">
<stop stop-color="#1B217C"/>
<stop offset="1" stop-color="#1B217C" stop-opacity="0"/>
</linearGradient>
<linearGradient id="paint46_linear_4328_3200" x1="63.7983" y1="62.1732" x2="57.1" y2="19.9882" gradientUnits="userSpaceOnUse">
<stop stop-color="#001BC1"/>
<stop offset="1" stop-color="#49C5FD"/>
</linearGradient>
<linearGradient id="paint47_linear_4328_3200" x1="51.4417" y1="48.8048" x2="25.5461" y2="45.7738" gradientUnits="userSpaceOnUse">
<stop stop-color="white"/>
<stop offset="1" stop-color="white" stop-opacity="0"/>
</linearGradient>
<linearGradient id="paint48_linear_4328_3200" x1="43.4594" y1="40.6968" x2="43.2173" y2="38.2238" gradientUnits="userSpaceOnUse">
<stop stop-color="#001BC1"/>
<stop offset="1" stop-color="#12B3FD"/>
</linearGradient>
<linearGradient id="paint49_linear_4328_3200" x1="42.8443" y1="40.6274" x2="39.8361" y2="40.1424" gradientUnits="userSpaceOnUse">
<stop stop-color="white"/>
<stop offset="1" stop-color="white" stop-opacity="0"/>
</linearGradient>
<linearGradient id="paint50_linear_4328_3200" x1="29.846" y1="19.0368" x2="49.0203" y2="43.4322" gradientUnits="userSpaceOnUse">
<stop stop-color="#1B217C"/>
<stop offset="1" stop-color="#1B217C" stop-opacity="0"/>
</linearGradient>
<linearGradient id="paint51_linear_4328_3200" x1="39.1551" y1="33.3807" x2="58.5424" y2="27.4687" gradientUnits="userSpaceOnUse">
<stop stop-color="#D1EBFF"/>
<stop offset="1" stop-color="#EBF6FF"/>
</linearGradient>
<linearGradient id="paint52_linear_4328_3200" x1="36.0772" y1="46.5129" x2="54.3021" y2="16.9356" gradientUnits="userSpaceOnUse">
<stop stop-color="#1B217C"/>
<stop offset="1" stop-color="#1B217C" stop-opacity="0"/>
</linearGradient>
</defs>
</svg>
