<svg width="115" height="40" viewBox="0 0 115 40" fill="none" xmlns="http://www.w3.org/2000/svg">
<rect x="0.00390625" width="114.001" height="40" rx="8" fill="#E8E8E8"/>
<path fillRule="evenodd" clipRule="evenodd" d="M8.00588 18.5416C8.00588 15.7626 10.1809 13.5 12.7686 13.5C14.1992 13.5 15.2171 14.1033 15.9852 14.889L15.0808 15.8602C14.5319 15.3067 13.7875 14.8773 12.7676 14.8773C10.8779 14.8773 9.40093 16.5112 9.40093 18.5405C9.40093 20.5699 10.8779 22.2059 12.7666 22.2059C13.9919 22.2059 14.6889 21.6779 15.1361 21.1965C15.5024 20.8032 15.7423 20.238 15.8351 19.463H12.7686V18.0889H17.0851C17.1305 18.3348 17.1542 18.6296 17.1542 18.9487C17.1542 19.9804 16.8906 21.2601 16.0425 22.1709C15.2171 23.0933 14.1646 23.5853 12.7676 23.5853C10.1789 23.5853 8.00391 21.3248 8.00391 18.5437L8.00588 18.5416ZM20.6433 17.0911C18.9718 17.0911 17.6073 18.4568 17.6073 20.3366C17.6073 22.207 18.9708 23.5821 20.6433 23.5821C22.3157 23.5821 23.6772 22.2048 23.6772 20.3356C23.6772 18.4557 22.3148 17.0901 20.6433 17.0911ZM20.6433 22.3056C19.728 22.3056 18.9372 21.4945 18.9372 20.3377C18.9372 19.1693 19.7271 18.3698 20.6433 18.3698C21.5585 18.3698 22.3483 19.1682 22.3483 20.3377C22.3483 21.4934 21.5595 22.3056 20.6433 22.3056ZM27.2631 17.0911C25.5916 17.0911 24.2291 18.4568 24.2291 20.3366C24.2291 22.207 25.5916 23.5821 27.2631 23.5821C28.9346 23.5821 30.297 22.2048 30.297 20.3356C30.297 18.4557 28.9356 17.0901 27.2631 17.0911ZM27.2631 22.3056C26.3479 22.3056 25.557 21.4945 25.557 20.3377C25.557 19.1693 26.3469 18.3698 27.2631 18.3698C28.1783 18.3698 28.9691 19.1682 28.9691 20.3377C28.9691 21.4934 28.1783 22.3056 27.2631 22.3056ZM35.3875 17.2884V17.8164H35.3421C35.045 17.4336 34.4723 17.0901 33.7516 17.0901C32.2401 17.0901 30.8529 18.5172 30.8529 20.3504C30.8529 22.1688 32.2391 23.5843 33.7516 23.5843C34.4723 23.5843 35.045 23.2407 35.3421 22.8474H35.3875V23.3139C35.3875 24.5555 34.7695 25.2202 33.7733 25.2202C32.9598 25.2202 32.4563 24.5926 32.2499 24.0656L31.0928 24.582C31.4245 25.4418 32.3072 26.5 33.7723 26.5C35.3283 26.5 36.6454 25.515 36.6454 23.1177V17.2873L35.3875 17.2884ZM33.8651 22.3056C32.9499 22.3056 32.1808 21.4807 32.1808 20.3504C32.1808 19.2074 32.9489 18.3709 33.8651 18.3709C34.7695 18.3709 35.4794 19.2064 35.4794 20.3504C35.4804 21.4807 34.7705 22.3056 33.8651 22.3056ZM37.5626 13.8446H38.8915V23.387H37.5626V13.8446ZM42.5336 22.3056C41.8583 22.3056 41.3765 21.9726 41.0694 21.3227L45.1114 19.5255L44.9722 19.1566C44.7214 18.4324 43.9533 17.0911 42.3845 17.0911C40.8276 17.0911 39.5332 18.4069 39.5332 20.3377C39.5332 22.1561 40.8157 23.5832 42.5336 23.5832C43.9198 23.5832 44.7214 22.6745 45.0532 22.1444L44.0224 21.4075C43.6779 21.9493 43.2079 22.3066 42.5336 22.3056ZM42.4299 18.3454C42.9562 18.3454 43.4024 18.6285 43.5515 19.0336L40.8483 20.2391C40.8147 18.9848 41.7536 18.3454 42.4299 18.3454ZM50.9424 13.8446H47.7653V23.387H49.0912V19.7726H50.9434C52.4135 19.7726 53.8589 18.6296 53.8589 16.808C53.8589 14.9897 52.4145 13.8456 50.9454 13.8456L50.9424 13.8446ZM50.977 18.444H49.0912V15.172H50.977C51.9682 15.172 52.5329 16.0553 52.5329 16.808C52.5329 17.5481 51.9682 18.444 50.977 18.444ZM55.9154 23.387V13.8446H54.5895V23.387H55.9154ZM61.8718 23.3701V19.7121C61.8718 18.0178 60.6929 17.0731 59.1715 17.0731C58.2128 17.0731 57.2186 17.528 56.8069 18.5342L57.9838 19.0611C58.2356 18.5342 58.7035 18.3613 59.1962 18.3613C59.8814 18.3613 60.5784 18.8035 60.5893 19.5902V19.6888C60.3494 19.5414 59.836 19.3198 59.2061 19.3198C57.9374 19.3198 56.646 20.0684 56.646 21.4679C56.646 22.7456 57.6866 23.5673 58.8526 23.5673C59.7451 23.5673 60.2358 23.1379 60.5438 22.6353H60.5893V23.3722H61.8708L61.8718 23.3701ZM59.0135 22.3034C58.5791 22.3034 57.9729 22.0702 57.9729 21.4945C57.9729 20.7576 58.7282 20.4734 59.3798 20.4734C59.9633 20.4734 60.2368 20.6081 60.5922 20.7926C60.4905 21.6493 59.8162 22.2928 59.0135 22.3034ZM66.5348 17.282L65.0143 21.4181H64.9689L63.3912 17.282H61.9626L64.3282 23.0647L62.9785 26.2805H64.3617L68.0078 17.282H66.5348Z" fill="#808285"/>
<line x1="76.5078" y1="8" x2="76.5078" y2="32" stroke="#B3B3B3"/>
<path fillRule="evenodd" clipRule="evenodd" d="M84.4418 8.62778C84.1662 8.91126 84.0078 9.34759 84.0078 9.91456V30.0816C84.0078 30.6485 84.1662 31.0849 84.4521 31.3585L84.5267 31.4189L96.3319 20.1189V19.8649L84.5164 8.56738L84.4418 8.62778Z" fill="url(#paint0_linear_1354_13823)"/>
<path fillRule="evenodd" clipRule="evenodd" d="M100.26 23.9002L96.3223 20.1298V19.8661L100.261 16.0957L100.346 16.1462L105.005 18.6804C106.339 19.4002 106.339 20.5859 105.005 21.3156L100.346 23.8497C100.345 23.8497 100.26 23.9002 100.26 23.9002Z" fill="url(#paint1_linear_1354_13823)"/>
<path fillRule="evenodd" clipRule="evenodd" d="M100.344 23.8498L96.3213 19.998L84.4414 31.3696C84.8753 31.8157 85.6054 31.8663 86.4218 31.43L100.344 23.8498Z" fill="url(#paint2_linear_1354_13823)"/>
<path fillRule="evenodd" clipRule="evenodd" d="M100.344 16.1468L86.4218 8.57648C85.6067 8.13029 84.8753 8.19069 84.4414 8.63687L96.32 19.9973L100.344 16.1468Z" fill="url(#paint3_linear_1354_13823)"/>
<path opacity="0.2" fillRule="evenodd" clipRule="evenodd" d="M100.258 23.7686L86.4316 31.2883C85.659 31.7136 84.9701 31.684 84.5259 31.2982L84.4512 31.3697L84.5259 31.4301C84.9701 31.8146 85.659 31.8455 86.4316 31.4202L100.354 23.8499L100.258 23.7686Z" fill="black"/>
<path opacity="0.12" fillRule="evenodd" clipRule="evenodd" d="M105.004 21.1838L100.25 23.7684L100.335 23.8498L104.994 21.3156C105.661 20.9508 105.989 20.475 105.989 19.998C105.947 20.4344 105.608 20.8497 105.004 21.1838Z" fill="black"/>
<path opacity="0.25" fillRule="evenodd" clipRule="evenodd" d="M86.4222 8.70873L105.003 18.8132C105.607 19.1373 105.946 19.5626 105.998 19.9989C105.998 19.5231 105.67 19.0461 105.003 18.6813L86.4222 8.57685C85.0882 7.84718 84.0078 8.45482 84.0078 9.91416V10.046C84.0078 8.58671 85.0882 7.98892 86.4222 8.70873Z" fill="white"/>
<defs>
<linearGradient id="paint0_linear_1354_13823" x1="95.2719" y1="9.69779" x2="76.4759" y2="14.9299" gradientUnits="userSpaceOnUse">
<stop stop-color="#00A0FF"/>
<stop offset="0.007" stop-color="#00A1FF"/>
<stop offset="0.26" stop-color="#00BEFF"/>
<stop offset="0.512" stop-color="#00D2FF"/>
<stop offset="0.76" stop-color="#00DFFF"/>
<stop offset="1" stop-color="#00E3FF"/>
</linearGradient>
<linearGradient id="paint1_linear_1354_13823" x1="106.741" y1="19.9985" x2="83.6843" y2="19.9985" gradientUnits="userSpaceOnUse">
<stop stop-color="#FFE000"/>
<stop offset="0.409" stop-color="#FFBD00"/>
<stop offset="0.775" stop-color="#FFA500"/>
<stop offset="1" stop-color="#FF9C00"/>
</linearGradient>
<linearGradient id="paint2_linear_1354_13823" x1="98.1565" y1="22.0934" x2="83.9363" y2="47.0969" gradientUnits="userSpaceOnUse">
<stop stop-color="#FF3A44"/>
<stop offset="1" stop-color="#C31162"/>
</linearGradient>
<linearGradient id="paint3_linear_1354_13823" x1="81.451" y1="1.91848" x2="87.7948" y2="13.085" gradientUnits="userSpaceOnUse">
<stop stop-color="#32A071"/>
<stop offset="0.069" stop-color="#2DA771"/>
<stop offset="0.476" stop-color="#15CF74"/>
<stop offset="0.801" stop-color="#06E775"/>
<stop offset="1" stop-color="#00F076"/>
</linearGradient>
</defs>
</svg>
