<svg width="115" height="41" viewBox="0 0 115 41" fill="none" xmlns="http://www.w3.org/2000/svg">
<rect width="114.005" height="40.002" rx="8" fill="#E8E8E8"/>
<path d="M17.423 20.3238C17.8487 20.3238 18.2212 20.1736 18.5227 19.8644C18.6114 19.7761 18.6824 19.6701 18.7533 19.5818C18.8154 19.6878 18.8952 19.7761 18.975 19.8644C19.2766 20.1648 19.6313 20.3238 20.057 20.3238C20.4828 20.3238 20.8552 20.1736 21.1391 19.8644C21.4406 19.5641 21.5736 19.202 21.5736 18.7692C21.5736 18.3452 21.4229 17.9742 21.1391 17.6916C20.8552 17.4089 20.4828 17.2588 20.057 17.2588C19.6313 17.2588 19.2588 17.4089 18.975 17.6916C18.8864 17.7799 18.8154 17.8771 18.7533 17.9742C18.6912 17.8682 18.6114 17.7799 18.5227 17.6916C18.2212 17.3913 17.8576 17.2588 17.423 17.2588C17.0062 17.2588 16.6425 17.4089 16.341 17.7093C16.0394 18.0096 15.8887 18.3629 15.8887 18.7869C15.8887 19.2108 16.0394 19.5818 16.3232 19.8821C16.6337 20.1736 16.9884 20.3238 17.423 20.3238Z" fill="#0091EA"/>
<path d="M48.6417 17.7175C48.2692 17.7175 47.9766 17.8412 47.7371 18.1062C47.4977 18.3711 47.3824 18.6803 47.3824 19.0513C47.3824 19.3162 47.4533 19.7049 47.5775 20.2084C47.7016 20.7118 47.7726 21.1093 47.7726 21.3654C47.7726 22.2929 47.1074 22.7522 45.7771 22.7522H45.307H44.5532H44.2339C43.0455 22.7522 41.9191 22.231 40.846 21.1976C39.5866 19.9522 38.7441 19.1219 38.3095 18.6803C36.7663 17.1876 35.436 15.9951 34.3185 15.0942C34.1322 14.944 34.0436 14.7762 34.0436 14.5996C34.0436 14.4141 34.1588 14.2816 34.3806 14.1844C36.5978 13.3188 38.9835 12.5945 41.52 12.0204C42.3005 11.8437 42.6996 11.4198 42.6996 10.775C42.6996 9.90937 42.1941 9.47656 41.1741 9.47656C40.9968 9.47656 40.7928 9.50306 40.5622 9.55606C36.8461 10.4217 34.1322 11.3844 32.4028 12.4444C31.6312 12.9125 31.2499 13.6898 31.2499 14.7497C31.2499 15.2708 31.3297 15.6772 31.5071 15.9951C31.8086 16.5251 32.8019 17.5232 34.487 18.9629C35.9858 20.2525 36.7397 21.127 36.7397 21.5863C36.7397 22.2046 36.1011 22.5755 34.824 22.6992C34.5491 22.7257 33.5114 22.7345 31.711 22.7345H31.3297H30.904C29.7067 22.7345 29.0149 22.2487 28.8286 21.2771C28.7222 20.7383 28.6513 20.3938 28.6335 20.2702C28.4739 19.8815 28.1635 19.6872 27.7112 19.6872C27.2943 19.6872 26.975 19.9522 26.7445 20.4822C26.3631 21.3301 26.1325 21.8247 26.0172 21.9661C25.219 22.9642 23.1171 23.4588 19.7292 23.4588H18.0796C15.7736 23.4588 14.195 23.1938 13.3347 22.655C12.7582 22.284 12.4656 21.7364 12.4656 20.9856C12.4656 20.7648 12.5099 20.438 12.6075 20.0052C12.6961 19.5724 12.7494 19.2456 12.7494 19.0248C12.7494 18.3711 12.4301 18.0443 11.7649 18.0443C11.153 18.0443 10.6652 18.5743 10.3459 19.6342C10.1153 20.385 10 21.1535 10 21.9572C10 25.0487 12.6429 26.5856 17.9377 26.5856C23.0284 26.5856 26.1768 25.7906 27.3741 24.2096C27.8974 25.3048 28.9085 25.8525 30.4162 25.8525H30.5669H31.3385H31.3651C33.6622 25.8525 35.2763 25.7112 36.2253 25.4285C37.6709 24.9957 38.5578 24.0859 38.886 22.7168C40.3759 24.8102 42.2295 25.8525 44.4379 25.8525H44.5798H45.3425H45.6441C47.134 25.8525 48.2959 25.4197 49.1384 24.5541C49.9809 23.6885 50.3978 22.5049 50.3978 21.0121C50.3623 18.8128 49.7858 17.7175 48.6417 17.7175Z" fill="#0091EA"/>
<path d="M46.4497 27.5225C46.0328 27.5225 45.6692 27.6726 45.3676 27.9729C45.1725 28.1673 45.0484 28.3969 44.9774 28.6354C44.9065 28.3792 44.7823 28.1673 44.5872 27.9729C44.2856 27.6726 43.9309 27.5225 43.5052 27.5225C43.0795 27.5225 42.707 27.6726 42.4054 27.9553C42.1039 28.2467 41.9531 28.6089 41.9531 29.0329C41.9531 29.4568 42.1039 29.8278 42.4054 30.1281C42.707 30.4284 43.0706 30.5874 43.5052 30.5874C43.9398 30.5874 44.3034 30.4373 44.5872 30.1281C44.7823 29.9338 44.8976 29.7041 44.9685 29.448C45.0395 29.7041 45.1548 29.9338 45.3499 30.1281C45.6514 30.4284 46.0062 30.5874 46.4319 30.5874C46.8576 30.5874 47.2301 30.4373 47.5317 30.1281C47.8332 29.8278 47.984 29.4657 47.984 29.0329C47.984 28.6001 47.8332 28.2379 47.5317 27.9553C47.2212 27.6726 46.8754 27.5225 46.4497 27.5225Z" fill="#0091EA"/>
<path d="M65.309 19.8642C64.7591 18.9986 63.9698 18.5658 62.941 18.5658C62.0896 18.5658 61.247 19.0251 60.4045 19.9348C60.2271 20.1292 59.8014 20.7033 59.1362 21.6572C58.8347 22.09 58.5331 22.3903 58.2582 22.5405C57.9833 22.6907 57.593 22.7702 57.0698 22.7702H56.7239C55.3137 22.7702 54.6219 21.9045 54.6219 20.1998V11.2081C54.6219 10.0157 54.1608 9.41504 53.2473 9.41504C52.7861 9.41504 52.4313 9.60936 52.183 9.98917C51.9613 10.3248 51.8726 10.7223 51.8815 11.2081L52.1919 19.6964C52.2717 21.8074 52.4934 23.2471 52.8482 24.0156C53.4335 25.2698 54.6219 25.8881 56.4135 25.8881H56.5554H57.3181H57.3979C58.3912 25.8881 59.216 25.5436 59.8989 24.8635C60.6705 25.7821 61.6638 26.2414 62.8966 26.2414C63.8545 26.2414 64.6261 25.8616 65.2025 25.0932C65.7347 24.4042 66.0007 23.5739 66.0007 22.5847C66.0273 21.4982 65.779 20.5885 65.309 19.8642ZM62.8345 23.6534C62.533 23.6534 62.2226 23.5651 61.8678 23.3884C61.451 23.1676 61.2559 22.938 61.2559 22.673C61.2559 22.3285 61.4332 21.9929 61.7791 21.6837C62.125 21.3746 62.4709 21.2156 62.8168 21.2156C63.1627 21.2156 63.4376 21.3746 63.6505 21.7014C63.8279 21.9752 63.9165 22.302 63.9165 22.6818C63.9077 23.3354 63.5529 23.6534 62.8345 23.6534Z" fill="#0091EA"/>
<line x1="74.502" y1="8.00098" x2="74.502" y2="32.001" stroke="#B3B3B3"/>
<path d="M94.0029 32.002C100.631 32.002 106.004 26.6289 106.004 20.001C106.004 13.373 100.631 8 94.0029 8C87.375 8 82.002 13.373 82.002 20.001C82.002 26.6289 87.375 32.002 94.0029 32.002Z" fill="#0091EA"/>
<path d="M101.367 18.5797C101.265 16.3076 99.3989 14.5039 97.1033 14.5039C95.8306 14.5039 94.6828 15.0661 93.902 15.9484C93.1212 15.0661 91.9734 14.5039 90.7007 14.5039C88.452 14.5039 86.6093 16.2373 86.4453 18.4548C86.4375 18.5016 86.4375 18.5641 86.4375 18.6187V23.4363C86.4375 24.0297 86.9138 24.506 87.5072 24.506H87.5306C88.124 24.506 88.6003 24.0297 88.6003 23.4363V18.7749H88.6081C88.6081 17.6037 89.5607 16.6511 90.7319 16.6511C91.9031 16.6511 92.8557 17.6037 92.8557 18.7749H92.8635V22.7102C92.8635 23.3036 93.3398 23.7799 93.9332 23.7799H93.9567C94.5501 23.7799 95.0264 23.3036 95.0264 22.7102V18.7671C95.0342 17.5959 95.9789 16.6589 97.1502 16.6589C98.3214 16.6589 99.2739 17.6115 99.2739 18.7827H99.2817V23.4519C99.2817 24.0375 99.758 24.506 100.336 24.506H100.359C100.945 24.506 101.413 24.0297 101.413 23.4519V18.689C101.366 18.6344 101.367 18.6109 101.367 18.5797Z" fill="white"/>
<path d="M97.3302 24.9194C97.2834 24.8413 97.1272 24.9975 97.1272 24.9975C96.5338 25.6378 95.3079 26.0516 94.0352 26.0516C92.7625 26.0516 91.5445 25.6378 90.9432 24.9975C90.9432 24.9975 90.7871 24.8335 90.7402 24.9194C90.6778 25.0131 90.7714 25.1615 90.7714 25.1615C91.5288 26.2546 92.6844 26.7465 94.0352 26.7465C95.386 26.7465 96.5416 26.2546 97.299 25.1615C97.3068 25.1615 97.3927 25.0131 97.3302 24.9194Z" fill="white"/>
</svg>
