<svg width="40" height="40" viewBox="0 0 40 40" fill="none" xmlns="http://www.w3.org/2000/svg">
<rect width="40" height="40" rx="8" fill="#EBF9FF"/>
<path d="M9 12C9 10.3431 10.3431 9 12 9H28C29.6569 9 31 10.3431 31 12V16C31 17.6569 29.6569 19 28 19H12C10.3431 19 9 17.6569 9 16V12Z" fill="#23B4FF"/>
<path d="M26.5 24C25.1193 24 24 25.1193 24 26.5C24 27.8807 25.1193 29 26.5 29C27.8807 29 29 27.8807 29 26.5C29 25.1193 27.8807 24 26.5 24Z" fill="#23B4FF"/>
<path fillRule="evenodd" clipRule="evenodd" d="M16.2889 22.3414C15.5518 20.8673 13.4482 20.8673 12.7111 22.3414L9.82918 28.1053C9.16428 29.4352 10.1313 30.9998 11.618 30.9998H17.382C18.8687 30.9998 19.8357 29.4352 19.1708 28.1053L16.2889 22.3414ZM11.618 28.9998L14.5 23.2358L17.382 28.9998L11.618 28.9998Z" fill="#040A1F"/>
<path fillRule="evenodd" clipRule="evenodd" d="M26.5 22C24.0147 22 22 24.0147 22 26.5C22 28.9853 24.0147 31 26.5 31C28.9853 31 31 28.9853 31 26.5C31 24.0147 28.9853 22 26.5 22ZM24 26.5C24 25.1193 25.1193 24 26.5 24C27.8807 24 29 25.1193 29 26.5C29 27.8807 27.8807 29 26.5 29C25.1193 29 24 27.8807 24 26.5Z" fill="#040A1F"/>
</svg>
