<svg width="202" height="260" viewBox="0 0 202 260" fill="none" xmlns="http://www.w3.org/2000/svg">
<path d="M13.7299 39.1513C13.0319 39.1513 12.3867 39.0641 11.7943 38.8896C11.2018 38.7191 10.6966 38.4594 10.2786 38.1104C9.86063 37.7655 9.54614 37.3313 9.33513 36.8078C9.16469 36.398 9.07947 35.9333 9.07947 35.4139C9.07947 35.2759 9.08556 35.1339 9.09773 34.9878C9.12208 34.7078 9.15455 34.4217 9.19513 34.1296C9.23976 33.8374 9.2986 33.531 9.37165 33.2104C9.44875 32.8858 9.54614 32.5429 9.66382 32.1817C9.7815 31.8206 9.92759 31.431 10.1021 31.013L11.356 31.5913C11.1896 32.0052 11.0516 32.3887 10.9421 32.7417C10.8325 33.0907 10.7453 33.4154 10.6803 33.7157C10.6195 34.0159 10.5769 34.298 10.5525 34.5617C10.5282 34.8255 10.516 35.0791 10.516 35.3226C10.516 35.6148 10.5525 35.8765 10.6256 36.1078C10.7027 36.3391 10.8001 36.5461 10.9177 36.7287C11.076 36.9438 11.2748 37.1081 11.5143 37.2217C11.7537 37.3394 12.0053 37.4246 12.269 37.4774C12.5369 37.5301 12.7986 37.5606 13.0543 37.5687C13.314 37.5809 13.5392 37.587 13.7299 37.587C13.8435 37.587 14.0079 37.5788 14.223 37.5626C14.4421 37.5464 14.6795 37.518 14.9351 37.4774C15.1948 37.4368 15.4606 37.3841 15.7325 37.3191C16.0044 37.2542 16.2499 37.173 16.469 37.0757C16.6922 36.9783 16.8728 36.8646 17.0108 36.7348C17.1528 36.6049 17.2238 36.4528 17.2238 36.2783C17.2238 36.2499 17.1873 36.2052 17.1143 36.1443C17.0453 36.0875 16.9479 36.0226 16.8221 35.9496C16.7003 35.8765 16.5563 35.7994 16.3899 35.7183C16.2235 35.6412 16.045 35.5661 15.8543 35.493C15.5743 35.3997 15.2963 35.3307 15.0203 35.2861C14.7444 35.2414 14.4705 35.1948 14.1986 35.1461L14.4056 33.6243H19.2386V35.1826H18.1003C18.2627 35.3814 18.3702 35.5762 18.423 35.767C18.4798 35.9617 18.5102 36.1322 18.5143 36.2783C18.498 36.6354 18.4067 36.9539 18.2403 37.2339C18.074 37.518 17.8589 37.7655 17.5951 37.9765C17.3354 38.1916 17.0392 38.3722 16.7064 38.5183C16.3737 38.6684 16.0328 38.7901 15.6838 38.8835C15.3348 38.9768 14.9899 39.0438 14.649 39.0843C14.3122 39.129 14.0059 39.1513 13.7299 39.1513ZM23.9622 33.6243C24.2706 33.6649 24.6054 33.6893 24.9665 33.6974C25.0761 33.7014 25.1857 33.7035 25.2952 33.7035C25.5468 33.7035 25.8288 33.6913 26.1413 33.667C26.4578 33.6426 26.7886 33.5939 27.1335 33.5209C27.4825 33.4478 27.797 33.3484 28.077 33.2226C28.357 33.0928 28.5883 32.9345 28.7709 32.7478C28.9575 32.5571 29.0712 32.3319 29.1117 32.0722C29.0793 31.8855 29.0001 31.7212 28.8744 31.5791C28.7486 31.433 28.5964 31.3154 28.4178 31.2261C28.2433 31.1328 28.0567 31.0678 27.8578 31.0313C27.7523 31.0151 27.6488 31.007 27.5474 31.007C27.4622 31.007 27.377 31.013 27.2917 31.0252C26.9022 31.0942 26.543 31.2078 26.2144 31.3661C25.8897 31.5243 25.5894 31.7171 25.3135 31.9443C25.0416 32.1716 24.7941 32.4293 24.5709 32.7174C24.3477 33.0014 24.1448 33.3038 23.9622 33.6243ZM19.0013 33.6243H19.1717C19.468 33.6243 19.7155 33.5817 19.9144 33.4965C20.1132 33.4072 20.2796 33.2875 20.4135 33.1374C20.5474 32.9872 20.6549 32.8128 20.7361 32.6139C20.8213 32.4151 20.8944 32.2061 20.9552 31.987C21.0161 31.7678 21.0729 31.5446 21.1257 31.3174C21.1825 31.0861 21.2515 30.8629 21.3326 30.6478L22.7448 31.1165C22.7001 31.2139 22.6616 31.3052 22.6291 31.3904C22.5967 31.4716 22.5703 31.5548 22.55 31.64C22.5297 31.7252 22.5135 31.8145 22.5013 31.9078C22.4932 32.0012 22.4891 32.1046 22.4891 32.2183C22.4891 32.2913 22.4952 32.3684 22.5074 32.4496C22.5196 32.5267 22.5358 32.6038 22.5561 32.6809C22.5804 32.7539 22.6088 32.8249 22.6413 32.8939C22.6738 32.9588 22.7103 33.0157 22.7509 33.0643C22.8239 32.9264 22.9112 32.7722 23.0126 32.6017C23.1141 32.4272 23.2317 32.2446 23.3657 32.0539C23.4996 31.8632 23.6477 31.6684 23.81 31.4696C23.9764 31.2667 24.157 31.0699 24.3517 30.8791C24.583 30.6722 24.8245 30.4835 25.0761 30.313C25.3317 30.1386 25.5935 29.9884 25.8613 29.8626C26.1332 29.7368 26.4132 29.6394 26.7013 29.5704C26.9894 29.5014 27.2816 29.467 27.5778 29.467C27.9552 29.467 28.3184 29.5359 28.6674 29.6739C29.0164 29.8119 29.3207 30.0026 29.5804 30.2461C29.8442 30.4896 30.0512 30.7736 30.2013 31.0983C30.3312 31.3945 30.3961 31.711 30.3961 32.0478C30.3961 32.0843 30.3961 32.1209 30.3961 32.1574C30.3555 32.7133 30.181 33.2023 29.8726 33.6243H31.0109V35.1826H29.3552C28.921 35.1826 28.568 35.1704 28.2961 35.1461C28.0283 35.1258 27.8051 35.0812 27.6265 35.0122C27.1964 35.1258 26.7662 35.2009 26.3361 35.2374C25.91 35.278 25.5062 35.2983 25.1248 35.2983C24.5688 35.2983 24.1001 35.2759 23.7187 35.2313C23.3372 35.1867 23.0146 35.1197 22.7509 35.0304C22.4912 34.9412 22.2741 34.8296 22.0996 34.6957C21.9251 34.5617 21.7668 34.4055 21.6248 34.227C21.3083 34.5719 20.9512 34.8174 20.5535 34.9635C20.1599 35.1096 19.7094 35.1826 19.2022 35.1826H19.0013V33.6243ZM30.7728 33.6243H32.0084C32.5076 33.6243 33.0108 33.5757 33.518 33.4783C34.0253 33.3768 34.5244 33.247 35.0154 33.0887C35.5064 32.9264 35.9832 32.7458 36.4458 32.547C36.9084 32.3441 37.3447 32.1412 37.7545 31.9383C37.5882 31.918 37.4137 31.8774 37.2311 31.8165C37.0525 31.7516 36.8679 31.6786 36.6771 31.5974C36.4864 31.5122 36.2916 31.4229 36.0928 31.3296C35.894 31.2362 35.6951 31.153 35.4963 31.08C35.2974 31.0029 35.0966 30.94 34.8937 30.8913C34.6948 30.8386 34.5 30.8122 34.3093 30.8122C34.1592 30.8122 34.0151 30.8406 33.8771 30.8974C33.7432 30.9501 33.6154 31.0191 33.4937 31.1043C33.376 31.1855 33.2684 31.2748 33.1711 31.3722C33.0777 31.4696 32.9966 31.5609 32.9276 31.6461C32.8626 31.7272 32.8119 31.7962 32.7754 31.853L32.7145 31.9383L31.4971 31.2748C31.6392 31.007 31.8177 30.7513 32.0328 30.5078C32.2519 30.2603 32.4893 30.0432 32.745 29.8565C33.0006 29.6658 33.2624 29.5157 33.5302 29.4061C33.8021 29.2925 34.0618 29.2357 34.3093 29.2357C34.5163 29.2357 34.7232 29.26 34.9302 29.3087C35.1412 29.3533 35.3522 29.4142 35.5632 29.4913C35.7783 29.5684 35.9934 29.6557 36.2084 29.753C36.4276 29.8504 36.6508 29.9499 36.878 30.0513C37.1134 30.1649 37.3711 30.2786 37.6511 30.3922C37.9311 30.5017 38.2192 30.6012 38.5154 30.6904C38.8116 30.7757 39.1079 30.8467 39.4041 30.9035C39.7044 30.9562 39.9905 30.9826 40.2624 30.9826L40.0006 32.4678C39.8464 32.5328 39.6983 32.6038 39.5563 32.6809C39.4142 32.7539 39.2682 32.8249 39.118 32.8939C39.1992 33.0643 39.3209 33.1983 39.4832 33.2957C39.6455 33.393 39.816 33.4661 39.9945 33.5148C40.1771 33.5635 40.3516 33.5939 40.518 33.6061C40.6884 33.6183 40.8224 33.6243 40.9197 33.6243H41.1632V35.1826H40.9197C40.1244 35.1826 39.4508 35.0446 38.8989 34.7687C38.347 34.4928 37.9493 34.1012 37.7058 33.5939C37.296 33.7968 36.8719 33.9936 36.4337 34.1843C35.9954 34.3751 35.5409 34.5455 35.0702 34.6957C34.5995 34.8417 34.1084 34.9594 33.5971 35.0487C33.0899 35.138 32.5603 35.1826 32.0084 35.1826H30.7728V33.6243ZM35.3928 27.2757L34.2241 28.4443L33.0615 27.2757L34.2241 26.113L35.3928 27.2757ZM41.1608 33.6243C41.384 33.6243 41.5828 33.5757 41.7573 33.4783C41.9359 33.3809 42.0921 33.251 42.226 33.0887C42.364 32.9264 42.4837 32.7417 42.5851 32.5348C42.6907 32.3278 42.782 32.1148 42.8591 31.8957C42.9362 31.6765 43.0031 31.4614 43.0599 31.2504C43.1167 31.0354 43.1675 30.8426 43.2121 30.6722L44.7338 31.007C44.6973 31.1206 44.6486 31.2667 44.5878 31.4452C44.5269 31.6197 44.468 31.8064 44.4112 32.0052C44.3585 32.2 44.3138 32.3968 44.2773 32.5957C44.2489 32.7458 44.2347 32.8858 44.2347 33.0157C44.2347 33.0562 44.2388 33.1272 44.2469 33.2287C44.255 33.3301 44.2956 33.4316 44.3686 33.533C44.4457 33.6304 44.5695 33.6791 44.7399 33.6791C44.9225 33.6791 45.0869 33.6284 45.233 33.527C45.3791 33.4214 45.5089 33.2855 45.6225 33.1191C45.7402 32.9487 45.8417 32.7559 45.9269 32.5409C46.0162 32.3258 46.0912 32.1067 46.1521 31.8835C46.217 31.6562 46.2698 31.4351 46.3104 31.22C46.355 31.0049 46.3895 30.8122 46.4138 30.6417L47.8382 30.9157C47.826 31.013 47.8078 31.1287 47.7834 31.2626C47.7631 31.3965 47.7408 31.5426 47.7165 31.7009C47.6921 31.8551 47.6678 32.0174 47.6434 32.1878C47.6231 32.3583 47.6069 32.5287 47.5947 32.6991C47.5947 32.7316 47.5947 32.7641 47.5947 32.7965C47.5947 32.8939 47.6049 32.9954 47.6251 33.1009C47.6454 33.2023 47.688 33.2997 47.753 33.393C47.8179 33.4823 47.9031 33.5554 48.0086 33.6122C48.1141 33.6649 48.244 33.6933 48.3982 33.6974C48.6863 33.6974 48.9217 33.6243 49.1043 33.4783C49.2869 33.3322 49.3782 33.109 49.3782 32.8087C49.3782 32.5896 49.3478 32.3522 49.2869 32.0965C49.2301 31.8409 49.1591 31.5913 49.0738 31.3478C48.9927 31.1043 48.9054 30.8751 48.8121 30.66C48.7188 30.4449 48.6376 30.2664 48.5686 30.1243L49.8773 29.3939C49.9017 29.4386 49.9402 29.5197 49.993 29.6374C50.0498 29.7551 50.1127 29.9012 50.1817 30.0757C50.2547 30.2461 50.3278 30.4388 50.4008 30.6539C50.4738 30.869 50.5408 31.0962 50.6017 31.3357C50.6666 31.571 50.7173 31.8125 50.7538 32.06C50.7944 32.3075 50.8147 32.551 50.8147 32.7904C50.8147 33.1678 50.7559 33.5087 50.6382 33.813C50.5246 34.1174 50.3541 34.3771 50.1269 34.5922C49.9037 34.8072 49.6278 34.9716 49.2991 35.0852C48.9825 35.1988 48.6194 35.2557 48.2095 35.2557C48.1973 35.2557 48.1831 35.2557 48.1669 35.2557C48.1507 35.2557 48.1365 35.2557 48.1243 35.2557C47.9336 35.2557 47.7591 35.2293 47.6008 35.1765C47.4425 35.1278 47.2965 35.0588 47.1625 34.9696C47.0327 34.8762 46.915 34.7707 46.8095 34.653C46.708 34.5354 46.6167 34.4157 46.5356 34.2939C46.4423 34.4278 46.3408 34.5536 46.2312 34.6713C46.1217 34.7849 45.9938 34.8843 45.8478 34.9696C45.7057 35.0548 45.5434 35.1217 45.3608 35.1704C45.1823 35.2232 44.9753 35.2516 44.7399 35.2557C44.7278 35.2557 44.7136 35.2557 44.6973 35.2557C44.5147 35.2557 44.3443 35.2313 44.186 35.1826C44.0318 35.1339 43.8878 35.067 43.7538 34.9817C43.624 34.8925 43.5043 34.789 43.3947 34.6713C43.2892 34.5536 43.1918 34.4299 43.1025 34.3C43.0254 34.4136 42.9321 34.5232 42.8225 34.6287C42.717 34.7342 42.5851 34.8296 42.4269 34.9148C42.2727 34.9959 42.0901 35.0609 41.8791 35.1096C41.668 35.1583 41.4205 35.1826 41.1365 35.1826H40.9173V33.6243H41.1608ZM46.5173 27.8113L45.4825 28.8461L44.4356 27.8052L45.4704 26.7643L46.5173 27.8113ZM48.8182 27.8174L47.7834 28.8583L46.7365 27.8113L47.7712 26.7765L48.8182 27.8174ZM45.6773 26.0522L46.6269 25.1026L47.5825 26.0583L46.633 27.0078L45.6773 26.0522ZM61.4176 35.1826C60.9794 35.1786 60.535 35.1603 60.0846 35.1278C59.6341 35.0954 59.1999 35.0386 58.782 34.9574C58.364 34.8722 57.9704 34.7586 57.6011 34.6165C57.2318 34.4704 56.9112 34.2817 56.6394 34.0504C56.3675 33.8191 56.1524 33.5391 55.9941 33.2104C55.8359 32.8777 55.7568 32.4861 55.7568 32.0357C55.7568 31.8125 55.7811 31.5994 55.8298 31.3965C55.8785 31.1896 55.9414 30.9887 56.0185 30.7939C56.0956 30.5991 56.1828 30.4104 56.2802 30.2278C56.3776 30.0412 56.475 29.8565 56.5724 29.6739L57.7046 30.6235C57.6356 30.7168 57.5565 30.8446 57.4672 31.007C57.382 31.1693 57.3049 31.3417 57.2359 31.5243C57.171 31.707 57.1263 31.8835 57.102 32.0539C57.0939 32.1107 57.0898 32.1655 57.0898 32.2183C57.0898 32.3197 57.1081 32.409 57.1446 32.4861C57.2339 32.6687 57.4023 32.831 57.6498 32.973C57.9014 33.111 58.2139 33.2287 58.5872 33.3261C58.9646 33.4194 59.3927 33.4904 59.8715 33.5391C60.3544 33.5878 60.8698 33.6122 61.4176 33.6122C61.722 33.6122 62.0649 33.602 62.4463 33.5817C62.8318 33.5614 63.2275 33.5229 63.6333 33.4661C64.0431 33.4093 64.4449 33.3322 64.8385 33.2348C65.2362 33.1333 65.5994 33.0014 65.9281 32.8391C65.8794 32.6038 65.8124 32.3765 65.7272 32.1574C65.646 31.9383 65.5527 31.7232 65.4472 31.5122C65.3417 31.3012 65.2301 31.0942 65.1124 30.8913C64.9947 30.6843 64.875 30.4774 64.7533 30.2704L66.0559 29.4243C66.0681 29.4243 66.1046 29.4852 66.1654 29.607C66.2304 29.7246 66.3075 29.8809 66.3968 30.0757C66.4901 30.2704 66.5875 30.4916 66.6889 30.7391C66.7904 30.9867 66.8837 31.2362 66.9689 31.4878C67.0541 31.7394 67.1252 31.9829 67.182 32.2183C67.2388 32.4496 67.2672 32.6504 67.2672 32.8209C67.2672 33.0603 67.2063 33.2774 67.0846 33.4722C66.9628 33.667 66.7965 33.8435 66.5854 34.0017C66.3744 34.16 66.1289 34.3 65.8489 34.4217C65.5689 34.5394 65.2707 34.6429 64.9541 34.7322C64.6417 34.8174 64.3191 34.8904 63.9863 34.9513C63.6576 35.0122 63.337 35.0588 63.0246 35.0913C62.7121 35.1278 62.4179 35.1522 62.142 35.1643C61.9228 35.1765 61.724 35.1826 61.5454 35.1826C61.5008 35.1826 61.4582 35.1826 61.4176 35.1826ZM61.4115 28.9983L60.3768 30.033L59.3298 28.9922L60.3646 27.9513L61.4115 28.9983ZM63.7124 29.0043L62.6776 30.0452L61.6307 28.9983L62.6654 27.9635L63.7124 29.0043ZM71.5372 35.1826H71.2937C70.4699 35.1826 69.845 34.9757 69.4189 34.5617C68.9928 34.1478 68.7778 33.5229 68.7737 32.687C68.7737 32.5571 68.7778 32.3441 68.7859 32.0478C68.794 31.7475 68.7981 31.3823 68.7981 30.9522C68.7981 30.6965 68.796 30.4226 68.792 30.1304C68.7879 29.8342 68.7818 29.5339 68.7737 29.2296C68.7656 28.9212 68.7534 28.6148 68.7372 28.3104C68.725 28.002 68.7088 27.7058 68.6885 27.4217C68.6682 27.1336 68.6439 26.8658 68.6154 26.6183C68.587 26.3667 68.5546 26.1455 68.5181 25.9548L70.0459 25.4983C70.0905 25.7336 70.1311 26.0217 70.1676 26.3626C70.2041 26.6994 70.2366 27.0606 70.265 27.4461C70.2934 27.8316 70.3137 28.2252 70.3259 28.627C70.3421 29.0246 70.3502 29.4 70.3502 29.753C70.3502 29.9681 70.3523 30.1974 70.3563 30.4409C70.3604 30.6803 70.3624 30.8913 70.3624 31.0739C70.3624 31.2281 70.3604 31.3742 70.3563 31.5122C70.3563 31.6461 70.3543 31.7759 70.3502 31.9017C70.3502 32.0275 70.3482 32.1513 70.3441 32.273C70.3441 32.3948 70.3441 32.5186 70.3441 32.6443C70.3441 32.6768 70.3441 32.7093 70.3441 32.7417C70.3441 32.8878 70.3583 33.0177 70.3868 33.1313C70.4192 33.2449 70.474 33.3403 70.5511 33.4174C70.6282 33.4904 70.7256 33.5432 70.8433 33.5757C70.965 33.6081 71.105 33.6243 71.2633 33.6243H71.5372V35.1826ZM76.7501 31.6096C76.6041 31.4391 76.4336 31.2849 76.2388 31.147C76.0765 31.0293 75.8878 30.9238 75.6728 30.8304C75.4577 30.733 75.2223 30.6843 74.9667 30.6843C74.7597 30.6843 74.5771 30.7168 74.4188 30.7817C74.2606 30.8426 74.1267 30.9278 74.0171 31.0374C73.9075 31.1429 73.8223 31.2667 73.7614 31.4087C73.7006 31.5507 73.6641 31.7029 73.6519 31.8652C73.6478 31.8936 73.6458 31.922 73.6458 31.9504C73.6458 32.1412 73.6965 32.3278 73.798 32.5104C73.8994 32.689 74.0414 32.8493 74.2241 32.9913C74.4067 33.1293 74.6177 33.2348 74.8571 33.3078C75.0519 33.3687 75.2487 33.3991 75.4475 33.3991C75.4922 33.3991 75.5368 33.3971 75.5814 33.393C75.8168 33.3768 76.0522 33.3525 76.2875 33.32C76.527 33.2835 76.7441 33.249 76.9388 33.2165L77.5901 33.0887L77.7788 34.6043C77.5272 34.6693 77.2452 34.7362 76.9328 34.8052C76.6203 34.8742 76.2612 34.9371 75.8554 34.9939C75.4536 35.0467 74.9971 35.0913 74.4858 35.1278C73.9745 35.1643 73.3942 35.1826 72.7449 35.1826H71.2962V33.6243H71.5641L72.7267 33.6183C72.5075 33.3626 72.3574 33.1009 72.2762 32.833C72.1991 32.5612 72.1606 32.2629 72.1606 31.9383C72.1606 31.5568 72.2316 31.1957 72.3736 30.8548C72.5156 30.5139 72.7104 30.2157 72.958 29.96C73.2096 29.7043 73.5058 29.5014 73.8467 29.3513C74.1916 29.2012 74.5649 29.1261 74.9667 29.1261C75.1655 29.1261 75.3562 29.1443 75.5388 29.1809C75.7255 29.2174 75.902 29.2661 76.0684 29.327C76.2348 29.3878 76.391 29.4568 76.5371 29.5339C76.6872 29.611 76.8232 29.6881 76.9449 29.7652C77.087 29.8586 77.2249 29.958 77.3588 30.0635C77.4928 30.169 77.6185 30.2806 77.7362 30.3983L76.7501 31.6096ZM86.987 33.6243V35.1826H86.6218C86.1673 35.1826 85.7919 35.0913 85.4957 34.9087C85.1995 34.722 84.9722 34.4441 84.814 34.0748C84.5177 34.4481 84.1687 34.7464 83.767 34.9696C83.3693 35.1928 82.9453 35.3571 82.4948 35.4626C82.0485 35.5722 81.5919 35.631 81.1253 35.6391C81.0684 35.6391 81.0137 35.6391 80.9609 35.6391C80.547 35.6391 80.1493 35.6128 79.7679 35.56L80.0357 34.0078C80.2467 34.0322 80.4313 34.0525 80.5896 34.0687C80.7519 34.0849 80.9021 34.0951 81.04 34.0991C81.109 34.1032 81.178 34.1052 81.247 34.1052C81.316 34.1052 81.3992 34.1032 81.4966 34.0991C81.594 34.091 81.7198 34.0748 81.874 34.0504C81.8456 33.7014 81.7786 33.3443 81.6731 32.9791C81.5716 32.6139 81.4458 32.2528 81.2957 31.8957C81.1456 31.5386 80.9771 31.1896 80.7905 30.8487C80.6079 30.5078 80.4212 30.1852 80.2305 29.8809C80.0438 29.5765 79.8612 29.2965 79.6827 29.0409C79.5082 28.7852 79.3499 28.5661 79.2079 28.3835C79.0699 28.1968 78.9563 28.0507 78.867 27.9452C78.7818 27.8357 78.7371 27.7788 78.7331 27.7748L79.8774 26.6061C80.3806 27.2716 80.825 27.9452 81.2105 28.627C81.596 29.3046 81.9247 29.9499 82.1966 30.5626C82.4725 31.1754 82.6937 31.7313 82.86 32.2304C83.0305 32.7255 83.1522 33.1232 83.2253 33.4235C83.3673 33.3586 83.5134 33.2591 83.6635 33.1252C83.8137 32.9872 83.9456 32.8229 84.0592 32.6322C84.1728 32.4374 84.258 32.2183 84.3148 31.9748C84.3432 31.849 84.3574 31.7191 84.3574 31.5852C84.3574 31.4635 84.3453 31.3357 84.3209 31.2017L83.3896 25.9061L84.8992 25.5409L85.6844 31.3661C85.725 31.6826 85.7656 31.9788 85.8061 32.2548C85.8508 32.5307 85.9116 32.7701 85.9887 32.973C86.0699 33.1759 86.1774 33.3362 86.3113 33.4539C86.4493 33.5675 86.634 33.6243 86.8653 33.6243H86.987ZM86.7454 33.6243H87.6707L87.7133 33.5452C87.7823 33.4235 87.8797 33.2632 88.0054 33.0643C88.1353 32.8614 88.2976 32.6322 88.4924 32.3765C88.5289 32.1209 88.5594 31.7983 88.5837 31.4087C88.6081 31.0191 88.6223 30.5971 88.6263 30.1426C88.6263 29.8951 88.6202 29.6414 88.6081 29.3817C88.5999 29.118 88.5837 28.8157 88.5594 28.4748C88.535 28.1339 88.5005 27.7362 88.4559 27.2817C88.4153 26.8232 88.3625 26.2774 88.2976 25.6443L89.8985 25.2304C90.004 26.0096 90.0852 26.809 90.142 27.6287C90.1988 28.4484 90.2272 29.26 90.2272 30.0635V30.5565C90.4463 30.3699 90.6736 30.1913 90.9089 30.0209C91.1483 29.8504 91.3959 29.7003 91.6515 29.5704C91.9112 29.4406 92.1811 29.3371 92.4611 29.26C92.7411 29.1829 93.0333 29.1443 93.3376 29.1443C93.646 29.1443 93.9382 29.193 94.2141 29.2904C94.4901 29.3878 94.7336 29.5299 94.9446 29.7165C95.1597 29.8991 95.3362 30.1223 95.4741 30.3861C95.6121 30.6499 95.6973 30.9461 95.7298 31.2748C95.7339 31.3357 95.7359 31.3965 95.7359 31.4574C95.7359 31.847 95.673 32.2183 95.5472 32.5713C95.4254 32.9203 95.2408 33.2388 94.9933 33.527C94.7498 33.8151 94.4576 34.0646 94.1168 34.2757C93.7759 34.4826 93.4086 34.6551 93.015 34.793C92.6214 34.927 92.2095 35.0243 91.7794 35.0852C91.3533 35.1501 90.9292 35.1826 90.5072 35.1826H86.7454V33.6243ZM89.9411 33.6243C90.1886 33.6243 90.4727 33.6183 90.7933 33.6061C91.1179 33.5939 91.4507 33.5655 91.7915 33.5209C92.1324 33.4762 92.4631 33.4093 92.7837 33.32C93.1083 33.2307 93.3965 33.111 93.6481 32.9609C93.8997 32.8107 94.0985 32.622 94.2446 32.3948C94.3704 32.2 94.4333 31.9687 94.4333 31.7009C94.4333 31.6643 94.4312 31.6258 94.4272 31.5852C94.4191 31.4635 94.3785 31.3499 94.3054 31.2443C94.2365 31.1388 94.1391 31.0496 94.0133 30.9765C93.8915 30.8994 93.7454 30.8386 93.575 30.7939C93.4289 30.7614 93.2707 30.7452 93.1002 30.7452C93.0678 30.7452 93.0333 30.7452 92.9968 30.7452C92.7939 30.7533 92.5524 30.8061 92.2724 30.9035C91.9924 30.9968 91.6921 31.1551 91.3715 31.3783C91.051 31.6014 90.7182 31.8957 90.3733 32.2609C90.0283 32.6261 89.6915 33.0806 89.3628 33.6243H89.9411ZM98.8509 25.4983C98.9524 26.2733 99.0234 27.0139 99.064 27.72C99.1046 28.422 99.1289 29.1099 99.137 29.7835C99.1451 30.3557 99.1472 30.8852 99.1431 31.3722C99.1431 31.8591 99.139 32.3136 99.1309 32.7357C99.1228 33.1536 99.1106 33.5452 99.0944 33.9104C99.0782 34.2716 99.0619 34.6104 99.0457 34.927L97.4509 35.1704C97.5361 33.8313 97.5788 32.6484 97.5788 31.6217C97.5788 31.2078 97.5727 30.8203 97.5605 30.4591C97.528 29.6272 97.4915 28.8461 97.4509 28.1157C97.4104 27.3812 97.3556 26.6791 97.2866 26.0096L98.8509 25.4983ZM106.381 33.0765C106.142 33.4336 105.965 33.8232 105.852 34.2452C105.738 34.6672 105.681 35.0872 105.681 35.5052C105.681 35.838 105.758 36.1342 105.912 36.3939C106.067 36.6577 106.263 36.8788 106.503 37.0574C106.742 37.24 107.008 37.378 107.3 37.4713C107.592 37.5687 107.877 37.6174 108.152 37.6174C108.432 37.6174 108.723 37.5687 109.023 37.4713C109.327 37.378 109.605 37.2278 109.857 37.0209C110.108 36.818 110.315 36.5542 110.478 36.2296C110.64 35.909 110.721 35.5194 110.721 35.0609C110.721 34.7403 110.715 34.3629 110.703 33.9287C110.691 33.4945 110.674 33.0339 110.654 32.547C110.638 32.0559 110.618 31.5507 110.593 31.0313C110.569 30.5119 110.545 30.0046 110.52 29.5096C110.492 28.9293 110.465 28.3246 110.441 27.6957C110.417 27.0626 110.386 26.4296 110.35 25.7965L111.939 25.4983C111.967 26.1638 111.989 26.8252 112.005 27.4826C112.022 28.1359 112.04 28.7649 112.06 29.3696L112.158 32.4922C112.178 32.6464 112.214 32.7925 112.267 32.9304C112.324 33.0643 112.397 33.1841 112.486 33.2896C112.58 33.391 112.693 33.4722 112.827 33.533C112.961 33.5939 113.117 33.6243 113.296 33.6243H113.418V35.1826H113.296C113.093 35.1826 112.898 35.1684 112.712 35.14C112.525 35.1157 112.359 35.0629 112.212 34.9817V35.0852C112.212 35.5965 112.152 36.053 112.03 36.4548C111.912 36.8565 111.752 37.2075 111.549 37.5078C111.346 37.8122 111.109 38.0699 110.837 38.2809C110.569 38.4919 110.285 38.6643 109.985 38.7983C109.688 38.9322 109.386 39.0275 109.078 39.0843C108.769 39.1452 108.473 39.1757 108.189 39.1757C107.917 39.1757 107.631 39.1452 107.331 39.0843C107.034 39.0235 106.74 38.9301 106.448 38.8043C106.156 38.6786 105.878 38.5162 105.614 38.3174C105.35 38.1226 105.117 37.8893 104.914 37.6174C104.715 37.3455 104.559 37.033 104.445 36.68C104.332 36.3432 104.275 35.9638 104.275 35.5417C104.275 35.5296 104.275 35.5154 104.275 35.4991C104.275 35.2394 104.289 34.9736 104.318 34.7017C104.35 34.4299 104.399 34.162 104.464 33.8983C104.529 33.6345 104.61 33.3809 104.707 33.1374C104.805 32.8939 104.924 32.6707 105.066 32.4678L106.381 33.0765ZM118.603 33.6243V35.1826H118.481C118.087 35.1826 117.755 35.1197 117.483 34.9939C117.211 34.8681 116.98 34.7058 116.789 34.507C116.655 34.6774 116.456 34.8093 116.192 34.9026C115.933 34.9919 115.642 35.0568 115.322 35.0974C115.001 35.142 114.671 35.1664 114.33 35.1704C113.993 35.1786 113.682 35.1826 113.398 35.1826H113.173V33.6243H113.398C113.873 33.6243 114.273 33.598 114.598 33.5452C114.922 33.4884 115.184 33.4072 115.383 33.3017C115.586 33.1962 115.732 33.0643 115.821 32.9061C115.91 32.7438 115.955 32.5571 115.955 32.3461C115.955 32.2081 115.929 32.0255 115.876 31.7983C115.823 31.567 115.744 31.2707 115.638 30.9096L117.136 30.4896C117.189 30.6681 117.229 30.8264 117.258 30.9643C117.29 31.0983 117.314 31.2342 117.331 31.3722C117.351 31.5061 117.367 31.6522 117.379 31.8104C117.396 31.9646 117.412 32.1493 117.428 32.3643C117.44 32.4942 117.471 32.6342 117.519 32.7843C117.568 32.9304 117.635 33.0664 117.72 33.1922C117.809 33.3139 117.917 33.4174 118.043 33.5026C118.169 33.5838 118.315 33.6243 118.481 33.6243H118.603ZM115.438 36.9843L114.403 38.0191L113.356 36.9783L114.391 35.9374L115.438 36.9843ZM117.738 36.9904L116.704 38.0313L115.657 36.9843L116.691 35.9496L117.738 36.9904ZM121.404 32.8026C121.538 32.8594 121.711 32.9304 121.922 33.0157C122.133 33.1009 122.36 33.1861 122.604 33.2713C122.847 33.3565 123.093 33.4336 123.34 33.5026C123.592 33.5675 123.821 33.6081 124.028 33.6243C123.987 33.4539 123.945 33.2774 123.9 33.0948C123.859 32.9081 123.813 32.7275 123.76 32.553C123.707 32.3786 123.648 32.2142 123.584 32.06C123.519 31.9017 123.441 31.7638 123.352 31.6461C123.267 31.5284 123.168 31.4351 123.054 31.3661C122.94 31.2971 122.813 31.2626 122.67 31.2626C122.508 31.2626 122.362 31.3154 122.232 31.4209C122.106 31.5264 121.991 31.6583 121.885 31.8165C121.784 31.9707 121.693 32.1371 121.611 32.3157C121.534 32.4942 121.465 32.6565 121.404 32.8026ZM123.717 35.1643C123.506 35.1603 123.259 35.1299 122.975 35.073C122.691 35.0203 122.401 34.9493 122.104 34.86C121.812 34.7707 121.53 34.6693 121.258 34.5557C120.99 34.442 120.763 34.3223 120.577 34.1965C120.418 34.3548 120.264 34.4948 120.114 34.6165C119.964 34.7383 119.808 34.8417 119.645 34.927C119.483 35.0081 119.306 35.071 119.116 35.1157C118.929 35.1603 118.716 35.1826 118.477 35.1826H118.355V33.6243H118.477C118.773 33.6243 119.02 33.5696 119.219 33.46C119.418 33.3464 119.588 33.2003 119.73 33.0217C119.873 32.8432 119.996 32.6423 120.102 32.4191C120.211 32.1959 120.323 31.9728 120.437 31.7496C120.55 31.5142 120.68 31.2788 120.826 31.0435C120.972 30.8081 121.137 30.5971 121.319 30.4104C121.506 30.2197 121.715 30.0655 121.946 29.9478C122.177 29.8301 122.437 29.7713 122.725 29.7713C123.103 29.7713 123.419 29.8383 123.675 29.9722C123.935 30.102 124.15 30.2826 124.32 30.5139C124.495 30.7412 124.633 31.009 124.734 31.3174C124.835 31.6258 124.921 31.9586 124.99 32.3157C125.03 32.5226 125.069 32.7072 125.105 32.8696C125.142 33.0278 125.182 33.1638 125.227 33.2774C125.276 33.391 125.326 33.4783 125.379 33.5391C125.436 33.5959 125.503 33.6243 125.58 33.6243H125.769V35.1826H125.537C125.314 35.1786 125.115 35.1177 124.941 35C124.77 34.8783 124.612 34.718 124.466 34.5191C124.421 34.5597 124.369 34.6145 124.308 34.6835C124.251 34.7525 124.188 34.8214 124.119 34.8904C124.054 34.9554 123.987 35.0142 123.918 35.067C123.849 35.1197 123.782 35.1522 123.717 35.1643ZM125.519 33.6243H127.412C127.647 33.6243 127.858 33.5959 128.045 33.5391C128.236 33.4823 128.396 33.4093 128.526 33.32C128.656 33.2267 128.755 33.1212 128.824 33.0035C128.897 32.8817 128.934 32.758 128.934 32.6322C128.934 32.4374 128.895 32.2264 128.818 31.9991C128.741 31.7678 128.637 31.5345 128.508 31.2991C128.382 31.0597 128.232 30.8203 128.057 30.5809C127.887 30.3374 127.706 30.1061 127.515 29.887C127.325 29.6638 127.128 29.4568 126.925 29.2661C126.726 29.0754 126.535 28.907 126.353 28.7609L126.499 27.0443L131.825 24.7922L132.391 26.1861L127.795 28.073C128.108 28.3449 128.38 28.6148 128.611 28.8826C128.846 29.1464 129.055 29.4122 129.238 29.68C129.425 29.9438 129.593 30.2096 129.743 30.4774C129.893 30.7452 130.039 31.0151 130.181 31.287C130.283 31.4817 130.384 31.6725 130.486 31.8591C130.587 32.0458 130.697 32.2365 130.815 32.4313V32.4252C130.924 32.6078 131.04 32.7722 131.161 32.9183C131.287 33.0643 131.421 33.1901 131.563 33.2957C131.709 33.4012 131.868 33.4823 132.038 33.5391C132.213 33.5959 132.403 33.6243 132.61 33.6243H132.994V35.1826H132.817C132.493 35.1826 132.198 35.1603 131.935 35.1157C131.671 35.071 131.425 35 131.198 34.9026C130.975 34.8052 130.764 34.6814 130.565 34.5313C130.37 34.3771 130.177 34.1925 129.987 33.9774C129.845 34.1884 129.684 34.369 129.506 34.5191C129.327 34.6652 129.135 34.787 128.928 34.8843C128.721 34.9777 128.501 35.0467 128.27 35.0913C128.043 35.14 127.808 35.1704 127.564 35.1826H125.519V33.6243ZM132.751 33.6243H134.048C134.239 33.6243 134.443 33.6142 134.663 33.5939C134.886 33.5696 135.091 33.5229 135.277 33.4539C135.468 33.3809 135.624 33.2774 135.746 33.1435C135.872 33.0096 135.935 32.831 135.935 32.6078C135.935 32.5023 135.912 32.3542 135.868 32.1635C135.823 31.9728 135.764 31.7617 135.691 31.5304C135.618 31.2991 135.531 31.0597 135.43 30.8122C135.332 30.5646 135.229 30.3333 135.119 30.1183L136.525 29.4243C136.627 29.6557 136.728 29.9012 136.83 30.1609C136.931 30.4206 137.02 30.6884 137.097 30.9643C137.179 31.2362 137.243 31.5101 137.292 31.7861C137.341 32.062 137.365 32.3319 137.365 32.5957C137.365 33.0664 137.278 33.4661 137.103 33.7948C136.929 34.1235 136.69 34.3913 136.385 34.5983C136.085 34.8012 135.732 34.9493 135.326 35.0426C134.924 35.1359 134.494 35.1826 134.036 35.1826H132.751V33.6243ZM135.478 27.2817L134.443 28.3165L133.397 27.2757L134.431 26.2348L135.478 27.2817ZM137.779 27.2878L136.744 28.3287L135.697 27.2817L136.732 26.247L137.779 27.2878Z" fill="#333333"/>
<g filter="url(#filter0_d_1605_12179)">
<rect x="154" y="14" width="34" height="34" rx="8" fill="#FFCC00"/>
</g>
<path d="M171.039 37.5843C171.039 36.6939 171.032 35.7896 171.018 34.8713C171.011 33.9461 170.987 33.0348 170.945 32.1374C170.903 31.233 170.841 30.3461 170.757 29.4765C170.681 28.607 170.569 27.7791 170.423 26.993C170.284 26.2 170.107 25.4557 169.891 24.76C169.682 24.0643 169.425 23.4348 169.119 22.8713L171.321 21.5148C171.641 22.0087 171.905 22.5443 172.114 23.1217C172.329 23.6922 172.514 24.2974 172.667 24.9374C172.82 25.5704 172.949 26.2348 173.053 26.9304C173.157 27.6191 173.258 28.3217 173.356 29.0383C173.425 29.5809 173.481 30.1722 173.522 30.8122C173.564 31.4452 173.596 32.0922 173.616 32.753C173.644 33.407 173.662 34.0539 173.669 34.6939C173.676 35.3339 173.679 35.9322 173.679 36.4887V37.5843H171.039Z" fill="#333333"/>
<path d="M60.2183 99.6061C60.4781 99.6061 60.752 99.602 61.0401 99.5939C61.3323 99.5858 61.6204 99.5675 61.9044 99.5391C62.1885 99.5067 62.4604 99.46 62.7201 99.3991C62.9839 99.3383 63.2131 99.2551 63.4079 99.1496C63.6068 99.0441 63.765 98.9122 63.8827 98.7539C64.0004 98.5957 64.0592 98.4029 64.0592 98.1757C64.0592 97.9768 63.9963 97.7719 63.8705 97.5609C63.7488 97.3499 63.5885 97.1388 63.3897 96.9278C63.1908 96.7128 62.9656 96.4997 62.714 96.2887C62.4665 96.0736 62.2149 95.8646 61.9592 95.6617C61.7076 95.4588 61.4662 95.2641 61.2349 95.0774C61.0036 94.8907 60.8088 94.7162 60.6505 94.5539L60.827 92.9591L66.1044 90.7861L66.7192 92.2348L62.2575 94C62.4888 94.1948 62.7241 94.3977 62.9636 94.6087C63.207 94.8197 63.4424 95.0388 63.6697 95.2661C63.901 95.4893 64.1181 95.7186 64.321 95.9539C64.5239 96.1893 64.7004 96.4267 64.8505 96.6661C65.0047 96.9055 65.1244 97.147 65.2097 97.3904C65.2989 97.6339 65.3436 97.8774 65.3436 98.1209C65.3436 98.5997 65.2644 99.0096 65.1062 99.3504C64.9479 99.6872 64.7349 99.9693 64.467 100.197C64.2033 100.42 63.8969 100.598 63.5479 100.732C63.203 100.862 62.8418 100.959 62.4644 101.024C62.0911 101.089 61.7137 101.13 61.3323 101.146C60.9549 101.166 60.6018 101.177 60.2731 101.177C59.7983 101.177 59.3439 101.172 58.9097 101.164C58.4795 101.156 58.0717 101.134 57.6862 101.097C57.3007 101.061 56.9375 101.006 56.5966 100.933C56.2598 100.86 55.9494 100.757 55.6653 100.623C55.3812 100.489 55.1215 100.32 54.8862 100.117C54.6549 99.9145 54.452 99.667 54.2775 99.3748C54.1152 99.107 54.0218 98.8087 53.9975 98.48C53.9894 98.3786 53.9853 98.2791 53.9853 98.1817C53.9853 97.9504 54.0117 97.6928 54.0644 97.4087C54.1212 97.1246 54.2166 96.8243 54.3505 96.5078C54.4844 96.1913 54.6305 95.9072 54.7888 95.6557L55.921 96.6052C55.852 96.6986 55.7749 96.8284 55.6897 96.9948C55.6044 97.1571 55.5294 97.3296 55.4644 97.5122C55.3995 97.6948 55.3549 97.8733 55.3305 98.0478C55.3224 98.1046 55.3183 98.1594 55.3183 98.2122C55.3183 98.3136 55.3366 98.4029 55.3731 98.48C55.4543 98.6545 55.5983 98.8046 55.8053 98.9304C56.0123 99.0522 56.2557 99.1557 56.5357 99.2409C56.8157 99.322 57.1201 99.387 57.4488 99.4357C57.7815 99.4843 58.1123 99.5209 58.441 99.5452C58.7737 99.5696 59.0943 99.5858 59.4027 99.5939C59.7111 99.602 59.983 99.6061 60.2183 99.6061ZM69.484 97.1348C69.5651 97.3904 69.6483 97.6583 69.7335 97.9383C69.8228 98.2142 69.9019 98.4942 69.9709 98.7783C70.044 99.0623 70.1028 99.3464 70.1474 99.6304C70.1921 99.9104 70.2144 100.184 70.2144 100.452C70.2144 100.817 70.1576 101.172 70.044 101.517C69.9344 101.866 69.7802 102.201 69.5813 102.522C69.3866 102.846 69.1532 103.155 68.8813 103.447C68.6135 103.739 68.3213 104.015 68.0048 104.275C67.6883 104.534 67.3535 104.776 67.0005 104.999C66.6474 105.222 66.2903 105.423 65.9292 105.602L65.2353 104.208C65.5234 104.066 65.8074 103.908 66.0874 103.733C66.3674 103.563 66.6332 103.38 66.8848 103.185C67.1405 102.99 67.3758 102.786 67.5909 102.57C67.81 102.355 67.9967 102.132 68.1509 101.901C68.3092 101.67 68.4329 101.432 68.5222 101.189C68.6115 100.945 68.6561 100.7 68.6561 100.452C68.6561 100.221 68.6298 99.9774 68.577 99.7217C68.5242 99.4661 68.4593 99.2145 68.3822 98.967C68.3092 98.7154 68.2321 98.4739 68.1509 98.2426C68.0738 98.0113 68.0089 97.8064 67.9561 97.6278L69.484 97.1348ZM72.9837 91.4983C73.0852 92.2733 73.1562 93.0139 73.1968 93.72C73.2374 94.422 73.2617 95.1099 73.2698 95.7835C73.2779 96.3557 73.28 96.8852 73.2759 97.3722C73.2759 97.8591 73.2719 98.3136 73.2637 98.7357C73.2556 99.1536 73.2435 99.5452 73.2272 99.9104C73.211 100.272 73.1948 100.61 73.1785 100.927L71.5837 101.17C71.669 99.8313 71.7116 98.6484 71.7116 97.6217C71.7116 97.2078 71.7055 96.8203 71.6933 96.4591C71.6608 95.6272 71.6243 94.8461 71.5837 94.1157C71.5432 93.3812 71.4884 92.6791 71.4194 92.0096L72.9837 91.4983ZM77.0244 101.183C76.5171 101.183 76.0383 101.069 75.5878 100.842C75.1415 100.614 74.7215 100.298 74.3278 99.8922L75.2226 98.6322C75.5919 98.973 75.9368 99.2206 76.2574 99.3748C76.578 99.5249 76.8844 99.6 77.1765 99.6C77.3186 99.6 77.4687 99.5878 77.627 99.5635C77.7893 99.5351 77.9496 99.4965 78.1078 99.4478C78.2661 99.3991 78.4162 99.3423 78.5583 99.2774C78.7044 99.2084 78.8302 99.1354 78.9357 99.0583L76.9939 94.3713L78.4365 93.7687C78.5055 93.9472 78.5826 94.138 78.6678 94.3409C78.7531 94.5438 78.8444 94.7629 78.9418 94.9983L80.4696 98.6809C80.5264 98.8188 80.5852 98.9467 80.6461 99.0643C80.711 99.178 80.7841 99.2774 80.8652 99.3626C80.9505 99.4438 81.0458 99.5087 81.1513 99.5574C81.2609 99.602 81.3867 99.6243 81.5287 99.6243H81.6687V101.183H81.5287C81.2731 101.183 81.0519 101.162 80.8652 101.122C80.6826 101.085 80.5223 101.034 80.3844 100.97C80.2464 100.901 80.1247 100.821 80.0191 100.732C79.9136 100.639 79.8122 100.539 79.7148 100.434C79.52 100.58 79.3212 100.702 79.1183 100.799C78.9154 100.897 78.7023 100.974 78.4791 101.03C78.256 101.087 78.0247 101.126 77.7852 101.146C77.5458 101.17 77.2922 101.183 77.0244 101.183ZM81.5488 99.6243C81.8451 99.6243 82.1027 99.5696 82.3219 99.46C82.541 99.3464 82.7338 99.2003 82.9001 99.0217C83.0706 98.8432 83.2187 98.6423 83.3445 98.4191C83.4743 98.1959 83.5961 97.9728 83.7097 97.7496C83.8233 97.5142 83.9471 97.2809 84.081 97.0496C84.2149 96.8183 84.3671 96.6113 84.5375 96.4287C84.708 96.242 84.9027 96.0919 85.1219 95.9783C85.341 95.8606 85.5946 95.8017 85.8827 95.8017C86.1425 95.8017 86.3798 95.8423 86.5949 95.9235C86.814 96.0006 87.0088 96.1101 87.1793 96.2522C87.3538 96.3901 87.5059 96.5525 87.6358 96.7391C87.7656 96.9217 87.8732 97.1206 87.9584 97.3357C88.0436 97.5467 88.1065 97.7658 88.1471 97.993C88.1917 98.2203 88.214 98.4455 88.214 98.6687C88.214 98.8757 88.1958 99.0765 88.1593 99.2713C88.1268 99.4661 88.0761 99.6548 88.0071 99.8374C87.93 100.032 87.8285 100.209 87.7027 100.367C87.581 100.525 87.441 100.661 87.2827 100.775C87.1245 100.884 86.954 100.97 86.7714 101.03C86.5888 101.091 86.3981 101.122 86.1993 101.122C86.0288 101.122 85.8482 101.099 85.6575 101.055C85.4709 101.014 85.2801 100.957 85.0853 100.884C85.0001 100.848 84.9048 100.805 84.7993 100.757C84.6938 100.704 84.5862 100.647 84.4767 100.586C84.3671 100.525 84.2575 100.462 84.148 100.397C84.0425 100.328 83.943 100.261 83.8497 100.197C83.5291 100.513 83.1842 100.757 82.8149 100.927C82.4497 101.097 82.0277 101.183 81.5488 101.183H81.4271V99.6243H81.5488ZM84.7627 98.9122C84.8723 98.9852 85.0082 99.0664 85.1706 99.1557C85.3369 99.2449 85.5094 99.3261 85.688 99.3991C85.8665 99.4722 86.043 99.527 86.2175 99.5635C86.3149 99.5878 86.4042 99.6 86.4854 99.6C86.5503 99.6 86.6091 99.5919 86.6619 99.5757C86.7025 99.5675 86.7451 99.5432 86.7897 99.5026C86.8384 99.458 86.881 99.3991 86.9175 99.3261C86.9581 99.253 86.9906 99.1678 87.0149 99.0704C87.0311 98.9893 87.0393 98.9 87.0393 98.8026C87.0393 98.7823 87.0393 98.762 87.0393 98.7417C87.0393 98.5591 87.0068 98.3765 86.9419 98.1939C86.881 98.0072 86.7958 97.8429 86.6862 97.7009C86.5767 97.5588 86.4468 97.4493 86.2967 97.3722C86.1952 97.3235 86.0856 97.2991 85.968 97.2991C85.9111 97.2991 85.8523 97.3052 85.7914 97.3174C85.7346 97.3296 85.6778 97.362 85.621 97.4148C85.5682 97.4635 85.5033 97.5487 85.4262 97.6704C85.3491 97.7881 85.2578 97.9484 85.1523 98.1513C85.0468 98.3501 84.9169 98.6038 84.7627 98.9122ZM101.258 95.7591C101.441 95.7186 101.628 95.6942 101.818 95.6861C101.871 95.682 101.924 95.68 101.977 95.68C102.111 95.68 102.257 95.6901 102.415 95.7104C102.577 95.7307 102.748 95.7693 102.926 95.8261C103.109 95.8829 103.283 95.9559 103.45 96.0452L102.896 97.5061C102.685 97.4128 102.466 97.3499 102.238 97.3174C102.141 97.3052 102.046 97.2991 101.952 97.2991C101.818 97.2991 101.685 97.3113 101.551 97.3357C101.413 97.3478 101.265 97.3884 101.106 97.4574C100.948 97.5264 100.79 97.6157 100.632 97.7252C100.477 97.8307 100.327 97.9545 100.181 98.0965C100.039 98.2345 99.9132 98.3826 99.8037 98.5409C99.6941 98.6951 99.6048 98.8554 99.5359 99.0217C99.4709 99.1841 99.4385 99.3423 99.4385 99.4965C99.4385 99.671 99.479 99.809 99.5602 99.9104C99.6454 100.008 99.757 100.089 99.895 100.154C100.037 100.215 100.199 100.266 100.382 100.306C100.565 100.343 100.755 100.387 100.954 100.44C101.198 100.497 101.443 100.562 101.691 100.635C101.938 100.708 102.161 100.809 102.36 100.939C102.559 101.065 102.717 101.231 102.835 101.438C102.936 101.621 102.987 101.846 102.987 102.114C102.987 102.15 102.985 102.189 102.981 102.23C102.957 102.656 102.859 103.031 102.689 103.356C102.518 103.684 102.297 103.968 102.025 104.208C101.754 104.447 101.443 104.646 101.094 104.804C100.745 104.967 100.38 105.097 99.9985 105.194C99.617 105.291 99.2315 105.36 98.8419 105.401C98.4524 105.441 98.0811 105.462 97.728 105.462C97.0138 105.462 96.3605 105.366 95.768 105.176C95.1796 104.985 94.6825 104.701 94.2767 104.323C93.8709 103.95 93.5767 103.483 93.3941 102.923C93.2724 102.558 93.2115 102.154 93.2115 101.712C93.2115 101.477 93.2277 101.233 93.2602 100.982C93.2927 100.714 93.3373 100.442 93.3941 100.166C93.4509 99.8901 93.5118 99.6243 93.5767 99.3687C93.6417 99.109 93.7086 98.8635 93.7776 98.6322C93.8466 98.4009 93.9095 98.198 93.9663 98.0235C94.0231 97.849 94.0718 97.707 94.1124 97.5974C94.153 97.4878 94.1773 97.4249 94.1854 97.4087L95.5246 97.9504C95.4272 98.2548 95.3379 98.5409 95.2567 98.8087C95.1756 99.0725 95.1025 99.3322 95.0376 99.5878C94.9727 99.8435 94.9138 100.101 94.8611 100.361C94.8124 100.617 94.7698 100.888 94.7332 101.177C94.717 101.31 94.7089 101.44 94.7089 101.566C94.7089 101.854 94.7637 102.14 94.8732 102.424C94.9869 102.712 95.1796 102.966 95.4515 103.185C95.7275 103.408 96.0602 103.575 96.4498 103.684C96.8393 103.794 97.2654 103.849 97.728 103.849C98.2677 103.849 98.7689 103.806 99.2315 103.721C99.6982 103.64 100.102 103.53 100.443 103.392C100.788 103.254 101.062 103.098 101.265 102.923C101.472 102.753 101.587 102.577 101.612 102.394C101.607 102.357 101.569 102.323 101.496 102.29C101.423 102.258 101.332 102.226 101.222 102.193C101.112 102.165 100.991 102.134 100.857 102.102C100.727 102.073 100.601 102.043 100.479 102.01C100.138 101.925 99.8219 101.828 99.5298 101.718C99.2376 101.613 98.984 101.473 98.7689 101.298C98.5538 101.124 98.3854 100.903 98.2637 100.635C98.1419 100.367 98.0811 100.03 98.0811 99.6243C98.1014 99.178 98.1947 98.7438 98.3611 98.3217C98.5275 97.8997 98.7506 97.5162 99.0306 97.1713C99.3147 96.8223 99.6454 96.5241 100.023 96.2765C100.4 96.029 100.812 95.8565 101.258 95.7591ZM107.683 97.1348C107.764 97.3904 107.848 97.6583 107.933 97.9383C108.022 98.2142 108.101 98.4942 108.17 98.7783C108.243 99.0623 108.302 99.3464 108.347 99.6304C108.391 99.9104 108.414 100.184 108.414 100.452C108.414 100.817 108.357 101.172 108.243 101.517C108.134 101.866 107.979 102.201 107.781 102.522C107.586 102.846 107.352 103.155 107.081 103.447C106.813 103.739 106.521 104.015 106.204 104.275C105.888 104.534 105.553 104.776 105.2 104.999C104.847 105.222 104.49 105.423 104.128 105.602L103.434 104.208C103.723 104.066 104.007 103.908 104.287 103.733C104.567 103.563 104.832 103.38 105.084 103.185C105.34 102.99 105.575 102.786 105.79 102.57C106.009 102.355 106.196 102.132 106.35 101.901C106.508 101.67 106.632 101.432 106.721 101.189C106.811 100.945 106.855 100.7 106.855 100.452C106.855 100.221 106.829 99.9774 106.776 99.7217C106.723 99.4661 106.659 99.2145 106.581 98.967C106.508 98.7154 106.431 98.4739 106.35 98.2426C106.273 98.0113 106.208 97.8064 106.155 97.6278L107.683 97.1348ZM111.183 91.4983C111.284 92.2733 111.355 93.0139 111.396 93.72C111.437 94.422 111.461 95.1099 111.469 95.7835C111.477 96.3557 111.479 96.8852 111.475 97.3722C111.475 97.8591 111.471 98.3136 111.463 98.7357C111.455 99.1536 111.443 99.5452 111.426 99.9104C111.41 100.272 111.394 100.61 111.378 100.927L109.783 101.17C109.868 99.8313 109.911 98.6484 109.911 97.6217C109.911 97.2078 109.905 96.8203 109.893 96.4591C109.86 95.6272 109.824 94.8461 109.783 94.1157C109.742 93.3812 109.688 92.6791 109.619 92.0096L111.183 91.4983ZM115.224 101.183C114.716 101.183 114.237 101.069 113.787 100.842C113.341 100.614 112.921 100.298 112.527 99.8922L113.422 98.6322C113.791 98.973 114.136 99.2206 114.457 99.3748C114.777 99.5249 115.084 99.6 115.376 99.6C115.518 99.6 115.668 99.5878 115.826 99.5635C115.989 99.5351 116.149 99.4965 116.307 99.4478C116.465 99.3991 116.615 99.3423 116.757 99.2774C116.904 99.2084 117.029 99.1354 117.135 99.0583L115.193 94.3713L116.636 93.7687C116.705 93.9472 116.782 94.138 116.867 94.3409C116.952 94.5438 117.044 94.7629 117.141 94.9983L118.669 98.6809C118.726 98.8188 118.784 98.9467 118.845 99.0643C118.91 99.178 118.983 99.2774 119.064 99.3626C119.15 99.4438 119.245 99.5087 119.351 99.5574C119.46 99.602 119.586 99.6243 119.728 99.6243H119.868V101.183H119.728C119.472 101.183 119.251 101.162 119.064 101.122C118.882 101.085 118.722 101.034 118.584 100.97C118.446 100.901 118.324 100.821 118.218 100.732C118.113 100.639 118.011 100.539 117.914 100.434C117.719 100.58 117.52 100.702 117.317 100.799C117.115 100.897 116.902 100.974 116.678 101.03C116.455 101.087 116.224 101.126 115.984 101.146C115.745 101.17 115.491 101.183 115.224 101.183ZM117.451 91.9365L116.283 93.1052L115.12 91.9365L116.283 90.7739L117.451 91.9365ZM119.626 99.6243H120.387C120.586 99.6243 120.791 99.6223 121.002 99.6183C121.217 99.6142 121.424 99.6 121.623 99.5757C121.822 99.5513 122.01 99.5128 122.189 99.46C122.367 99.4072 122.524 99.3322 122.658 99.2348C122.792 99.1333 122.897 99.0075 122.974 98.8574C123.051 98.7032 123.09 98.5145 123.09 98.2913C123.09 97.9991 123.019 97.7009 122.877 97.3965C122.735 97.0881 122.54 96.7736 122.292 96.453C122.045 96.1284 121.753 95.7957 121.416 95.4548C121.083 95.1139 120.724 94.767 120.338 94.4139L120.503 92.9591L125.348 90.8043L125.963 92.253L121.994 93.9696C122.177 94.1238 122.357 94.2861 122.536 94.4565C122.718 94.627 122.903 94.8157 123.09 95.0226C123.37 95.3351 123.607 95.6475 123.802 95.96C123.997 96.2684 124.153 96.5667 124.271 96.8548C124.392 97.1429 124.48 97.4168 124.532 97.6765C124.589 97.9362 124.618 98.1736 124.618 98.3887C124.618 98.8148 124.536 99.2003 124.374 99.5452C124.216 99.8901 124.001 100.184 123.729 100.428C123.457 100.667 123.141 100.854 122.779 100.988C122.422 101.118 122.047 101.183 121.653 101.183H119.626V99.6243ZM125.068 90.2565L120.393 92.3139L120.436 91.5409L124.8 89.6417L125.068 90.2565ZM128.738 97.1348C128.819 97.3904 128.902 97.6583 128.987 97.9383C129.077 98.2142 129.156 98.4942 129.225 98.7783C129.298 99.0623 129.357 99.3464 129.401 99.6304C129.446 99.9104 129.468 100.184 129.468 100.452C129.468 100.817 129.411 101.172 129.298 101.517C129.188 101.866 129.034 102.201 128.835 102.522C128.64 102.846 128.407 103.155 128.135 103.447C127.867 103.739 127.575 104.015 127.259 104.275C126.942 104.534 126.607 104.776 126.254 104.999C125.901 105.222 125.544 105.423 125.183 105.602L124.489 104.208C124.777 104.066 125.061 103.908 125.341 103.733C125.621 103.563 125.887 103.38 126.139 103.185C126.394 102.99 126.63 102.786 126.845 102.57C127.064 102.355 127.251 102.132 127.405 101.901C127.563 101.67 127.687 101.432 127.776 101.189C127.865 100.945 127.91 100.7 127.91 100.452C127.91 100.221 127.884 99.9774 127.831 99.7217C127.778 99.4661 127.713 99.2145 127.636 98.967C127.563 98.7154 127.486 98.4739 127.405 98.2426C127.328 98.0113 127.263 97.8064 127.21 97.6278L128.738 97.1348ZM133.772 101.183H133.528C132.704 101.183 132.079 100.976 131.653 100.562C131.227 100.148 131.012 99.5229 131.008 98.687C131.008 98.5571 131.012 98.3441 131.02 98.0478C131.028 97.7475 131.032 97.3823 131.032 96.9522C131.032 96.6965 131.03 96.4226 131.026 96.1304C131.022 95.8342 131.016 95.5339 131.008 95.2296C131 94.9212 130.988 94.6148 130.972 94.3104C130.959 94.002 130.943 93.7058 130.923 93.4217C130.903 93.1336 130.878 92.8658 130.85 92.6183C130.821 92.3667 130.789 92.1455 130.752 91.9548L132.28 91.4983C132.325 91.7336 132.365 92.0217 132.402 92.3626C132.439 92.6994 132.471 93.0606 132.499 93.4461C132.528 93.8316 132.548 94.2252 132.56 94.627C132.576 95.0246 132.585 95.4 132.585 95.753C132.585 95.9681 132.587 96.1974 132.591 96.4409C132.595 96.6803 132.597 96.8913 132.597 97.0739C132.597 97.2281 132.595 97.3742 132.591 97.5122C132.591 97.6461 132.589 97.7759 132.585 97.9017C132.585 98.0275 132.583 98.1513 132.579 98.273C132.579 98.3948 132.579 98.5186 132.579 98.6443C132.579 98.6768 132.579 98.7093 132.579 98.7417C132.579 98.8878 132.593 99.0177 132.621 99.1313C132.654 99.2449 132.708 99.3403 132.785 99.4174C132.863 99.4904 132.96 99.5432 133.078 99.5757C133.199 99.6081 133.339 99.6243 133.498 99.6243H133.772V101.183ZM133.531 99.6243H134.511C134.701 99.6243 134.896 99.6142 135.095 99.5939C135.298 99.5696 135.48 99.5229 135.643 99.4539C135.805 99.3809 135.937 99.2774 136.038 99.1435C136.144 99.0096 136.197 98.831 136.197 98.6078C136.197 98.5023 136.174 98.3542 136.13 98.1635C136.085 97.9728 136.026 97.7617 135.953 97.5304C135.88 97.2991 135.793 97.0597 135.691 96.8122C135.594 96.5646 135.491 96.3333 135.381 96.1183L136.787 95.4243C136.889 95.6557 136.99 95.9012 137.091 96.1609C137.193 96.4206 137.282 96.6884 137.359 96.9643C137.44 97.2362 137.505 97.5101 137.554 97.7861C137.603 98.062 137.627 98.3319 137.627 98.5957C137.627 99.0501 137.55 99.4417 137.396 99.7704C137.242 100.095 137.027 100.363 136.751 100.574C136.475 100.781 136.144 100.933 135.758 101.03C135.377 101.132 134.957 101.183 134.498 101.183H133.531V99.6243ZM136.665 103.161L135.497 104.33L134.334 103.161L135.497 101.998L136.665 103.161Z" fill="#333333"/>
<g filter="url(#filter1_d_1605_12179)">
<rect x="154" y="80" width="34" height="34" rx="8" fill="#FFCC00"/>
</g>
<path d="M175.586 87.3374C175.641 87.7339 175.687 88.1165 175.721 88.4852C175.763 88.8539 175.784 89.2052 175.784 89.5391C175.784 90.193 175.694 90.833 175.513 91.4591C175.339 92.0852 175.019 92.6939 174.553 93.2852C174.177 93.7443 173.725 94.0887 173.196 94.3183C172.668 94.5478 172.087 94.6626 171.454 94.6626C170.96 94.6626 170.501 94.6104 170.076 94.5061C170.174 95.2365 170.247 95.9948 170.295 96.7809C170.351 97.567 170.393 98.353 170.421 99.1391C170.448 99.9183 170.462 100.683 170.462 101.435C170.469 102.179 170.473 102.875 170.473 103.522H167.833C167.833 102.388 167.819 101.243 167.791 100.089C167.763 98.9339 167.704 97.8104 167.614 96.7183C167.53 95.6261 167.405 94.5896 167.238 93.6087C167.071 92.6209 166.848 91.7304 166.57 90.9374V90.9478C166.487 90.7461 166.414 90.5652 166.351 90.4052C166.295 90.2452 166.236 90.0887 166.174 89.9357C166.111 89.7826 166.038 89.6226 165.955 89.4557C165.878 89.2887 165.774 89.0974 165.641 88.8817L167.854 87.4626C168.007 87.713 168.132 87.9357 168.229 88.1304C168.334 88.3252 168.424 88.513 168.501 88.6939C168.584 88.8678 168.661 89.0487 168.73 89.2365C168.8 89.4174 168.887 89.6226 168.991 89.8522C169.137 90.193 169.283 90.4991 169.429 90.7704C169.575 91.0417 169.739 91.2748 169.92 91.4696C170.108 91.6574 170.323 91.8 170.567 91.8974C170.796 91.9948 171.071 92.0435 171.391 92.0435C171.412 92.0435 171.433 92.0435 171.454 92.0435C171.885 92.0365 172.215 91.9461 172.445 91.7722C172.675 91.5913 172.838 91.3687 172.935 91.1043C173.04 90.833 173.099 90.5339 173.113 90.207C173.127 89.88 173.134 89.56 173.134 89.247C173.134 88.9687 173.123 88.7252 173.102 88.5165C173.081 88.3078 173.05 88.0678 173.008 87.7965L175.586 87.3374Z" fill="#333333"/>
<path d="M71.7342 164.79C71.8884 164.888 72.0731 164.987 72.2881 165.089C72.5073 165.19 72.7325 165.281 72.9638 165.363C73.1992 165.444 73.4284 165.511 73.6516 165.563C73.8789 165.616 74.0777 165.643 74.2481 165.643C74.3171 165.643 74.4023 165.641 74.5038 165.637C74.6052 165.632 74.7128 165.624 74.8264 165.612C74.94 165.596 75.0536 165.574 75.1673 165.545C75.2809 165.513 75.3823 165.47 75.4716 165.417C75.565 165.361 75.64 165.292 75.6968 165.21C75.7536 165.125 75.7841 165.022 75.7881 164.9C75.7881 164.892 75.7881 164.886 75.7881 164.882C75.7881 164.719 75.7415 164.537 75.6481 164.334C75.5589 164.127 75.4351 163.912 75.2768 163.689C75.1186 163.461 74.936 163.234 74.729 163.007C74.5221 162.78 74.307 162.563 74.0838 162.356C73.8606 162.145 73.6354 161.952 73.4081 161.777C73.185 161.599 72.976 161.449 72.7812 161.327L73.6881 159.982C74.0615 160.237 74.4287 160.526 74.7899 160.846C75.1551 161.167 75.4899 161.51 75.7942 161.875C76.1026 162.236 76.3684 162.613 76.5916 163.007C76.8189 163.401 76.9812 163.798 77.0786 164.2C77.1313 164.431 77.1577 164.652 77.1577 164.863C77.1577 165.066 77.1192 165.31 77.0421 165.594C76.969 165.878 76.8006 166.158 76.5368 166.434C76.2731 166.706 75.9383 166.915 75.5325 167.061C75.1835 167.187 74.8 167.25 74.3821 167.25C74.3131 167.25 74.2421 167.248 74.169 167.243C73.9012 167.243 73.6293 167.217 73.3534 167.164C73.0774 167.116 72.8055 167.047 72.5377 166.957C72.2739 166.868 72.0183 166.767 71.7708 166.653C71.5273 166.535 71.3 166.412 71.089 166.282L71.7342 164.79ZM79.9427 157.498C80.0442 158.273 80.1152 159.014 80.1558 159.72C80.1964 160.422 80.2207 161.11 80.2288 161.783C80.2369 162.356 80.239 162.885 80.2349 163.372C80.2349 163.859 80.2308 164.314 80.2227 164.736C80.2146 165.154 80.2024 165.545 80.1862 165.91C80.17 166.272 80.1537 166.61 80.1375 166.927L78.5427 167.17C78.6279 165.831 78.6706 164.648 78.6706 163.622C78.6706 163.208 78.6645 162.82 78.6523 162.459C78.6198 161.627 78.5833 160.846 78.5427 160.116C78.5021 159.381 78.4474 158.679 78.3784 158.01L79.9427 157.498ZM81.8651 164.79C82.0193 164.888 82.2039 164.987 82.419 165.089C82.6381 165.19 82.8633 165.281 83.0947 165.363C83.33 165.444 83.5593 165.511 83.7825 165.563C84.0097 165.616 84.2086 165.643 84.379 165.643C84.448 165.643 84.5332 165.641 84.6347 165.637C84.7361 165.632 84.8436 165.624 84.9573 165.612C85.0709 165.596 85.1845 165.574 85.2981 165.545C85.4118 165.513 85.5132 165.47 85.6025 165.417C85.6958 165.361 85.7709 165.292 85.8277 165.21C85.8845 165.125 85.9149 165.022 85.919 164.9C85.919 164.892 85.919 164.886 85.919 164.882C85.919 164.719 85.8723 164.537 85.779 164.334C85.6897 164.127 85.566 163.912 85.4077 163.689C85.2494 163.461 85.0668 163.234 84.8599 163.007C84.6529 162.78 84.4378 162.563 84.2147 162.356C83.9915 162.145 83.7662 161.952 83.539 161.777C83.3158 161.599 83.1068 161.449 82.912 161.327L83.819 159.982C84.1923 160.237 84.5596 160.526 84.9207 160.846C85.286 161.167 85.6207 161.51 85.9251 161.875C86.2335 162.236 86.4993 162.613 86.7225 163.007C86.9497 163.401 87.112 163.798 87.2094 164.2C87.2622 164.431 87.2886 164.652 87.2886 164.863C87.2886 165.066 87.25 165.31 87.1729 165.594C87.0999 165.878 86.9315 166.158 86.6677 166.434C86.4039 166.706 86.0691 166.915 85.6633 167.061C85.3144 167.187 84.9309 167.25 84.5129 167.25C84.4439 167.25 84.3729 167.248 84.2999 167.243C84.032 167.243 83.7602 167.217 83.4842 167.164C83.2083 167.116 82.9364 167.047 82.6686 166.957C82.4048 166.868 82.1491 166.767 81.9016 166.653C81.6581 166.535 81.4309 166.412 81.2199 166.282L81.8651 164.79ZM91.0718 163.135C91.153 163.39 91.2362 163.658 91.3214 163.938C91.4107 164.214 91.4898 164.494 91.5588 164.778C91.6318 165.062 91.6907 165.346 91.7353 165.63C91.78 165.91 91.8023 166.184 91.8023 166.452C91.8023 166.817 91.7455 167.172 91.6318 167.517C91.5223 167.866 91.3681 168.201 91.1692 168.522C90.9745 168.846 90.7411 169.155 90.4692 169.447C90.2014 169.739 89.9092 170.015 89.5927 170.275C89.2762 170.534 88.9414 170.776 88.5884 170.999C88.2353 171.222 87.8782 171.423 87.5171 171.602L86.8232 170.208C87.1113 170.066 87.3953 169.908 87.6753 169.733C87.9553 169.563 88.2211 169.38 88.4727 169.185C88.7284 168.99 88.9637 168.786 89.1788 168.57C89.3979 168.355 89.5846 168.132 89.7388 167.901C89.8971 167.67 90.0208 167.432 90.1101 167.189C90.1994 166.945 90.244 166.7 90.244 166.452C90.244 166.221 90.2176 165.977 90.1649 165.722C90.1121 165.466 90.0472 165.214 89.9701 164.967C89.8971 164.715 89.82 164.474 89.7388 164.243C89.6617 164.011 89.5968 163.806 89.544 163.628L91.0718 163.135ZM94.5716 157.498C94.6731 158.273 94.7441 159.014 94.7847 159.72C94.8253 160.422 94.8496 161.11 94.8577 161.783C94.8658 162.356 94.8679 162.885 94.8638 163.372C94.8638 163.859 94.8597 164.314 94.8516 164.736C94.8435 165.154 94.8313 165.545 94.8151 165.91C94.7989 166.272 94.7826 166.61 94.7664 166.927L93.1716 167.17C93.2569 165.831 93.2995 164.648 93.2995 163.622C93.2995 163.208 93.2934 162.82 93.2812 162.459C93.2487 161.627 93.2122 160.846 93.1716 160.116C93.1311 159.381 93.0763 158.679 93.0073 158.01L94.5716 157.498ZM100.536 167.183H100.347C100.242 167.183 100.108 167.17 99.9453 167.146C99.787 167.122 99.6125 167.049 99.4218 166.927C99.3691 167.438 99.2128 167.927 98.9531 168.394C98.6934 168.865 98.3667 169.305 97.9731 169.715C97.5836 170.125 97.1433 170.5 96.6523 170.841C96.1653 171.182 95.6641 171.48 95.1488 171.736L94.467 170.33C94.7511 170.183 95.0372 170.025 95.3253 169.855C95.6094 169.684 95.8812 169.502 96.141 169.307C96.4007 169.112 96.6421 168.909 96.8653 168.698C97.0925 168.487 97.2873 168.266 97.4496 168.035C97.616 167.803 97.7459 167.566 97.8392 167.323C97.9366 167.079 97.9853 166.83 97.9853 166.574C97.9853 166.391 97.9589 166.19 97.9062 165.971C97.8534 165.748 97.7865 165.517 97.7053 165.277C97.6241 165.038 97.5369 164.797 97.4436 164.553C97.3502 164.306 97.265 164.066 97.1879 163.835L98.6488 163.226C98.807 163.701 98.9511 164.094 99.081 164.407C99.2149 164.715 99.3447 164.961 99.4705 165.143C99.6004 165.322 99.7343 165.448 99.8723 165.521C100.014 165.59 100.175 165.624 100.353 165.624H100.542L100.536 167.183ZM100.44 165.624C100.866 165.624 101.276 165.612 101.67 165.588C102.064 165.559 102.423 165.521 102.747 165.472C103.072 165.423 103.352 165.365 103.587 165.296C103.823 165.227 103.999 165.15 104.117 165.064H103.496C103.139 165.064 102.798 165.02 102.473 164.93C102.153 164.837 101.871 164.699 101.627 164.517C101.384 164.334 101.189 164.107 101.043 163.835C100.901 163.559 100.83 163.238 100.83 162.873C100.83 162.658 100.852 162.437 100.897 162.21C100.942 161.982 101.008 161.761 101.098 161.546C101.187 161.331 101.295 161.128 101.42 160.937C101.546 160.747 101.69 160.58 101.853 160.438C102.015 160.292 102.193 160.179 102.388 160.097C102.583 160.012 102.794 159.97 103.021 159.97C103.301 159.97 103.563 160.028 103.806 160.146C104.05 160.264 104.271 160.424 104.47 160.627C104.669 160.826 104.845 161.057 104.999 161.321C105.154 161.585 105.284 161.863 105.389 162.155C105.495 162.447 105.574 162.745 105.626 163.05C105.683 163.35 105.712 163.636 105.712 163.908C105.712 164.37 105.647 164.772 105.517 165.113C105.391 165.454 105.213 165.746 104.981 165.99C104.754 166.233 104.48 166.432 104.159 166.586C103.843 166.74 103.492 166.862 103.106 166.951C102.721 167.041 102.307 167.101 101.865 167.134C101.426 167.166 100.972 167.183 100.501 167.183H100.294V165.624H100.44ZM103.021 161.54C103.001 161.536 102.981 161.534 102.96 161.534C102.879 161.534 102.786 161.566 102.68 161.631C102.575 161.696 102.473 161.79 102.376 161.911C102.279 162.033 102.199 162.171 102.139 162.325C102.078 162.475 102.047 162.623 102.047 162.77C102.047 162.778 102.047 162.786 102.047 162.794C102.047 162.94 102.08 163.06 102.145 163.153C102.21 163.242 102.297 163.311 102.406 163.36C102.52 163.409 102.65 163.443 102.796 163.463C102.946 163.484 103.104 163.498 103.271 163.506C103.38 163.51 103.494 163.512 103.612 163.512C103.668 163.512 103.756 163.512 103.873 163.512C103.995 163.508 104.119 163.502 104.245 163.494C104.208 163.348 104.155 163.167 104.086 162.952C104.022 162.733 103.938 162.522 103.837 162.319C103.739 162.112 103.622 161.934 103.484 161.783C103.35 161.633 103.196 161.552 103.021 161.54ZM102.875 158.137L101.84 159.172L100.793 158.131L101.828 157.09L102.875 158.137ZM105.176 158.143L104.141 159.184L103.094 158.137L104.129 157.103L105.176 158.143ZM113.556 167.183C113.048 167.183 112.57 167.069 112.119 166.842C111.673 166.614 111.253 166.298 110.859 165.892L111.754 164.632C112.123 164.973 112.468 165.221 112.789 165.375C113.109 165.525 113.416 165.6 113.708 165.6C113.85 165.6 114 165.588 114.158 165.563C114.321 165.535 114.481 165.497 114.639 165.448C114.797 165.399 114.947 165.342 115.09 165.277C115.236 165.208 115.361 165.135 115.467 165.058L113.525 160.371L114.968 159.769C115.037 159.947 115.114 160.138 115.199 160.341C115.284 160.544 115.376 160.763 115.473 160.998L117.001 164.681C117.058 164.819 117.116 164.947 117.177 165.064C117.242 165.178 117.315 165.277 117.396 165.363C117.482 165.444 117.577 165.509 117.683 165.557C117.792 165.602 117.918 165.624 118.06 165.624H118.2V167.183H118.06C117.804 167.183 117.583 167.162 117.396 167.122C117.214 167.085 117.054 167.034 116.916 166.97C116.778 166.901 116.656 166.821 116.55 166.732C116.445 166.639 116.343 166.539 116.246 166.434C116.051 166.58 115.852 166.702 115.65 166.799C115.447 166.897 115.234 166.974 115.01 167.03C114.787 167.087 114.556 167.126 114.316 167.146C114.077 167.17 113.823 167.183 113.556 167.183ZM120.125 169.678L119.091 170.713L118.044 169.672L119.078 168.631L120.125 169.678ZM118.5 165.624C118.817 165.624 119.119 165.61 119.407 165.582C119.699 165.553 119.957 165.494 120.18 165.405C120.407 165.312 120.588 165.182 120.722 165.016C120.86 164.845 120.935 164.622 120.947 164.346C120.927 164.026 120.902 163.806 120.874 163.689C120.85 163.567 120.817 163.435 120.777 163.293C120.736 163.151 120.689 162.987 120.637 162.8L122.128 162.38C122.181 162.575 122.223 162.753 122.256 162.916C122.288 163.074 122.315 163.228 122.335 163.378C122.355 163.524 122.371 163.674 122.384 163.829C122.4 163.983 122.416 164.153 122.432 164.34C122.444 164.478 122.463 164.624 122.487 164.778C122.511 164.928 122.552 165.066 122.609 165.192C122.67 165.318 122.751 165.421 122.852 165.503C122.958 165.584 123.096 165.624 123.266 165.624H124.453C124.652 165.624 124.863 165.618 125.086 165.606C125.309 165.59 125.522 165.561 125.725 165.521C125.932 165.476 126.119 165.417 126.285 165.344C126.452 165.267 126.575 165.17 126.657 165.052C126.717 164.963 126.748 164.843 126.748 164.693C126.752 164.543 126.732 164.379 126.687 164.2C126.646 164.021 126.59 163.835 126.517 163.64C126.448 163.441 126.373 163.25 126.291 163.068C126.21 162.881 126.129 162.707 126.048 162.544C125.971 162.378 125.906 162.238 125.853 162.124L127.271 161.424C127.381 161.619 127.488 161.854 127.594 162.13C127.704 162.402 127.799 162.684 127.88 162.977C127.961 163.269 128.026 163.557 128.075 163.841C128.128 164.125 128.154 164.377 128.154 164.596C128.154 164.989 128.087 165.34 127.953 165.649C127.799 166.006 127.582 166.3 127.302 166.531C127.022 166.759 126.689 166.929 126.304 167.043C126.186 167.075 126.038 167.099 125.859 167.116C125.685 167.136 125.506 167.15 125.324 167.158C125.141 167.17 124.966 167.177 124.8 167.177C124.638 167.181 124.512 167.183 124.423 167.183H123.272C122.875 167.183 122.538 167.118 122.262 166.988C121.99 166.858 121.761 166.69 121.574 166.483C121.404 166.612 121.201 166.722 120.965 166.811C120.734 166.901 120.482 166.972 120.211 167.024C119.939 167.081 119.657 167.122 119.364 167.146C119.072 167.17 118.784 167.183 118.5 167.183H117.958V165.624H118.5ZM128.154 169.045L127.119 170.086L126.072 169.039L127.107 168.004L128.154 169.045ZM125.853 169.039L124.818 170.074L123.771 169.033L124.806 167.992L125.853 169.039ZM122.426 169.684L121.391 170.725L120.344 169.678L121.379 168.643L122.426 169.684ZM132.992 167.183H132.749C131.925 167.183 131.3 166.976 130.874 166.562C130.448 166.148 130.233 165.523 130.229 164.687C130.229 164.557 130.233 164.344 130.241 164.048C130.249 163.748 130.253 163.382 130.253 162.952C130.253 162.697 130.251 162.423 130.247 162.13C130.243 161.834 130.237 161.534 130.229 161.23C130.221 160.921 130.208 160.615 130.192 160.31C130.18 160.002 130.164 159.706 130.144 159.422C130.123 159.134 130.099 158.866 130.071 158.618C130.042 158.367 130.01 158.146 129.973 157.955L131.501 157.498C131.546 157.734 131.586 158.022 131.623 158.363C131.659 158.699 131.692 159.061 131.72 159.446C131.748 159.832 131.769 160.225 131.781 160.627C131.797 161.025 131.805 161.4 131.805 161.753C131.805 161.968 131.807 162.197 131.811 162.441C131.815 162.68 131.817 162.891 131.817 163.074C131.817 163.228 131.815 163.374 131.811 163.512C131.811 163.646 131.809 163.776 131.805 163.902C131.805 164.028 131.803 164.151 131.799 164.273C131.799 164.395 131.799 164.519 131.799 164.644C131.799 164.677 131.799 164.709 131.799 164.742C131.799 164.888 131.813 165.018 131.842 165.131C131.874 165.245 131.929 165.34 132.006 165.417C132.083 165.49 132.181 165.543 132.298 165.576C132.42 165.608 132.56 165.624 132.718 165.624H132.992V167.183ZM132.751 165.624H134.048C134.239 165.624 134.443 165.614 134.663 165.594C134.886 165.57 135.091 165.523 135.277 165.454C135.468 165.381 135.624 165.277 135.746 165.143C135.872 165.01 135.935 164.831 135.935 164.608C135.935 164.502 135.912 164.354 135.868 164.163C135.823 163.973 135.764 163.762 135.691 163.53C135.618 163.299 135.531 163.06 135.43 162.812C135.332 162.565 135.229 162.333 135.119 162.118L136.525 161.424C136.627 161.656 136.728 161.901 136.83 162.161C136.931 162.421 137.02 162.688 137.097 162.964C137.179 163.236 137.243 163.51 137.292 163.786C137.341 164.062 137.365 164.332 137.365 164.596C137.365 165.066 137.278 165.466 137.103 165.795C136.929 166.123 136.69 166.391 136.385 166.598C136.085 166.801 135.732 166.949 135.326 167.043C134.924 167.136 134.494 167.183 134.036 167.183H132.751V165.624ZM135.478 159.282L134.443 160.317L133.397 159.276L134.431 158.235L135.478 159.282ZM137.779 159.288L136.744 160.329L135.697 159.282L136.732 158.247L137.779 159.288Z" fill="#333333"/>
<g filter="url(#filter2_d_1605_12179)">
<rect x="154" y="146" width="34" height="34" rx="8" fill="#FFCC00"/>
</g>
<path d="M177.677 153.463L177.782 154.037C177.824 154.28 177.862 154.503 177.897 154.704C177.931 154.899 177.959 155.087 177.98 155.268C178.008 155.442 178.029 155.619 178.043 155.8C178.057 155.974 178.064 156.162 178.064 156.363C178.064 157.073 177.98 157.671 177.813 158.158C177.646 158.645 177.413 159.077 177.114 159.452C176.822 159.786 176.498 160.05 176.144 160.245C175.796 160.433 175.378 160.527 174.891 160.527C174.717 160.527 174.526 160.513 174.317 160.485C174.109 160.45 173.893 160.395 173.67 160.318C173.455 160.235 173.239 160.123 173.024 159.984C172.808 159.845 172.61 159.668 172.429 159.452L172.418 159.463C172.244 159.657 172.07 159.835 171.897 159.995C171.723 160.148 171.535 160.28 171.333 160.391C171.138 160.496 170.926 160.576 170.697 160.631C170.467 160.687 170.213 160.715 169.935 160.715C169.566 160.715 169.246 160.68 168.975 160.61V160.673C169.058 161.327 169.124 162.037 169.173 162.802C169.229 163.56 169.27 164.332 169.298 165.118C169.333 165.897 169.354 166.666 169.361 167.424C169.375 168.176 169.382 168.871 169.382 169.511H166.731C166.738 169.372 166.745 169.212 166.752 169.031C166.759 168.85 166.763 168.666 166.763 168.478C166.77 168.283 166.773 168.096 166.773 167.915C166.773 167.734 166.773 167.574 166.773 167.435C166.773 166.823 166.766 166.172 166.752 165.483C166.738 164.795 166.704 164.089 166.648 163.365C166.599 162.635 166.526 161.901 166.429 161.163C166.338 160.426 166.213 159.706 166.053 159.003C165.893 158.294 165.695 157.612 165.458 156.958C165.229 156.304 164.95 155.699 164.624 155.143L167.003 153.755C167.149 153.998 167.291 154.259 167.43 154.537C167.57 154.809 167.691 155.066 167.796 155.31C167.858 155.449 167.917 155.591 167.973 155.737C168.036 155.877 168.095 156.016 168.15 156.155C168.31 156.503 168.457 156.798 168.589 157.042C168.721 157.285 168.853 157.487 168.985 157.647C169.124 157.8 169.267 157.911 169.413 157.981C169.566 158.05 169.74 158.085 169.935 158.085C170.171 158.085 170.356 158.019 170.488 157.887C170.62 157.755 170.717 157.581 170.78 157.365C170.85 157.143 170.895 156.892 170.916 156.614C170.937 156.336 170.954 156.054 170.968 155.769C170.968 155.706 170.964 155.609 170.957 155.477C170.957 155.344 170.954 155.205 170.947 155.059C170.94 154.913 170.93 154.777 170.916 154.652C170.909 154.52 170.902 154.423 170.895 154.36L173.399 154.037C173.406 154.363 173.424 154.652 173.451 154.903C173.479 155.153 173.514 155.393 173.556 155.623C173.604 155.845 173.657 156.068 173.712 156.29C173.775 156.506 173.844 156.75 173.921 157.021H173.91C173.98 157.237 174.064 157.403 174.161 157.522C174.265 157.64 174.366 157.727 174.464 157.783C174.561 157.831 174.648 157.863 174.724 157.877C174.808 157.883 174.864 157.887 174.891 157.887C175.149 157.887 175.326 157.776 175.424 157.553C175.521 157.323 175.57 157.042 175.57 156.708C175.57 156.499 175.552 156.273 175.517 156.03C175.49 155.779 175.451 155.532 175.403 155.289C175.354 155.038 175.298 154.798 175.236 154.569C175.18 154.332 175.128 154.123 175.079 153.943L177.677 153.463Z" fill="#333333"/>
<g filter="url(#filter3_d_1605_12179)">
<path d="M18.0118 233.183H17.7683C16.9446 233.183 16.3196 232.976 15.8935 232.562C15.4674 232.148 15.2524 231.523 15.2483 230.687C15.2483 230.557 15.2524 230.344 15.2605 230.048C15.2686 229.748 15.2727 229.382 15.2727 228.952C15.2727 228.697 15.2706 228.423 15.2666 228.13C15.2625 227.834 15.2564 227.534 15.2483 227.23C15.2402 226.921 15.228 226.615 15.2118 226.31C15.1996 226.002 15.1834 225.706 15.1631 225.422C15.1428 225.134 15.1185 224.866 15.0901 224.618C15.0617 224.367 15.0292 224.146 14.9927 223.955L16.5205 223.498C16.5651 223.734 16.6057 224.022 16.6422 224.363C16.6788 224.699 16.7112 225.061 16.7396 225.446C16.768 225.832 16.7883 226.225 16.8005 226.627C16.8167 227.025 16.8248 227.4 16.8248 227.753C16.8248 227.968 16.8269 228.197 16.8309 228.441C16.835 228.68 16.837 228.891 16.837 229.074C16.837 229.228 16.835 229.374 16.8309 229.512C16.8309 229.646 16.8289 229.776 16.8248 229.902C16.8248 230.028 16.8228 230.151 16.8188 230.273C16.8188 230.395 16.8188 230.519 16.8188 230.644C16.8188 230.677 16.8188 230.709 16.8188 230.742C16.8188 230.888 16.833 231.018 16.8614 231.131C16.8938 231.245 16.9486 231.34 17.0257 231.417C17.1028 231.49 17.2002 231.543 17.3179 231.576C17.4396 231.608 17.5796 231.624 17.7379 231.624H18.0118V233.183ZM20.8204 230.803C20.9543 230.859 21.1268 230.93 21.3378 231.016C21.5488 231.101 21.7761 231.186 22.0195 231.271C22.263 231.357 22.5085 231.434 22.7561 231.503C23.0077 231.568 23.2369 231.608 23.4439 231.624C23.4033 231.454 23.3607 231.277 23.3161 231.095C23.2755 230.908 23.2288 230.728 23.1761 230.553C23.1233 230.379 23.0645 230.214 22.9995 230.06C22.9346 229.902 22.8575 229.764 22.7682 229.646C22.683 229.528 22.5836 229.435 22.47 229.366C22.3563 229.297 22.2285 229.263 22.0865 229.263C21.9242 229.263 21.7781 229.315 21.6482 229.421C21.5224 229.526 21.4068 229.658 21.3013 229.817C21.1998 229.971 21.1085 230.137 21.0274 230.316C20.9503 230.494 20.8813 230.657 20.8204 230.803ZM23.1334 233.164C22.9224 233.16 22.6749 233.13 22.3908 233.073C22.1068 233.02 21.8166 232.949 21.5204 232.86C21.2282 232.771 20.9462 232.669 20.6743 232.556C20.4065 232.442 20.1792 232.322 19.9926 232.197C19.8343 232.355 19.6801 232.495 19.53 232.617C19.3798 232.738 19.2236 232.842 19.0613 232.927C18.899 233.008 18.7224 233.071 18.5317 233.116C18.345 233.16 18.132 233.183 17.8926 233.183H17.7708V231.624H17.8926C18.1888 231.624 18.4363 231.57 18.6352 231.46C18.834 231.346 19.0045 231.2 19.1465 231.022C19.2885 230.843 19.4123 230.642 19.5178 230.419C19.6274 230.196 19.739 229.973 19.8526 229.75C19.9662 229.514 20.0961 229.279 20.2421 229.043C20.3882 228.808 20.5526 228.597 20.7352 228.41C20.9219 228.22 21.1308 228.066 21.3621 227.948C21.5934 227.83 21.8532 227.771 22.1413 227.771C22.5187 227.771 22.8352 227.838 23.0908 227.972C23.3505 228.102 23.5656 228.283 23.7361 228.514C23.9105 228.741 24.0485 229.009 24.15 229.317C24.2514 229.626 24.3366 229.959 24.4056 230.316C24.4462 230.523 24.4848 230.707 24.5213 230.87C24.5578 231.028 24.5984 231.164 24.643 231.277C24.6917 231.391 24.7424 231.478 24.7952 231.539C24.852 231.596 24.919 231.624 24.9961 231.624H25.1848V233.183H24.9534C24.7303 233.179 24.5314 233.118 24.3569 233C24.1865 232.878 24.0282 232.718 23.8821 232.519C23.8375 232.56 23.7848 232.614 23.7239 232.683C23.6671 232.752 23.6042 232.821 23.5352 232.89C23.4703 232.955 23.4033 233.014 23.3343 233.067C23.2653 233.12 23.1984 233.152 23.1334 233.164ZM25.1784 231.624C25.4016 231.624 25.6004 231.576 25.7749 231.478C25.9535 231.381 26.1097 231.251 26.2436 231.089C26.3816 230.926 26.5013 230.742 26.6027 230.535C26.7082 230.328 26.7995 230.115 26.8766 229.896C26.9537 229.677 27.0207 229.461 27.0775 229.25C27.1343 229.035 27.185 228.843 27.2297 228.672L28.7514 229.007C28.7149 229.121 28.6662 229.267 28.6053 229.445C28.5445 229.62 28.4856 229.806 28.4288 230.005C28.3761 230.2 28.3314 230.397 28.2949 230.596C28.2665 230.746 28.2523 230.886 28.2523 231.016C28.2523 231.056 28.2564 231.127 28.2645 231.229C28.2726 231.33 28.3132 231.432 28.3862 231.533C28.4633 231.63 28.5871 231.679 28.7575 231.679C28.9401 231.679 29.1045 231.628 29.2506 231.527C29.3966 231.421 29.5265 231.286 29.6401 231.119C29.7578 230.949 29.8592 230.756 29.9445 230.541C30.0337 230.326 30.1088 230.107 30.1697 229.883C30.2346 229.656 30.2874 229.435 30.3279 229.22C30.3726 229.005 30.4071 228.812 30.4314 228.642L31.8558 228.916C31.8436 229.013 31.8253 229.129 31.801 229.263C31.7807 229.397 31.7584 229.543 31.734 229.701C31.7097 229.855 31.6853 230.017 31.661 230.188C31.6407 230.358 31.6245 230.529 31.6123 230.699C31.6123 230.732 31.6123 230.764 31.6123 230.797C31.6123 230.894 31.6224 230.995 31.6427 231.101C31.663 231.202 31.7056 231.3 31.7706 231.393C31.8355 231.482 31.9207 231.555 32.0262 231.612C32.1317 231.665 32.2616 231.693 32.4158 231.697C32.7039 231.697 32.9392 231.624 33.1219 231.478C33.3045 231.332 33.3958 231.109 33.3958 230.809C33.3958 230.59 33.3653 230.352 33.3045 230.097C33.2477 229.841 33.1766 229.591 33.0914 229.348C33.0103 229.104 32.923 228.875 32.8297 228.66C32.7364 228.445 32.6552 228.266 32.5862 228.124L33.8949 227.394C33.9192 227.439 33.9578 227.52 34.0106 227.637C34.0674 227.755 34.1303 227.901 34.1992 228.076C34.2723 228.246 34.3453 228.439 34.4184 228.654C34.4914 228.869 34.5584 229.096 34.6192 229.336C34.6842 229.571 34.7349 229.812 34.7714 230.06C34.812 230.308 34.8323 230.551 34.8323 230.79C34.8323 231.168 34.7735 231.509 34.6558 231.813C34.5421 232.117 34.3717 232.377 34.1445 232.592C33.9213 232.807 33.6453 232.972 33.3166 233.085C33.0001 233.199 32.6369 233.256 32.2271 233.256C32.2149 233.256 32.2007 233.256 32.1845 233.256C32.1682 233.256 32.154 233.256 32.1419 233.256C31.9511 233.256 31.7766 233.229 31.6184 233.177C31.4601 233.128 31.314 233.059 31.1801 232.97C31.0503 232.876 30.9326 232.771 30.8271 232.653C30.7256 232.535 30.6343 232.416 30.5532 232.294C30.4598 232.428 30.3584 232.554 30.2488 232.671C30.1392 232.785 30.0114 232.884 29.8653 232.97C29.7233 233.055 29.561 233.122 29.3784 233.17C29.1998 233.223 28.9929 233.252 28.7575 233.256C28.7453 233.256 28.7311 233.256 28.7149 233.256C28.5323 233.256 28.3619 233.231 28.2036 233.183C28.0494 233.134 27.9053 233.067 27.7714 232.982C27.6416 232.892 27.5219 232.789 27.4123 232.671C27.3068 232.554 27.2094 232.43 27.1201 232.3C27.043 232.414 26.9497 232.523 26.8401 232.629C26.7346 232.734 26.6027 232.83 26.4445 232.915C26.2903 232.996 26.1077 233.061 25.8966 233.11C25.6856 233.158 25.4381 233.183 25.154 233.183H24.9349V231.624H25.1784ZM30.5349 225.811L29.5001 226.846L28.4532 225.805L29.4879 224.764L30.5349 225.811ZM32.8358 225.817L31.801 226.858L30.754 225.811L31.7888 224.777L32.8358 225.817ZM29.6949 224.052L30.6445 223.103L31.6001 224.058L30.6506 225.008L29.6949 224.052ZM45.4352 233.183C44.9969 233.179 44.5526 233.16 44.1022 233.128C43.6517 233.095 43.2175 233.039 42.7995 232.957C42.3816 232.872 41.988 232.759 41.6187 232.617C41.2494 232.47 40.9288 232.282 40.6569 232.05C40.3851 231.819 40.17 231.539 40.0117 231.21C39.8535 230.878 39.7743 230.486 39.7743 230.036C39.7743 229.812 39.7987 229.599 39.8474 229.397C39.8961 229.19 39.959 228.989 40.0361 228.794C40.1132 228.599 40.2004 228.41 40.2978 228.228C40.3952 228.041 40.4926 227.857 40.59 227.674L41.7222 228.623C41.6532 228.717 41.574 228.845 41.4848 229.007C41.3995 229.169 41.3224 229.342 41.2535 229.524C41.1885 229.707 41.1439 229.883 41.1195 230.054C41.1114 230.111 41.1074 230.166 41.1074 230.218C41.1074 230.32 41.1256 230.409 41.1622 230.486C41.2514 230.669 41.4198 230.831 41.6674 230.973C41.919 231.111 42.2314 231.229 42.6048 231.326C42.9822 231.419 43.4103 231.49 43.8891 231.539C44.372 231.588 44.8874 231.612 45.4352 231.612C45.7395 231.612 46.0824 231.602 46.4639 231.582C46.8494 231.561 47.2451 231.523 47.6509 231.466C48.0607 231.409 48.4624 231.332 48.8561 231.235C49.2538 231.133 49.6169 231.001 49.9456 230.839C49.8969 230.604 49.83 230.377 49.7448 230.157C49.6636 229.938 49.5703 229.723 49.4648 229.512C49.3593 229.301 49.2477 229.094 49.13 228.891C49.0123 228.684 48.8926 228.477 48.7709 228.27L50.0735 227.424C50.0856 227.424 50.1222 227.485 50.183 227.607C50.248 227.725 50.3251 227.881 50.4143 228.076C50.5077 228.27 50.6051 228.492 50.7065 228.739C50.808 228.987 50.9013 229.236 50.9865 229.488C51.0717 229.739 51.1427 229.983 51.1995 230.218C51.2564 230.45 51.2848 230.65 51.2848 230.821C51.2848 231.06 51.2239 231.277 51.1022 231.472C50.9804 231.667 50.814 231.843 50.603 232.002C50.392 232.16 50.1465 232.3 49.8665 232.422C49.5865 232.539 49.2882 232.643 48.9717 232.732C48.6593 232.817 48.3366 232.89 48.0039 232.951C47.6752 233.012 47.3546 233.059 47.0422 233.091C46.7297 233.128 46.4355 233.152 46.1595 233.164C45.9404 233.177 45.7416 233.183 45.563 233.183C45.5184 233.183 45.4758 233.183 45.4352 233.183ZM46.5795 235.161L45.4109 236.33L44.2482 235.161L45.4109 233.998L46.5795 235.161ZM55.5548 233.183H55.3113C54.4875 233.183 53.8626 232.976 53.4365 232.562C53.0104 232.148 52.7953 231.523 52.7913 230.687C52.7913 230.557 52.7953 230.344 52.8035 230.048C52.8116 229.748 52.8156 229.382 52.8156 228.952C52.8156 228.697 52.8136 228.423 52.8095 228.13C52.8055 227.834 52.7994 227.534 52.7913 227.23C52.7832 226.921 52.771 226.615 52.7548 226.31C52.7426 226.002 52.7264 225.706 52.7061 225.422C52.6858 225.134 52.6614 224.866 52.633 224.618C52.6046 224.367 52.5722 224.146 52.5356 223.955L54.0635 223.498C54.1081 223.734 54.1487 224.022 54.1852 224.363C54.2217 224.699 54.2542 225.061 54.2826 225.446C54.311 225.832 54.3313 226.225 54.3435 226.627C54.3597 227.025 54.3678 227.4 54.3678 227.753C54.3678 227.968 54.3698 228.197 54.3739 228.441C54.378 228.68 54.38 228.891 54.38 229.074C54.38 229.228 54.378 229.374 54.3739 229.512C54.3739 229.646 54.3719 229.776 54.3678 229.902C54.3678 230.028 54.3658 230.151 54.3617 230.273C54.3617 230.395 54.3617 230.519 54.3617 230.644C54.3617 230.677 54.3617 230.709 54.3617 230.742C54.3617 230.888 54.3759 231.018 54.4043 231.131C54.4368 231.245 54.4916 231.34 54.5687 231.417C54.6458 231.49 54.7432 231.543 54.8609 231.576C54.9826 231.608 55.1226 231.624 55.2809 231.624H55.5548V233.183ZM55.5695 231.624C55.7764 231.624 55.9712 231.584 56.1538 231.503C56.3405 231.417 56.517 231.267 56.6834 231.052C56.8538 230.833 57.0121 230.535 57.1582 230.157C57.3083 229.78 57.4503 229.297 57.5842 228.709L59.0755 229.129C58.9782 229.466 58.8909 229.79 58.8138 230.103C58.7367 230.411 58.6941 230.677 58.686 230.9C58.686 230.92 58.686 230.939 58.686 230.955C58.686 231.028 58.6921 231.105 58.7042 231.186C58.7205 231.267 58.7469 231.342 58.7834 231.411C58.8199 231.48 58.8686 231.535 58.9295 231.576C58.9863 231.612 59.0492 231.63 59.1182 231.63C59.1263 231.63 59.1344 231.63 59.1425 231.63C59.2926 231.626 59.4347 231.572 59.5686 231.466C59.7025 231.361 59.8263 231.225 59.9399 231.058C60.0576 230.892 60.1631 230.703 60.2564 230.492C60.3538 230.281 60.439 230.068 60.5121 229.853C60.5892 229.634 60.6541 229.421 60.7069 229.214C60.7596 229.007 60.8002 228.824 60.8286 228.666L62.2651 228.958C62.2124 229.202 62.1697 229.427 62.1373 229.634C62.1048 229.837 62.0845 230.042 62.0764 230.249C62.0724 230.301 62.0703 230.354 62.0703 230.407C62.0703 230.508 62.0764 230.628 62.0886 230.766C62.1048 230.9 62.1393 231.032 62.1921 231.162C62.2448 231.292 62.3179 231.399 62.4112 231.484C62.5086 231.566 62.6344 231.606 62.7886 231.606C62.9631 231.606 63.1031 231.539 63.2086 231.405C63.3182 231.267 63.4013 231.093 63.4582 230.882C63.515 230.671 63.5515 230.437 63.5677 230.182C63.588 229.922 63.5982 229.67 63.5982 229.427C63.5982 229.35 63.5961 229.289 63.5921 229.244C63.5921 229.196 63.5921 229.151 63.5921 229.11C63.5921 229.07 63.59 229.025 63.586 228.977C63.586 228.924 63.586 228.853 63.586 228.763L65.126 228.642C65.1382 228.776 65.1503 228.908 65.1625 229.037C65.1747 229.163 65.1869 229.295 65.199 229.433C65.2112 229.567 65.2254 229.711 65.2416 229.865C65.2619 230.015 65.2842 230.18 65.3086 230.358C65.337 230.569 65.3958 230.754 65.4851 230.912C65.5784 231.07 65.686 231.202 65.8077 231.308C65.9295 231.413 66.0593 231.492 66.1973 231.545C66.3393 231.598 66.4732 231.624 66.599 231.624H66.8242V233.183H66.6295C66.4306 233.183 66.2338 233.162 66.039 233.122C65.8483 233.081 65.6657 233.018 65.4912 232.933C65.3167 232.848 65.1524 232.74 64.9982 232.61C64.848 232.477 64.7161 232.318 64.6025 232.136C64.4077 232.452 64.1521 232.706 63.8355 232.897C63.519 233.087 63.17 233.183 62.7886 233.183C62.4071 233.183 62.0602 233.091 61.7477 232.909C61.4393 232.726 61.1938 232.483 61.0112 232.178C60.8935 232.328 60.7657 232.466 60.6277 232.592C60.4938 232.714 60.3477 232.821 60.1895 232.915C60.0353 233.004 59.8709 233.073 59.6964 233.122C59.5219 233.174 59.3393 233.201 59.1486 233.201C58.966 233.201 58.7895 233.177 58.619 233.128C58.4486 233.083 58.2903 233.016 58.1442 232.927C57.9982 232.838 57.8663 232.73 57.7486 232.604C57.6309 232.474 57.5335 232.33 57.4564 232.172C57.2535 232.529 57.004 232.787 56.7077 232.945C56.4115 233.103 56.0341 233.183 55.5755 233.183H55.3138V231.624H55.5695ZM66.5794 231.624H67.9003C68.4035 231.624 68.9148 231.578 69.4342 231.484C69.9577 231.387 70.4771 231.261 70.9925 231.107C71.5078 230.949 72.011 230.768 72.502 230.565C72.9931 230.362 73.4577 230.153 73.896 229.938C73.547 229.861 73.2223 229.76 72.922 229.634C72.6218 229.504 72.3377 229.378 72.0699 229.257C71.802 229.135 71.5444 229.029 71.2968 228.94C71.0493 228.851 70.8038 228.806 70.5603 228.806C70.4183 228.806 70.2844 228.832 70.1586 228.885C70.0368 228.934 69.9232 228.997 69.8177 229.074C69.7122 229.151 69.6168 229.236 69.5316 229.33C69.4504 229.423 69.3774 229.514 69.3125 229.603C69.2516 229.689 69.2009 229.766 69.1603 229.835C69.1197 229.904 69.0913 229.952 69.0751 229.981L67.809 229.159C67.947 228.916 68.1113 228.68 68.302 228.453C68.4928 228.222 68.7038 228.017 68.9351 227.838C69.1704 227.656 69.4241 227.512 69.696 227.406C69.9678 227.297 70.256 227.242 70.5603 227.242C70.8728 227.242 71.1832 227.284 71.4916 227.37C71.8 227.451 72.1044 227.556 72.4047 227.686C72.709 227.812 73.0133 227.948 73.3177 228.094C73.622 228.24 73.9284 228.378 74.2368 228.508C74.5493 228.634 74.8638 228.741 75.1803 228.83C75.4968 228.916 75.8215 228.96 76.1542 228.964L76.0264 230.535C75.4583 230.807 74.8658 231.095 74.249 231.399C73.6322 231.703 72.987 231.986 72.3133 232.245C71.6397 232.501 70.9357 232.718 70.2012 232.897C69.4707 233.071 68.7038 233.166 67.9003 233.183H66.5794V231.624ZM85.2316 237.37C84.6066 237.37 84.0385 237.277 83.5272 237.09C83.0159 236.904 82.5776 236.636 82.2124 236.287C81.8513 235.938 81.5713 235.512 81.3724 235.009C81.1736 234.51 81.0742 233.946 81.0742 233.317C81.0742 232.671 81.1675 232.032 81.3542 231.399C81.5449 230.766 81.8289 230.166 82.2063 229.597L83.4055 230.468C83.3324 230.569 83.2411 230.719 83.1316 230.918C83.026 231.117 82.9246 231.346 82.8272 231.606C82.7298 231.866 82.6446 232.146 82.5716 232.446C82.5026 232.746 82.4681 233.049 82.4681 233.353C82.4681 233.714 82.5431 234.043 82.6933 234.339C82.8475 234.635 83.0545 234.889 83.3142 235.1C83.5739 235.315 83.8742 235.481 84.215 235.599C84.56 235.721 84.9231 235.786 85.3046 235.794C85.3249 235.794 85.3452 235.794 85.3655 235.794C85.6495 235.794 85.9275 235.766 86.1994 235.709C86.4753 235.656 86.7371 235.573 86.9846 235.459C87.2321 235.35 87.4574 235.216 87.6603 235.057C87.8631 234.899 88.0356 234.723 88.1776 234.528C88.3197 234.333 88.4292 234.122 88.5063 233.895C88.5672 233.7 88.5976 233.497 88.5976 233.286C88.5976 233.254 88.5976 233.219 88.5976 233.183C88.5895 232.996 88.5571 232.789 88.5003 232.562C88.4475 232.33 88.3826 232.097 88.3055 231.862C88.2284 231.626 88.1452 231.397 88.0559 231.174C87.9707 230.947 87.8895 230.746 87.8124 230.571C87.7353 230.397 87.6704 230.257 87.6176 230.151C87.5649 230.046 87.5365 229.993 87.5324 229.993L88.9629 229.196C88.975 229.212 89.0075 229.279 89.0603 229.397C89.113 229.514 89.1759 229.668 89.2489 229.859C89.322 230.05 89.4011 230.269 89.4863 230.517C89.5716 230.76 89.6507 231.02 89.7237 231.296C89.8008 231.568 89.8658 231.846 89.9185 232.13C89.9753 232.414 90.0098 232.686 90.022 232.945C90.026 233.034 90.0281 233.122 90.0281 233.207C90.0281 233.487 89.9997 233.785 89.9429 234.102C89.886 234.422 89.7785 234.747 89.6203 235.076C89.466 235.404 89.2611 235.709 89.0055 235.989C88.7498 236.269 88.4414 236.51 88.0803 236.713C87.7232 236.92 87.3072 237.08 86.8324 237.194C86.3576 237.312 85.824 237.37 85.2316 237.37ZM86.7655 229.062L85.5968 230.23L84.4342 229.062L85.5968 227.899L86.7655 229.062ZM93.622 233.183C93.1148 233.183 92.6359 233.069 92.1855 232.842C91.7391 232.614 91.3191 232.298 90.9255 231.892L91.8203 230.632C92.1896 230.973 92.5345 231.221 92.8551 231.375C93.1756 231.525 93.482 231.6 93.7742 231.6C93.9162 231.6 94.0664 231.588 94.2246 231.563C94.3869 231.535 94.5472 231.497 94.7055 231.448C94.8638 231.399 95.0139 231.342 95.1559 231.277C95.302 231.208 95.4278 231.135 95.5333 231.058L93.5916 226.371L95.0342 225.769C95.1032 225.947 95.1803 226.138 95.2655 226.341C95.3507 226.544 95.442 226.763 95.5394 226.998L97.0672 230.681C97.1241 230.819 97.1829 230.947 97.2438 231.064C97.3087 231.178 97.3817 231.277 97.4629 231.363C97.5481 231.444 97.6435 231.509 97.749 231.557C97.8585 231.602 97.9843 231.624 98.1264 231.624H98.2664V233.183H98.1264C97.8707 233.183 97.6496 233.162 97.4629 233.122C97.2803 233.085 97.12 233.034 96.982 232.97C96.8441 232.901 96.7223 232.821 96.6168 232.732C96.5113 232.639 96.4098 232.539 96.3125 232.434C96.1177 232.58 95.9188 232.702 95.7159 232.799C95.513 232.897 95.3 232.974 95.0768 233.03C94.8536 233.087 94.6223 233.126 94.3829 233.146C94.1435 233.17 93.8898 233.183 93.622 233.183ZM98.2682 231.624C98.4914 231.624 98.6903 231.576 98.8647 231.478C99.0433 231.381 99.1995 231.251 99.3334 231.089C99.4714 230.926 99.5911 230.742 99.6926 230.535C99.7981 230.328 99.8894 230.115 99.9665 229.896C100.044 229.677 100.111 229.461 100.167 229.25C100.224 229.035 100.275 228.843 100.32 228.672L101.841 229.007C101.805 229.121 101.756 229.267 101.695 229.445C101.634 229.62 101.575 229.806 101.519 230.005C101.466 230.2 101.421 230.397 101.385 230.596C101.356 230.746 101.342 230.886 101.342 231.016C101.342 231.056 101.346 231.127 101.354 231.229C101.362 231.33 101.403 231.432 101.476 231.533C101.553 231.63 101.677 231.679 101.847 231.679C102.03 231.679 102.194 231.628 102.34 231.527C102.486 231.421 102.616 231.286 102.73 231.119C102.848 230.949 102.949 230.756 103.034 230.541C103.124 230.326 103.199 230.107 103.26 229.883C103.324 229.656 103.377 229.435 103.418 229.22C103.462 229.005 103.497 228.812 103.521 228.642L104.946 228.916C104.933 229.013 104.915 229.129 104.891 229.263C104.871 229.397 104.848 229.543 104.824 229.701C104.8 229.855 104.775 230.017 104.751 230.188C104.731 230.358 104.714 230.529 104.702 230.699C104.702 230.732 104.702 230.764 104.702 230.797C104.702 230.894 104.712 230.995 104.733 231.101C104.753 231.202 104.795 231.3 104.86 231.393C104.925 231.482 105.011 231.555 105.116 231.612C105.222 231.665 105.351 231.693 105.506 231.697C105.794 231.697 106.029 231.624 106.212 231.478C106.394 231.332 106.486 231.109 106.486 230.809C106.486 230.59 106.455 230.352 106.394 230.097C106.337 229.841 106.266 229.591 106.181 229.348C106.1 229.104 106.013 228.875 105.92 228.66C105.826 228.445 105.745 228.266 105.676 228.124L106.985 227.394C107.009 227.439 107.048 227.52 107.1 227.637C107.157 227.755 107.22 227.901 107.289 228.076C107.362 228.246 107.435 228.439 107.508 228.654C107.581 228.869 107.648 229.096 107.709 229.336C107.774 229.571 107.825 229.812 107.861 230.06C107.902 230.308 107.922 230.551 107.922 230.79C107.922 231.168 107.863 231.509 107.746 231.813C107.632 232.117 107.462 232.377 107.234 232.592C107.011 232.807 106.735 232.972 106.406 233.085C106.09 233.199 105.727 233.256 105.317 233.256C105.305 233.256 105.291 233.256 105.274 233.256C105.258 233.256 105.244 233.256 105.232 233.256C105.041 233.256 104.866 233.229 104.708 233.177C104.55 233.128 104.404 233.059 104.27 232.97C104.14 232.876 104.022 232.771 103.917 232.653C103.815 232.535 103.724 232.416 103.643 232.294C103.55 232.428 103.448 232.554 103.339 232.671C103.229 232.785 103.101 232.884 102.955 232.97C102.813 233.055 102.651 233.122 102.468 233.17C102.29 233.223 102.083 233.252 101.847 233.256C101.835 233.256 101.821 233.256 101.805 233.256C101.622 233.256 101.452 233.231 101.293 233.183C101.139 233.134 100.995 233.067 100.861 232.982C100.731 232.892 100.612 232.789 100.502 232.671C100.397 232.554 100.299 232.43 100.21 232.3C100.133 232.414 100.04 232.523 99.93 232.629C99.8245 232.734 99.6926 232.83 99.5343 232.915C99.3801 232.996 99.1975 233.061 98.9865 233.11C98.7755 233.158 98.5279 233.183 98.2439 233.183H98.0247V231.624H98.2682ZM103.625 225.811L102.59 226.846L101.543 225.805L102.578 224.764L103.625 225.811ZM105.926 225.817L104.891 226.858L103.844 225.811L104.879 224.777L105.926 225.817ZM102.785 224.052L103.734 223.103L104.69 224.058L103.74 225.008L102.785 224.052ZM114.885 231.077C114.646 231.434 114.469 231.823 114.355 232.245C114.242 232.667 114.185 233.087 114.185 233.505C114.185 233.838 114.262 234.134 114.416 234.394C114.571 234.658 114.767 234.879 115.007 235.057C115.246 235.24 115.512 235.378 115.804 235.471C116.096 235.569 116.38 235.617 116.656 235.617C116.936 235.617 117.226 235.569 117.527 235.471C117.831 235.378 118.109 235.228 118.361 235.021C118.612 234.818 118.819 234.554 118.982 234.23C119.144 233.909 119.225 233.519 119.225 233.061C119.225 232.74 119.219 232.363 119.207 231.929C119.195 231.494 119.178 231.034 119.158 230.547C119.142 230.056 119.122 229.551 119.097 229.031C119.073 228.512 119.049 228.005 119.024 227.51C118.996 226.929 118.961 226.325 118.921 225.696C118.884 225.063 118.848 224.43 118.811 223.797L120.4 223.498C120.428 224.164 120.457 224.825 120.485 225.483C120.518 226.136 120.544 226.765 120.564 227.37C120.58 227.885 120.597 228.412 120.613 228.952C120.633 229.492 120.649 230.015 120.662 230.523C120.678 231.026 120.69 231.499 120.698 231.941C120.71 232.383 120.716 232.765 120.716 233.085C120.716 233.597 120.655 234.053 120.534 234.455C120.416 234.857 120.256 235.208 120.053 235.508C119.85 235.812 119.613 236.07 119.341 236.281C119.073 236.492 118.789 236.664 118.489 236.798C118.192 236.932 117.89 237.028 117.582 237.084C117.273 237.145 116.977 237.176 116.693 237.176C116.421 237.176 116.135 237.145 115.835 237.084C115.538 237.023 115.244 236.93 114.952 236.804C114.66 236.679 114.382 236.516 114.118 236.317C113.854 236.123 113.621 235.889 113.418 235.617C113.219 235.346 113.063 235.033 112.949 234.68C112.836 234.343 112.779 233.964 112.779 233.542C112.779 233.53 112.779 233.515 112.779 233.499C112.779 233.239 112.793 232.974 112.822 232.702C112.854 232.43 112.903 232.162 112.968 231.898C113.033 231.634 113.114 231.381 113.211 231.137C113.309 230.894 113.428 230.671 113.57 230.468L114.885 231.077ZM125.418 233.183H125.175C124.351 233.183 123.726 232.976 123.3 232.562C122.874 232.148 122.659 231.523 122.655 230.687C122.655 230.557 122.659 230.344 122.667 230.048C122.675 229.748 122.679 229.382 122.679 228.952C122.679 228.697 122.677 228.423 122.673 228.13C122.669 227.834 122.663 227.534 122.655 227.23C122.646 226.921 122.634 226.615 122.618 226.31C122.606 226.002 122.59 225.706 122.569 225.422C122.549 225.134 122.525 224.866 122.496 224.618C122.468 224.367 122.435 224.146 122.399 223.955L123.927 223.498C123.971 223.734 124.012 224.022 124.048 224.363C124.085 224.699 124.117 225.061 124.146 225.446C124.174 225.832 124.195 226.225 124.207 226.627C124.223 227.025 124.231 227.4 124.231 227.753C124.231 227.968 124.233 228.197 124.237 228.441C124.241 228.68 124.243 228.891 124.243 229.074C124.243 229.228 124.241 229.374 124.237 229.512C124.237 229.646 124.235 229.776 124.231 229.902C124.231 230.028 124.229 230.151 124.225 230.273C124.225 230.395 124.225 230.519 124.225 230.644C124.225 230.677 124.225 230.709 124.225 230.742C124.225 230.888 124.239 231.018 124.268 231.131C124.3 231.245 124.355 231.34 124.432 231.417C124.509 231.49 124.606 231.543 124.724 231.576C124.846 231.608 124.986 231.624 125.144 231.624H125.418V233.183ZM132.384 233.183H132.171C131.859 233.183 131.552 233.17 131.252 233.146C130.956 233.122 130.672 233.077 130.4 233.012C130.132 232.951 129.876 232.868 129.633 232.763C129.389 232.657 129.166 232.521 128.963 232.355C128.744 232.509 128.488 232.639 128.196 232.744C127.908 232.85 127.604 232.935 127.283 233C126.967 233.061 126.646 233.106 126.321 233.134C125.997 233.166 125.688 233.183 125.396 233.183H125.177V231.624H125.39C125.565 231.624 125.743 231.618 125.926 231.606C126.112 231.594 126.295 231.576 126.474 231.551C126.656 231.527 126.833 231.499 127.003 231.466C127.178 231.434 127.34 231.395 127.49 231.35C127.332 231.192 127.182 231.042 127.04 230.9C126.898 230.754 126.754 230.61 126.608 230.468C126.465 230.322 126.315 230.174 126.157 230.023C126.003 229.869 125.834 229.707 125.652 229.537L125.737 228.27C125.968 228.068 126.204 227.897 126.443 227.759C126.687 227.621 126.924 227.51 127.155 227.424C127.387 227.335 127.61 227.268 127.825 227.223C128.04 227.175 128.237 227.142 128.415 227.126C128.598 227.106 128.783 227.096 128.969 227.096C129.192 227.096 129.466 227.116 129.791 227.157C130.116 227.193 130.45 227.288 130.795 227.443C131.027 227.544 131.213 227.658 131.355 227.783C131.501 227.905 131.615 228.029 131.696 228.155C131.781 228.277 131.84 228.396 131.873 228.514C131.905 228.628 131.923 228.727 131.928 228.812C131.932 228.849 131.934 228.883 131.934 228.916C131.934 229.078 131.899 229.265 131.83 229.476C131.765 229.683 131.664 229.904 131.526 230.139C131.392 230.374 131.234 230.604 131.051 230.827C130.868 231.046 130.676 231.243 130.473 231.417C130.72 231.486 130.988 231.539 131.276 231.576C131.564 231.608 131.867 231.624 132.183 231.624H132.384V233.183ZM127.277 228.983C127.419 229.157 127.569 229.332 127.728 229.506C127.886 229.677 128.04 229.839 128.19 229.993C128.34 230.143 128.48 230.283 128.61 230.413C128.74 230.539 128.85 230.646 128.939 230.736C129.077 230.646 129.231 230.525 129.401 230.37C129.576 230.216 129.742 230.054 129.901 229.883C130.059 229.713 130.199 229.547 130.321 229.384C130.442 229.222 130.521 229.088 130.558 228.983C130.461 228.93 130.349 228.881 130.223 228.837C130.097 228.792 129.963 228.755 129.821 228.727C129.683 228.694 129.541 228.67 129.395 228.654C129.253 228.634 129.115 228.623 128.981 228.623C128.856 228.623 128.718 228.634 128.568 228.654C128.417 228.67 128.265 228.694 128.111 228.727C127.957 228.755 127.807 228.792 127.661 228.837C127.519 228.881 127.391 228.93 127.277 228.983ZM132.282 231.624C132.708 231.624 133.118 231.612 133.512 231.588C133.905 231.559 134.264 231.521 134.589 231.472C134.914 231.423 135.194 231.365 135.429 231.296C135.664 231.227 135.841 231.15 135.959 231.064H135.338C134.981 231.064 134.64 231.02 134.315 230.93C133.995 230.837 133.713 230.699 133.469 230.517C133.226 230.334 133.031 230.107 132.885 229.835C132.743 229.559 132.672 229.238 132.672 228.873C132.672 228.658 132.694 228.437 132.739 228.21C132.783 227.982 132.85 227.761 132.94 227.546C133.029 227.331 133.136 227.128 133.262 226.937C133.388 226.747 133.532 226.58 133.694 226.438C133.857 226.292 134.035 226.179 134.23 226.097C134.425 226.012 134.636 225.97 134.863 225.97C135.143 225.97 135.405 226.028 135.648 226.146C135.892 226.264 136.113 226.424 136.312 226.627C136.511 226.826 136.687 227.057 136.841 227.321C136.995 227.585 137.125 227.863 137.231 228.155C137.336 228.447 137.415 228.745 137.468 229.05C137.525 229.35 137.553 229.636 137.553 229.908C137.553 230.37 137.489 230.772 137.359 231.113C137.233 231.454 137.054 231.746 136.823 231.99C136.596 232.233 136.322 232.432 136.001 232.586C135.685 232.74 135.334 232.862 134.948 232.951C134.563 233.041 134.149 233.101 133.707 233.134C133.268 233.166 132.814 233.183 132.343 233.183H132.136V231.624H132.282ZM134.863 227.54C134.843 227.536 134.822 227.534 134.802 227.534C134.721 227.534 134.628 227.566 134.522 227.631C134.417 227.696 134.315 227.79 134.218 227.911C134.12 228.033 134.041 228.171 133.98 228.325C133.92 228.475 133.889 228.623 133.889 228.77C133.889 228.778 133.889 228.786 133.889 228.794C133.889 228.94 133.922 229.06 133.987 229.153C134.051 229.242 134.139 229.311 134.248 229.36C134.362 229.409 134.492 229.443 134.638 229.463C134.788 229.484 134.946 229.498 135.113 229.506C135.222 229.51 135.336 229.512 135.453 229.512C135.51 229.512 135.598 229.512 135.715 229.512C135.837 229.508 135.961 229.502 136.087 229.494C136.05 229.348 135.997 229.167 135.928 228.952C135.863 228.733 135.78 228.522 135.679 228.319C135.581 228.112 135.464 227.934 135.326 227.783C135.192 227.633 135.038 227.552 134.863 227.54ZM135.983 223.991L134.814 225.16L133.652 223.991L134.814 222.829L135.983 223.991Z" fill="#333333"/>
</g>
<g filter="url(#filter4_d_1605_12179)">
<rect x="154" y="212" width="34" height="34" rx="8" fill="#FFCC00"/>
</g>
<path d="M173.139 227.957C172.569 227.957 172.009 227.89 171.459 227.758C170.917 227.626 170.416 227.414 169.957 227.122C170.152 228.743 170.27 230.242 170.312 231.619C170.36 232.99 170.385 234.273 170.385 235.47H167.745C167.745 234.085 167.717 232.715 167.661 231.358C167.612 229.995 167.501 228.687 167.327 227.435C167.153 226.183 166.903 225.007 166.576 223.908C166.256 222.809 165.825 221.831 165.282 220.976L167.505 219.577C167.734 219.96 167.946 220.336 168.141 220.704C168.343 221.073 168.524 221.449 168.684 221.831C168.878 221.456 169.115 221.122 169.393 220.83C169.672 220.53 169.978 220.277 170.312 220.068C170.652 219.859 171.014 219.696 171.397 219.577C171.779 219.459 172.176 219.39 172.586 219.369C172.656 219.369 172.729 219.369 172.805 219.369C173.07 219.369 173.365 219.39 173.692 219.431C174.026 219.473 174.374 219.56 174.736 219.692C175.105 219.817 175.452 219.988 175.779 220.203C176.106 220.419 176.388 220.687 176.625 221.007L175.132 222.864L174.924 222.729C174.785 222.638 174.6 222.541 174.371 222.437C174.148 222.332 173.891 222.235 173.598 222.144C173.313 222.054 173.021 222.005 172.722 221.998C172.465 222.033 172.193 222.11 171.908 222.228C171.623 222.346 171.362 222.496 171.125 222.677C170.889 222.85 170.698 223.049 170.552 223.271C170.426 223.459 170.364 223.654 170.364 223.856C170.364 223.89 170.367 223.929 170.374 223.97V223.96C170.423 224.217 170.541 224.437 170.729 224.617C170.917 224.791 171.139 224.934 171.397 225.045C171.661 225.157 171.943 225.237 172.242 225.285C172.541 225.334 172.826 225.358 173.098 225.358C173.355 225.358 173.623 225.334 173.901 225.285C174.186 225.23 174.465 225.16 174.736 225.077C175.014 224.993 175.282 224.896 175.539 224.784C175.804 224.666 176.04 224.544 176.249 224.419L177.407 226.579C176.691 227.108 175.974 227.47 175.258 227.664C174.541 227.859 173.835 227.957 173.139 227.957Z" fill="#333333"/>
<defs>
<filter id="filter0_d_1605_12179" x="140" y="0" width="62" height="62" filterUnits="userSpaceOnUse" color-interpolation-filters="sRGB">
<feFlood flood-opacity="0" result="BackgroundImageFix"/>
<feColorMatrix in="SourceAlpha" type="matrix" values="0 0 0 0 0 0 0 0 0 0 0 0 0 0 0 0 0 0 127 0" result="hardAlpha"/>
<feOffset/>
<feGaussianBlur stdDeviation="7"/>
<feComposite in2="hardAlpha" operator="out"/>
<feColorMatrix type="matrix" values="0 0 0 0 0 0 0 0 0 0 0 0 0 0 0 0 0 0 0.16 0"/>
<feBlend mode="normal" in2="BackgroundImageFix" result="effect1_dropShadow_1605_12179"/>
<feBlend mode="normal" in="SourceGraphic" in2="effect1_dropShadow_1605_12179" result="shape"/>
</filter>
<filter id="filter1_d_1605_12179" x="140" y="66" width="62" height="62" filterUnits="userSpaceOnUse" color-interpolation-filters="sRGB">
<feFlood flood-opacity="0" result="BackgroundImageFix"/>
<feColorMatrix in="SourceAlpha" type="matrix" values="0 0 0 0 0 0 0 0 0 0 0 0 0 0 0 0 0 0 127 0" result="hardAlpha"/>
<feOffset/>
<feGaussianBlur stdDeviation="7"/>
<feComposite in2="hardAlpha" operator="out"/>
<feColorMatrix type="matrix" values="0 0 0 0 0 0 0 0 0 0 0 0 0 0 0 0 0 0 0.16 0"/>
<feBlend mode="normal" in2="BackgroundImageFix" result="effect1_dropShadow_1605_12179"/>
<feBlend mode="normal" in="SourceGraphic" in2="effect1_dropShadow_1605_12179" result="shape"/>
</filter>
<filter id="filter2_d_1605_12179" x="140" y="132" width="62" height="62" filterUnits="userSpaceOnUse" color-interpolation-filters="sRGB">
<feFlood flood-opacity="0" result="BackgroundImageFix"/>
<feColorMatrix in="SourceAlpha" type="matrix" values="0 0 0 0 0 0 0 0 0 0 0 0 0 0 0 0 0 0 127 0" result="hardAlpha"/>
<feOffset/>
<feGaussianBlur stdDeviation="7"/>
<feComposite in2="hardAlpha" operator="out"/>
<feColorMatrix type="matrix" values="0 0 0 0 0 0 0 0 0 0 0 0 0 0 0 0 0 0 0.16 0"/>
<feBlend mode="normal" in2="BackgroundImageFix" result="effect1_dropShadow_1605_12179"/>
<feBlend mode="normal" in="SourceGraphic" in2="effect1_dropShadow_1605_12179" result="shape"/>
</filter>
<filter id="filter3_d_1605_12179" x="0.992188" y="208.829" width="150.561" height="42.541" filterUnits="userSpaceOnUse" color-interpolation-filters="sRGB">
<feFlood flood-opacity="0" result="BackgroundImageFix"/>
<feColorMatrix in="SourceAlpha" type="matrix" values="0 0 0 0 0 0 0 0 0 0 0 0 0 0 0 0 0 0 127 0" result="hardAlpha"/>
<feOffset/>
<feGaussianBlur stdDeviation="7"/>
<feComposite in2="hardAlpha" operator="out"/>
<feColorMatrix type="matrix" values="0 0 0 0 0 0 0 0 0 0 0 0 0 0 0 0 0 0 0.16 0"/>
<feBlend mode="normal" in2="BackgroundImageFix" result="effect1_dropShadow_1605_12179"/>
<feBlend mode="normal" in="SourceGraphic" in2="effect1_dropShadow_1605_12179" result="shape"/>
</filter>
<filter id="filter4_d_1605_12179" x="140" y="198" width="62" height="62" filterUnits="userSpaceOnUse" color-interpolation-filters="sRGB">
<feFlood flood-opacity="0" result="BackgroundImageFix"/>
<feColorMatrix in="SourceAlpha" type="matrix" values="0 0 0 0 0 0 0 0 0 0 0 0 0 0 0 0 0 0 127 0" result="hardAlpha"/>
<feOffset/>
<feGaussianBlur stdDeviation="7"/>
<feComposite in2="hardAlpha" operator="out"/>
<feColorMatrix type="matrix" values="0 0 0 0 0 0 0 0 0 0 0 0 0 0 0 0 0 0 0.16 0"/>
<feBlend mode="normal" in2="BackgroundImageFix" result="effect1_dropShadow_1605_12179"/>
<feBlend mode="normal" in="SourceGraphic" in2="effect1_dropShadow_1605_12179" result="shape"/>
</filter>
</defs>
</svg>
