<svg width="40" height="40" viewBox="0 0 40 40" fill="none" xmlns="http://www.w3.org/2000/svg">
<rect width="40" height="40" rx="8" fill="#EBF9FF"/>
<path d="M28.9752 25C29.5412 25 30 24.5412 30 23.9752V19H27C25.3431 19 24 20.3431 24 22C24 23.6569 25.3431 25 27 25H28.9752Z" fill="#23B4FF"/>
<path d="M13 19H10V25H13C14.6569 25 16 23.6569 16 22C16 20.3431 14.6569 19 13 19Z" fill="#23B4FF"/>
<path fillRule="evenodd" clipRule="evenodd" d="M20 11C15.5817 11 12 14.5817 12 19V25H10V19C10 13.4772 14.4772 9 20 9C25.5228 9 30 13.4772 30 19V24C30 27.3137 27.3137 30 24 30H23C23 30.5523 22.5523 31 22 31C21.4477 31 21 30.5523 21 30V27C21 26.4477 21.4477 26 22 26C22.5523 26 23 26.4477 23 27V28H24C26.2091 28 28 26.2091 28 24V19C28 14.5817 24.4183 11 20 11Z" fill="#040A1F"/>
</svg>
