<svg width="320" height="416" viewBox="0 0 320 416" fill="none" xmlns="http://www.w3.org/2000/svg">
<g opacity="0.38">
<path d="M258.886 114.341C264.064 114.341 268.261 110.143 268.261 104.966C268.261 99.7882 264.064 95.5908 258.886 95.5908C253.709 95.5908 249.511 99.7882 249.511 104.966C249.511 110.143 253.709 114.341 258.886 114.341Z" fill="#F0F4FF"/>
<path d="M191.131 282.239C239.848 282.239 279.341 242.745 279.341 194.028C279.341 145.311 239.848 105.818 191.131 105.818C142.414 105.818 102.92 145.311 102.92 194.028C102.92 200.242 103.563 206.305 104.785 212.156C104.806 212.257 104.729 212.352 104.625 212.352C68.3813 212.352 39 241.734 39 277.977C39 314.221 68.3813 343.602 104.625 343.602C137.408 343.602 164.576 319.564 169.466 288.152C170.134 283.861 174.213 280.727 178.512 281.343C182.633 281.933 186.846 282.239 191.131 282.239Z" fill="#F0F4FF"/>
<path d="M243.545 311.642C243.545 319.879 236.868 326.557 228.631 326.557C220.393 326.557 213.716 319.879 213.716 311.642C213.716 303.405 220.393 296.727 228.631 296.727C236.868 296.727 243.545 303.405 243.545 311.642Z" fill="#F0F4FF"/>
</g>
<ellipse opacity="0.7" cx="171.303" cy="382.381" rx="54.1193" ry="9.80114" fill="#F0F4FF"/>
<path d="M207.391 284.901C205.051 282.656 200.214 281.51 196.645 281.51C188.552 281.51 182.665 285.777 181.287 293.021C180.935 294.87 179.452 296.412 177.57 296.412H176.567C175.446 296.412 174.339 296.166 173.323 295.692L169.588 293.949C169.501 293.909 169.537 293.778 169.632 293.787L170.216 293.846C173.728 294.197 176.698 291.336 178.048 288.075C180.571 281.978 186.579 277.689 193.588 277.689C199.304 277.689 204.354 280.542 207.391 284.901Z" fill="#4D83FF"/>
<path d="M207.391 284.901C205.051 282.656 200.214 281.51 196.645 281.51C188.552 281.51 182.665 285.777 181.287 293.021C180.935 294.87 179.452 296.412 177.57 296.412H176.567C175.446 296.412 174.339 296.166 173.323 295.692L169.588 293.949C169.501 293.909 169.537 293.778 169.632 293.787L170.216 293.846C173.728 294.197 176.698 291.336 178.048 288.075C180.571 281.978 186.579 277.689 193.588 277.689C199.304 277.689 204.354 280.542 207.391 284.901Z" fill="#3372FF"/>
<path opacity="0.4" d="M207.391 284.901C205.051 282.656 200.214 281.51 196.645 281.51C188.552 281.51 182.665 285.777 181.287 293.021C180.935 294.87 179.452 296.412 177.569 296.412H176.567C175.446 296.412 174.339 296.166 173.323 295.692L169.588 293.949C169.501 293.908 169.537 293.777 169.632 293.787L170.216 293.845C173.728 294.197 176.697 291.336 178.047 288.075C180.571 281.978 186.579 277.689 193.588 277.689C199.304 277.689 204.354 280.542 207.391 284.901Z" stroke="url(#paint0_linear_955_2717)" stroke-width="0.852273" stroke-linecap="round" stroke-linejoin="round"/>
<path d="M195.496 317.427L188.258 330.904L190.021 333.861C191.059 335.602 192.874 336.735 194.894 336.903C198.097 337.17 200.845 334.642 200.845 331.427L200.845 326.482C200.845 325.663 201.43 324.965 202.226 324.772C214.857 321.712 224.917 309.922 224.917 296.412C224.917 280.585 212.087 267.755 196.26 267.755C195.94 267.755 194.667 267.744 194.349 267.755L217.275 294.501L195.496 317.427Z" fill="#6B98FF"/>
<path d="M194.815 318.697L188.259 330.904L190.022 333.86C191.06 335.602 192.874 336.735 194.894 336.903C198.098 337.17 200.846 334.642 200.846 331.427L200.846 326.482C200.846 325.866 201.176 325.319 201.678 325.003L194.815 318.697Z" fill="#3372FF"/>
<path opacity="0.4" d="M195.496 317.427L188.258 330.904L190.021 333.861C191.059 335.602 192.874 336.735 194.894 336.903V336.903C198.097 337.17 200.845 334.642 200.845 331.427L200.845 326.482C200.845 325.663 201.43 324.965 202.226 324.772C214.857 321.712 224.917 309.922 224.917 296.412C224.917 280.585 212.087 267.755 196.26 267.755C195.94 267.755 194.667 267.744 194.349 267.755L217.275 294.501L195.496 317.427Z" stroke="url(#paint1_linear_955_2717)" stroke-width="0.852273" stroke-linecap="round" stroke-linejoin="round"/>
<path d="M197.408 322.455C197.408 321.607 198.033 320.894 198.865 320.727C211.109 318.277 220.333 307.466 220.333 294.501C220.333 279.73 208.358 267.755 193.587 267.755C180.503 267.755 169.613 277.149 167.295 289.56C166.792 292.257 169.064 294.501 171.807 294.501C174.55 294.501 176.701 292.229 177.499 289.605C179.595 282.708 186.005 277.689 193.587 277.689C202.872 277.689 210.399 285.216 210.399 294.501C210.399 303.787 202.872 311.314 193.587 311.314H192.058C189.526 311.314 187.473 313.367 187.473 315.899V328.229C187.473 330.972 189.697 333.196 192.44 333.196C195.184 333.196 197.408 330.972 197.408 328.229V322.455Z" fill="#99B8FF"/>
<g style="mix-blend-mode:overlay" opacity="0.4">
<path d="M189.884 332.489C189.435 331.743 189.177 330.868 189.177 329.934V317.603C189.177 315.071 191.23 313.018 193.762 313.018H195.291C204.576 313.018 212.103 305.491 212.103 296.206C212.103 291.13 209.853 286.579 206.296 283.496C208.852 286.445 210.398 290.293 210.398 294.501C210.398 303.787 202.871 311.314 193.586 311.314H192.058C189.525 311.314 187.473 313.367 187.473 315.899V328.229C187.473 330.038 188.439 331.621 189.884 332.489Z" fill="white"/>
<path d="M213.332 276.46C208.441 271.11 201.406 267.755 193.586 267.755C180.502 267.755 169.613 277.149 167.295 289.56C166.951 291.399 167.898 293.027 169.404 293.877C168.99 293.116 168.821 292.219 168.999 291.265C171.317 278.854 182.207 269.459 195.291 269.459C202.243 269.459 208.576 272.112 213.332 276.46Z" fill="white"/>
</g>
<path opacity="0.4" d="M197.408 322.455C197.408 321.607 198.033 320.894 198.865 320.727C211.109 318.277 220.333 307.466 220.333 294.501C220.333 279.73 208.358 267.755 193.587 267.755C180.503 267.755 169.613 277.149 167.295 289.56C166.792 292.257 169.064 294.501 171.807 294.501V294.501C174.55 294.501 176.701 292.229 177.499 289.605C179.595 282.708 186.005 277.689 193.587 277.689C202.872 277.689 210.399 285.216 210.399 294.501C210.399 303.787 202.872 311.314 193.587 311.314H192.058C189.526 311.314 187.473 313.367 187.473 315.899V328.229C187.473 330.972 189.697 333.196 192.44 333.196C195.184 333.196 197.408 330.972 197.408 328.229V322.455Z" stroke="url(#paint2_linear_955_2717)" stroke-width="0.852273" stroke-linecap="round" stroke-linejoin="round"/>
<path d="M196.647 353.829C199.601 353.829 201.995 351.434 201.995 348.48C201.995 345.526 199.601 343.132 196.647 343.131H192.826V344.735C191.88 345.7 191.296 347.022 191.296 348.48C191.296 349.938 191.88 351.26 192.826 352.225V353.829H196.647Z" fill="#4D83FF"/>
<path d="M196.647 353.829C199.601 353.829 201.995 351.434 201.995 348.48C201.995 345.526 199.601 343.132 196.647 343.131H192.826V344.735C191.88 345.7 191.296 347.022 191.296 348.48C191.296 349.938 191.88 351.26 192.826 352.225V353.829H196.647Z" fill="#3372FF"/>
<path opacity="0.4" d="M196.647 353.829C199.601 353.829 201.995 351.434 201.995 348.48C201.995 345.526 199.601 343.132 196.647 343.131H192.826V344.735C191.88 345.7 191.296 347.022 191.296 348.48C191.296 349.938 191.88 351.26 192.826 352.225V353.829H196.647Z" stroke="url(#paint3_linear_955_2717)" stroke-width="0.852273" stroke-linecap="round" stroke-linejoin="round"/>
<circle cx="192.822" cy="348.48" r="5.34936" fill="#99B8FF"/>
<circle opacity="0.4" cx="192.822" cy="348.48" r="5.34936" stroke="url(#paint4_linear_955_2717)" stroke-width="0.852273" stroke-linecap="round" stroke-linejoin="round"/>
<path d="M108.303 225.387C105.364 225.387 101.381 226.33 99.4543 228.179C101.955 224.589 106.113 222.241 110.82 222.241C111.992 222.241 113.215 222.2 114.448 222.16C120.825 221.951 127.431 221.735 128.24 227.03C128.25 227.098 128.26 227.165 128.271 227.233C128.317 227.538 128.363 227.845 128.421 228.148L124.281 230.86C122.401 232.092 119.859 231.133 118.381 229.441C116.102 226.831 112.576 225.387 108.303 225.387Z" fill="#427CFF"/>
<path opacity="0.4" d="M108.303 225.387C105.364 225.387 101.381 226.331 99.4543 228.179C101.955 224.589 106.113 222.241 110.82 222.241C111.992 222.241 113.215 222.201 114.448 222.16C120.825 221.951 127.431 221.735 128.24 227.03C128.25 227.098 128.26 227.166 128.271 227.233V227.233C128.354 227.788 128.114 228.349 127.645 228.657L124.281 230.86C122.401 232.092 119.859 231.133 118.381 229.441C116.102 226.832 112.576 225.387 108.303 225.387Z" stroke="url(#paint5_linear_955_2717)" stroke-width="0.852273" stroke-linecap="round" stroke-linejoin="round"/>
<path d="M109.249 254.959L115.208 262.51L113.757 264.945C112.902 266.378 111.408 267.311 109.745 267.45C107.107 267.67 104.844 265.588 104.844 262.941L104.844 262.434C104.844 261.748 104.355 261.164 103.689 261.002C93.2978 258.476 85.0243 248.773 85.0243 237.656C85.0243 224.625 95.5883 214.061 108.62 214.061C108.883 214.061 109.931 214.052 110.193 214.061L91.3163 236.083L109.249 254.959Z" fill="#99B8FF"/>
<path d="M110.226 256.2L115.206 262.51L113.755 264.945C112.9 266.378 111.406 267.311 109.743 267.45C107.105 267.67 104.843 265.588 104.843 262.941L104.843 262.434C104.843 262.169 104.77 261.919 104.641 261.703L108.303 257.162L110.226 256.2Z" fill="#6B98FF"/>
<path opacity="0.4" d="M109.249 254.959L113.343 260.147C114.466 261.57 114.595 263.538 113.667 265.095V265.095C112.878 266.419 111.451 267.229 109.911 267.229H108.699C106.836 267.229 105.278 265.812 105.102 263.957L104.966 262.527C104.894 261.772 104.329 261.161 103.592 260.978C93.2465 258.416 85.0243 248.739 85.0243 237.656C85.0243 224.625 95.5883 214.061 108.62 214.061V214.061C109.253 214.061 109.581 214.774 109.169 215.255L95.8215 230.827C93.2621 233.813 93.3756 238.251 96.0842 241.102L109.249 254.959Z" stroke="url(#paint6_linear_955_2717)" stroke-width="0.852273" stroke-linecap="round" stroke-linejoin="round"/>
<path d="M108.303 281.386C105.87 281.386 103.898 279.414 103.898 276.982C103.898 274.549 105.87 272.577 108.303 272.577C108.303 272.577 108.303 272.577 108.303 272.577H111.449V273.899C112.227 274.694 112.707 275.782 112.707 276.982C112.707 278.182 112.227 279.27 111.449 280.064V281.386H108.303C108.303 281.386 108.303 281.386 108.303 281.386Z" fill="#6B98FF"/>
<path d="M108.303 281.386C105.87 281.386 103.898 279.414 103.898 276.982C103.898 274.549 105.87 272.577 108.303 272.577C108.303 272.577 108.303 272.577 108.303 272.577H111.449V273.899C112.227 274.694 112.707 275.782 112.707 276.982C112.707 278.182 112.227 279.27 111.449 280.064V281.386H108.303C108.303 281.386 108.303 281.386 108.303 281.386Z" fill="#427CFF"/>
<path opacity="0.4" d="M108.303 281.386C105.87 281.386 103.898 279.414 103.898 276.982C103.898 274.549 105.87 272.577 108.303 272.577M108.303 281.386H110.51C111.029 281.386 111.449 280.966 111.449 280.448C111.449 280.202 111.549 279.969 111.705 279.779C112.331 279.019 112.707 278.044 112.707 276.982C112.707 275.92 112.331 274.945 111.705 274.184C111.549 273.995 111.449 273.762 111.449 273.516C111.449 272.998 111.029 272.577 110.51 272.577H108.303M108.303 281.386C108.303 281.386 108.303 281.386 108.303 281.386ZM108.303 272.577C108.303 272.577 108.303 272.577 108.303 272.577Z" stroke="url(#paint7_linear_955_2717)" stroke-width="0.852273" stroke-linecap="round" stroke-linejoin="round"/>
<circle cx="4.40448" cy="4.40448" r="4.40448" transform="matrix(-1 0 0 1 115.854 272.577)" fill="#DFE9FF"/>
<circle opacity="0.4" cx="4.40448" cy="4.40448" r="4.40448" transform="matrix(-1 0 0 1 115.854 272.577)" stroke="url(#paint8_linear_955_2717)" stroke-width="0.852273" stroke-linecap="round" stroke-linejoin="round"/>
<path d="M106.218 257.624C107.048 257.8 107.674 258.512 107.674 259.361V260.308C107.674 262.567 109.506 264.398 111.764 264.398C114.023 264.398 115.854 262.567 115.854 260.308V253.701C115.854 251.616 114.164 249.926 112.079 249.926H110.821C103.175 249.926 96.9778 243.728 96.9778 236.083C96.9778 228.438 103.175 222.24 110.821 222.24C115.018 222.24 118.779 224.109 121.318 227.059C122.97 228.979 125.857 229.964 127.958 228.549C129.557 227.472 130.159 225.364 129.08 223.767C125.122 217.911 118.421 214.061 110.821 214.061C98.6579 214.061 88.7981 223.921 88.7981 236.083C88.7981 246.667 96.265 255.508 106.218 257.624Z" fill="#DFE9FF"/>
<g style="mix-blend-mode:overlay">
<path d="M112.69 264.293C114.503 263.873 115.855 262.248 115.855 260.308V253.701C115.855 251.616 114.164 249.926 112.079 249.926H110.821C103.176 249.926 96.9782 243.728 96.9782 236.083C96.9782 231.001 99.7171 226.558 103.799 224.151C98.7934 226.235 95.2742 231.174 95.2742 236.935C95.2742 244.581 101.472 250.778 109.117 250.778H110.375C112.46 250.778 114.151 252.468 114.151 254.553V261.16C114.151 262.417 113.583 263.542 112.69 264.293Z" fill="white"/>
<path d="M126.622 229.121C127.088 229.019 127.539 228.832 127.959 228.549C129.557 227.472 130.16 225.364 129.08 223.767C125.122 217.911 118.421 214.061 110.821 214.061C106.945 214.061 103.303 215.062 100.14 216.82C102.882 215.594 105.92 214.913 109.117 214.913C116.717 214.913 123.418 218.763 127.376 224.619C128.368 226.088 127.94 227.988 126.622 229.121Z" fill="white"/>
</g>
<path opacity="0.4" d="M106.218 257.624C107.048 257.8 107.674 258.512 107.674 259.361V260.308C107.674 262.567 109.506 264.398 111.764 264.398C114.023 264.398 115.854 262.567 115.854 260.308V253.701C115.854 251.616 114.164 249.926 112.079 249.926H110.821C103.175 249.926 96.9778 243.728 96.9778 236.083C96.9778 228.438 103.175 222.24 110.821 222.24C115.018 222.24 118.779 224.109 121.318 227.059C122.97 228.979 125.857 229.964 127.958 228.549C129.557 227.472 130.159 225.364 129.08 223.767C125.122 217.911 118.421 214.061 110.821 214.061C98.6579 214.061 88.7981 223.921 88.7981 236.083C88.7981 246.667 96.265 255.508 106.218 257.624Z" stroke="url(#paint9_linear_955_2717)" stroke-width="0.852273" stroke-linecap="round" stroke-linejoin="round"/>
<path d="M204.843 56.5127L198.753 51.1843L202.366 138.917L63.5417 160.592L70.7213 164.182C72.0961 164.869 73.6456 165.128 75.1691 164.924L211.655 146.658L207.162 61.2856C207.065 59.4468 206.229 57.7253 204.843 56.5127Z" fill="#C7D8FF"/>
<path opacity="0.4" d="M204.843 56.5127L198.753 51.1843L202.366 138.917L63.5417 160.592L70.7213 164.182C72.0961 164.869 73.6456 165.128 75.1691 164.924L211.655 146.658L207.162 61.2856C207.065 59.4468 206.229 57.7253 204.843 56.5127Z" stroke="url(#paint10_linear_955_2717)" stroke-width="0.852273" stroke-linecap="round" stroke-linejoin="round"/>
<path d="M202.366 138.917L211.32 146.703L121.913 158.668C120.543 158.852 119.348 159.688 118.705 160.911L112.073 173.545C110.74 176.084 107.33 176.608 105.296 174.586L93.1515 162.517L75.6625 164.858C73.8175 165.105 71.9409 164.792 70.276 163.959L63.5417 160.592L202.366 138.917Z" fill="#99B8FF"/>
<path opacity="0.4" d="M202.366 138.917L211.32 146.703L121.913 158.668C120.543 158.852 119.348 159.688 118.705 160.911L112.073 173.545C110.74 176.084 107.33 176.608 105.296 174.586L93.1515 162.517L75.6625 164.858C73.8175 165.105 71.9409 164.792 70.276 163.959L63.5417 160.592L202.366 138.917Z" stroke="url(#paint11_linear_955_2717)" stroke-width="0.852273" stroke-linecap="round" stroke-linejoin="round"/>
<path fill-rule="evenodd" clip-rule="evenodd" d="M210.143 117.885L201.475 117.211L202.368 138.917L146.16 147.694L143.725 155.75L211.658 146.659L210.143 117.885Z" fill="#3D79FF"/>
<path d="M68.4273 72.3534C63.745 73.2558 60.2904 77.2482 60.0701 82.0116L56.9066 150.423C56.6031 156.986 62.4271 162.158 68.9081 161.082L85.4213 158.339C87.3208 158.024 89.2557 158.644 90.6173 160.006L99.56 168.949C101.576 170.965 104.98 170.379 106.207 167.805L111.551 156.587C112.39 154.826 114.036 153.587 115.96 153.267L193.736 140.35C198.715 139.523 202.366 135.216 202.366 130.168V59.0404C202.366 52.5565 196.458 47.6784 190.091 48.9054L68.4273 72.3534Z" fill="#EBF1FF"/>
<g style="mix-blend-mode:overlay">
<path fill-rule="evenodd" clip-rule="evenodd" d="M61.0222 78.1341C62.3884 75.2003 65.0976 72.9952 68.428 72.3534L190.092 48.9054C196.459 47.6783 202.367 52.5565 202.367 59.0404V130.168C202.367 133.234 201.02 136.026 198.848 137.932C199.467 136.602 199.81 135.125 199.81 133.577V62.4494C199.81 55.9656 193.902 51.0874 187.535 52.3145L65.8712 75.7624C64.0222 76.1188 62.3647 76.9569 61.0222 78.1341Z" fill="white"/>
</g>
<path fill-rule="evenodd" clip-rule="evenodd" d="M202.361 117.255V131.693C202.361 135.861 199.346 139.418 195.234 140.101L145.979 148.281L153.316 123.956C155.176 117.787 161.101 113.763 167.521 114.306L202.361 117.255Z" fill="#D6E3FF"/>
<g style="mix-blend-mode:overlay">
<path d="M75.7285 97.7255C75.7285 95.9054 76.9796 94.3241 78.7508 93.9053L171.712 71.9262C174.388 71.2935 176.954 73.3234 176.954 76.0732V79.7137C176.954 81.7605 175.498 83.5183 173.487 83.9002L80.3865 101.582C77.9681 102.041 75.7285 100.187 75.7285 97.7255Z" fill="#363636"/>
</g>
<g style="mix-blend-mode:overlay">
<path d="M85.9292 112.77C85.9292 110.885 87.2576 109.26 89.1055 108.886L171.846 92.1237C174.486 91.5889 176.953 93.6068 176.953 96.3002V99.9773C176.953 102.085 175.412 103.877 173.328 104.191L90.4837 116.689C88.0864 117.051 85.9292 115.194 85.9292 112.77Z" fill="#363636"/>
</g>
<g style="mix-blend-mode:overlay">
<path fill-rule="evenodd" clip-rule="evenodd" d="M65.53 73.376C64.827 74.6951 64.4033 76.1808 64.3308 77.7502L61.1672 146.161C60.8638 152.724 66.6877 157.896 73.1687 156.82L86.8182 154.58C88.7143 154.269 90.6441 154.89 92.0028 156.249L100.951 165.197C102.967 167.213 106.371 166.627 107.597 164.053L112.943 152.834C113.781 151.074 115.426 149.835 117.349 149.515L197.996 136.089C199.127 135.901 200.189 135.534 201.155 135.02C199.686 137.776 196.995 139.809 193.735 140.35L115.959 153.267C114.036 153.587 112.389 154.826 111.551 156.586L106.206 167.805C104.979 170.379 101.575 170.965 99.5592 168.948L90.6165 160.006C89.255 158.644 87.32 158.024 85.4206 158.339L68.9074 161.081C62.4263 162.158 56.6024 156.985 56.9059 150.423L60.0694 82.0115C60.2411 78.2984 62.3781 75.0538 65.53 73.376Z" fill="#101010"/>
</g>
<path opacity="0.4" d="M68.4273 72.3534C63.745 73.2558 60.2904 77.2482 60.0701 82.0116L56.9066 150.423C56.6031 156.986 62.4271 162.158 68.9081 161.082L85.8537 158.267C87.4818 157.997 89.1403 158.529 90.3073 159.696L99.56 168.949C101.576 170.965 104.98 170.379 106.207 167.805L111.743 156.185C112.462 154.676 113.872 153.614 115.521 153.34L193.736 140.35C198.715 139.523 202.366 135.216 202.366 130.168V59.0404C202.366 52.5565 196.458 47.6784 190.091 48.9054L68.4273 72.3534Z" stroke="url(#paint12_linear_955_2717)" stroke-width="0.852273" stroke-linecap="round" stroke-linejoin="round"/>
<path d="M169.496 123.986L170.585 122.922L175.69 161.136L277.352 216.514L272.018 219.839C269.851 221.191 267.283 221.752 264.75 221.427L168.804 209.15C164.345 208.579 161.096 204.644 161.38 200.158L165.674 132.321C165.873 129.166 167.235 126.196 169.496 123.986Z" fill="#75A0FF"/>
<path d="M277.778 217.687L196.888 172.684L164.315 207.487C165.379 208.316 166.671 208.877 168.099 209.06L178.703 210.417C180.083 210.593 181.289 211.432 181.936 212.663L184.653 217.84C185.986 220.379 189.396 220.903 191.43 218.882L197.524 212.825L265.911 222.257C268.22 222.552 270.56 222.041 272.536 220.809L277.778 217.687Z" fill="#6B98FF"/>
<path d="M277.778 217.687L196.888 172.684L164.315 207.487C165.379 208.316 166.671 208.877 168.099 209.06L178.703 210.417C180.083 210.593 181.289 211.432 181.936 212.663L184.653 217.84C185.986 220.379 189.396 220.903 191.43 218.882L197.524 212.825L265.911 222.257C268.22 222.552 270.56 222.041 272.536 220.809L277.778 217.687Z" fill="#427CFF"/>
<path opacity="0.4" d="M277.777 217.687L272.535 220.809C270.56 222.041 268.22 222.552 265.911 222.257L197.524 212.825L191.43 218.882C189.396 220.903 185.986 220.379 184.653 217.84L181.935 212.663C181.289 211.432 180.082 210.593 178.703 210.417L174.501 209.879" stroke="url(#paint13_linear_955_2717)" stroke-width="0.852273" stroke-linecap="round" stroke-linejoin="round"/>
<path opacity="0.4" d="M170.585 122.922L169.496 123.986C167.235 126.196 165.874 129.166 165.674 132.321L161.381 200.158C161.097 204.644 164.346 208.579 168.804 209.15L174.35 209.86" stroke="url(#paint14_linear_955_2717)" stroke-width="0.852273" stroke-linecap="round" stroke-linejoin="round"/>
<path d="M271.54 138.303C274.352 138.812 276.454 141.172 276.635 144.024L280.94 211.844C281.194 215.835 277.666 219.023 273.721 218.367L205.386 207.019C204.301 206.838 203.195 207.193 202.417 207.971L195.335 215.053C193.703 216.685 190.954 216.257 189.895 214.206L185.17 205.05C184.676 204.094 183.76 203.427 182.699 203.251L174.242 201.846C171.244 201.348 169.046 198.755 169.046 195.716V127.196C169.046 123.321 172.554 120.391 176.367 121.081L271.54 138.303Z" fill="#B8CEFF"/>
<g style="mix-blend-mode:overlay">
<path fill-rule="evenodd" clip-rule="evenodd" d="M280.496 214.584C279.474 215.004 278.321 215.156 277.129 214.958L208.795 203.609C207.71 203.429 206.604 203.784 205.826 204.562L202.417 207.971C203.195 207.193 204.301 206.838 205.386 207.019L273.72 218.367C276.7 218.862 279.442 217.165 280.496 214.584ZM198.744 211.644C197.112 213.276 194.363 212.848 193.304 210.797L188.579 201.641C188.085 200.685 187.169 200.018 186.108 199.842L177.651 198.437C174.653 197.939 172.455 195.346 172.455 192.307V123.787C172.455 122.952 172.618 122.161 172.912 121.44C170.671 122.358 169.046 124.558 169.046 127.196V195.716C169.046 198.755 171.244 201.348 174.242 201.846L182.699 203.251C183.76 203.427 184.676 204.094 185.17 205.05L189.895 214.206C190.954 216.257 193.703 216.685 195.335 215.053L198.744 211.644Z" fill="#5B5B5B"/>
</g>
<g style="mix-blend-mode:overlay">
<path fill-rule="evenodd" clip-rule="evenodd" d="M276.635 144.024C276.454 141.172 274.351 138.811 271.539 138.303L176.366 121.081C174.827 120.802 173.338 121.113 172.11 121.838C172.389 121.851 172.671 121.882 172.955 121.933L268.129 139.155C270.94 139.664 273.043 142.025 273.224 144.876L277.529 212.696C277.685 215.155 276.406 217.309 274.478 218.447C278.105 218.607 281.177 215.577 280.94 211.843L276.635 144.024ZM207.867 207.431L202.006 206.324C200.813 206.099 199.59 206.525 198.795 207.444L191.921 215.393C191.804 215.528 191.68 215.651 191.549 215.763C192.775 216.3 194.286 216.102 195.335 215.053L202.416 207.971C203.194 207.193 204.3 206.838 205.386 207.018L207.867 207.431Z" fill="white"/>
</g>
<path opacity="0.4" d="M271.54 138.303C274.352 138.812 276.454 141.172 276.635 144.024L280.94 211.844C281.194 215.835 277.666 219.023 273.721 218.367L205.386 207.019C204.301 206.838 203.195 207.193 202.417 207.971L195.335 215.053C193.703 216.685 190.954 216.257 189.895 214.206L185.17 205.05C184.676 204.094 183.76 203.427 182.699 203.251L174.242 201.846C171.244 201.348 169.046 198.755 169.046 195.716V127.196C169.046 123.321 172.554 120.391 176.367 121.081L271.54 138.303Z" stroke="url(#paint15_linear_955_2717)" stroke-width="0.852273" stroke-linecap="round" stroke-linejoin="round"/>
<g style="mix-blend-mode:overlay">
<path d="M264.426 158.366C264.426 156.496 263.109 154.885 261.277 154.513L185.403 139.106C182.763 138.57 180.294 140.588 180.294 143.282V146.819C180.294 148.932 181.843 150.726 183.933 151.034L259.92 162.255C262.295 162.605 264.426 160.766 264.426 158.366Z" fill="#6D6D6D"/>
</g>
<g style="mix-blend-mode:overlay">
<path d="M267.291 176.254C267.291 174.414 265.998 172.826 264.196 172.453L227.363 164.833C224.718 164.286 222.238 166.305 222.238 169.006V169.504C222.238 171.578 223.732 173.351 225.776 173.704L262.75 180.078C265.122 180.487 267.291 178.661 267.291 176.254Z" fill="#6D6D6D"/>
</g>
<path opacity="0.3" d="M219.552 50.498L212.292 52.9632C211.812 53.1262 211.521 53.6136 211.606 54.1136C211.686 54.5891 212.085 54.9459 212.566 54.9731L222.536 55.537C224.65 55.6565 225.794 53.1015 224.296 51.6039C223.055 50.3621 221.215 49.9333 219.552 50.498Z" fill="#6B98FF"/>
<path opacity="0.4" d="M219.403 50.5488L212.292 52.9632C211.812 53.1262 211.521 53.6136 211.606 54.1136C211.686 54.5891 212.085 54.9459 212.566 54.9731L222.693 55.5459C224.753 55.6623 225.867 53.174 224.408 51.7156C223.098 50.4054 221.157 49.953 219.403 50.5488Z" stroke="url(#paint16_linear_955_2717)" stroke-width="0.852273" stroke-linecap="round" stroke-linejoin="round"/>
<path d="M201.006 26.7736L199.884 43.1233C199.849 43.6407 200.185 44.1105 200.686 44.2436C201.252 44.394 201.835 44.0667 202.002 43.5052L206.299 29.0175C206.85 27.1585 205.757 25.2113 203.883 24.7136C202.49 24.3436 201.105 25.3354 201.006 26.7736Z" fill="#6B98FF"/>
<path opacity="0.4" d="M201.006 26.7736L199.884 43.1233C199.849 43.6407 200.185 44.1105 200.686 44.2436C201.252 44.394 201.835 44.0667 202.002 43.5052L206.299 29.0175C206.85 27.1585 205.757 25.2113 203.883 24.7136C202.49 24.3436 201.105 25.3354 201.006 26.7736Z" stroke="url(#paint17_linear_955_2717)" stroke-width="0.852273" stroke-linecap="round" stroke-linejoin="round"/>
<path opacity="0.6" d="M213.479 37.6038L208.53 44.0189C208.12 44.5505 208.179 45.3064 208.667 45.7678C209.089 46.1673 209.724 46.24 210.226 45.9463L217.218 41.8529C218.877 40.882 219.139 38.5909 217.743 37.2703C216.503 36.0977 214.521 36.2526 213.479 37.6038Z" fill="#6B98FF"/>
<path opacity="0.4" d="M213.479 37.6038L208.53 44.0189C208.12 44.5505 208.179 45.3064 208.667 45.7678C209.089 46.1673 209.724 46.24 210.226 45.9463L217.218 41.8529C218.877 40.882 219.139 38.5909 217.743 37.2703C216.503 36.0977 214.521 36.2526 213.479 37.6038Z" stroke="url(#paint18_linear_955_2717)" stroke-width="0.852273" stroke-linecap="round" stroke-linejoin="round"/>
<defs>
<linearGradient id="paint0_linear_955_2717" x1="181.722" y1="292.629" x2="214.912" y2="249.085" gradientUnits="userSpaceOnUse">
<stop stop-color="#1B217C"/>
<stop offset="1" stop-color="#1B217C" stop-opacity="0"/>
</linearGradient>
<linearGradient id="paint1_linear_955_2717" x1="200.321" y1="323.329" x2="277.995" y2="297.08" gradientUnits="userSpaceOnUse">
<stop stop-color="#1B217C"/>
<stop offset="1" stop-color="#1B217C" stop-opacity="0"/>
</linearGradient>
<linearGradient id="paint2_linear_955_2717" x1="184.441" y1="319.976" x2="283.456" y2="268.01" gradientUnits="userSpaceOnUse">
<stop stop-color="#1B217C"/>
<stop offset="1" stop-color="#1B217C" stop-opacity="0"/>
</linearGradient>
<linearGradient id="paint3_linear_955_2717" x1="194.817" y1="351.668" x2="212.702" y2="340.185" gradientUnits="userSpaceOnUse">
<stop stop-color="#1B217C"/>
<stop offset="1" stop-color="#1B217C" stop-opacity="0"/>
</linearGradient>
<linearGradient id="paint4_linear_955_2717" x1="190.993" y1="351.668" x2="208.878" y2="340.185" gradientUnits="userSpaceOnUse">
<stop stop-color="#1B217C"/>
<stop offset="1" stop-color="#1B217C" stop-opacity="0"/>
</linearGradient>
<linearGradient id="paint5_linear_955_2717" x1="108.986" y1="231.037" x2="127.249" y2="200.781" gradientUnits="userSpaceOnUse">
<stop stop-color="#1B217C"/>
<stop offset="1" stop-color="#1B217C" stop-opacity="0"/>
</linearGradient>
<linearGradient id="paint6_linear_955_2717" x1="105.276" y1="256.989" x2="42.202" y2="234.27" gradientUnits="userSpaceOnUse">
<stop stop-color="#1B217C"/>
<stop offset="1" stop-color="#1B217C" stop-opacity="0"/>
</linearGradient>
<linearGradient id="paint7_linear_955_2717" x1="109.809" y1="279.607" x2="95.0827" y2="270.152" gradientUnits="userSpaceOnUse">
<stop stop-color="#1B217C"/>
<stop offset="1" stop-color="#1B217C" stop-opacity="0"/>
</linearGradient>
<linearGradient id="paint8_linear_955_2717" x1="2.89852" y1="7.02939" x2="17.6243" y2="-2.42542" gradientUnits="userSpaceOnUse">
<stop stop-color="#1B217C"/>
<stop offset="1" stop-color="#1B217C" stop-opacity="0"/>
</linearGradient>
<linearGradient id="paint9_linear_955_2717" x1="116.193" y1="254.229" x2="40.3702" y2="214.744" gradientUnits="userSpaceOnUse">
<stop stop-color="#1B217C"/>
<stop offset="1" stop-color="#1B217C" stop-opacity="0"/>
</linearGradient>
<linearGradient id="paint10_linear_955_2717" x1="225.603" y1="127.185" x2="166.751" y2="-8.56676" gradientUnits="userSpaceOnUse">
<stop stop-color="#1B217C"/>
<stop offset="1" stop-color="#1B217C" stop-opacity="0"/>
</linearGradient>
<linearGradient id="paint11_linear_955_2717" x1="61.6608" y1="158.777" x2="213.239" y2="158.777" gradientUnits="userSpaceOnUse">
<stop stop-color="#1B217C"/>
<stop offset="1" stop-color="#1B217C" stop-opacity="0"/>
</linearGradient>
<linearGradient id="paint12_linear_955_2717" x1="104.761" y1="145.625" x2="320.551" y2="-20.3371" gradientUnits="userSpaceOnUse">
<stop stop-color="#1B217C"/>
<stop offset="1" stop-color="#1B217C" stop-opacity="0"/>
</linearGradient>
<linearGradient id="paint13_linear_955_2717" x1="201.649" y1="212.795" x2="288.046" y2="87.5835" gradientUnits="userSpaceOnUse">
<stop stop-color="#1B217C"/>
<stop offset="1" stop-color="#1B217C" stop-opacity="0"/>
</linearGradient>
<linearGradient id="paint14_linear_955_2717" x1="239.026" y1="201.927" x2="63.9413" y2="69.6777" gradientUnits="userSpaceOnUse">
<stop stop-color="#1B217C"/>
<stop offset="1" stop-color="#1B217C" stop-opacity="0"/>
</linearGradient>
<linearGradient id="paint15_linear_955_2717" x1="205.868" y1="198.762" x2="377.047" y2="72.5803" gradientUnits="userSpaceOnUse">
<stop stop-color="#1B217C"/>
<stop offset="1" stop-color="#1B217C" stop-opacity="0"/>
</linearGradient>
<linearGradient id="paint16_linear_955_2717" x1="217.454" y1="56.2673" x2="226.737" y2="36.3218" gradientUnits="userSpaceOnUse">
<stop stop-color="#1B217C"/>
<stop offset="1" stop-color="#1B217C" stop-opacity="0"/>
</linearGradient>
<linearGradient id="paint17_linear_955_2717" x1="202.679" y1="38.0674" x2="187.092" y2="24.3099" gradientUnits="userSpaceOnUse">
<stop stop-color="#1B217C"/>
<stop offset="1" stop-color="#1B217C" stop-opacity="0"/>
</linearGradient>
<linearGradient id="paint18_linear_955_2717" x1="213.781" y1="44.9844" x2="212.035" y2="25.6776" gradientUnits="userSpaceOnUse">
<stop stop-color="#1B217C"/>
<stop offset="1" stop-color="#1B217C" stop-opacity="0"/>
</linearGradient>
</defs>
</svg>
