<svg xmlns="http://www.w3.org/2000/svg" width="50" height="50" viewBox="0 0 25 25" fill="none">
    <path d="M11.9043 7.35718H1.61871C1.50043 7.35718 1.39328 7.40517 1.31528 7.48317C1.23814 7.56032 1.19014 7.66746 1.19014 7.78575C1.19014 9.44259 2.53327 10.7857 4.19012 10.7857H11.9043C12.1409 10.7857 12.3329 10.9777 12.3329 11.2143V14.2143H4.19012C2.06014 14.2143 0.333008 15.9414 0.333008 18.0714V20.6428C0.333008 22.7728 2.06014 24.4999 4.19012 24.4999H11.0472C11.8872 24.4999 12.6458 24.1545 13.19 23.599C13.7343 24.1545 14.4929 24.4999 15.332 24.4999C15.5686 24.4999 15.7614 24.3079 15.7614 24.0713V11.2143C15.7614 9.08345 14.0343 7.35718 11.9043 7.35718ZM11.9043 21.0713H4.19012C3.95355 21.0713 3.76155 20.8793 3.76155 20.6428V18.0714C3.76155 17.8348 3.95355 17.6428 4.19012 17.6428H9.71264H11.0472H12.3329V20.6428C12.3329 20.8793 12.1409 21.0713 11.9043 21.0713Z" fill="#23B4FF"/>
</svg>