<svg width="40" height="40" viewBox="0 0 40 40" fill="none" xmlns="http://www.w3.org/2000/svg">
<rect width="40" height="40" rx="8" fill="#EBF9FF"/>
<path d="M18 10C18 9.44772 18.4477 9 19 9H30C30.5523 9 31 9.44772 31 10V28C31 28.5523 30.5523 29 30 29H11V23H18V10Z" fill="#23B4FF"/>
<path d="M22 9V10C22 11.6569 20.6569 13 19 13H18V10C18 9.44772 18.4477 9 19 9H22Z" fill="#040A1F"/>
<path d="M27 9V10C27 11.6569 28.3431 13 30 13H31V10C31 9.44772 30.5523 9 30 9H27Z" fill="#040A1F"/>
<path d="M27 28V29H30C30.5523 29 31 28.5523 31 28V25H30C28.3431 25 27 26.3431 27 28Z" fill="#040A1F"/>
<path d="M18 27H13V25H18V27Z" fill="#040A1F"/>
<path fillRule="evenodd" clipRule="evenodd" d="M12.75 20C12.75 19.5858 12.4142 19.25 12 19.25C11.5858 19.25 11.25 19.5858 11.25 20V21H10C9.44772 21 9 21.4477 9 22V30C9 30.5523 9.44772 31 10 31H21C21.5523 31 22 30.5523 22 30V22C22 21.4477 21.5523 21 21 21H19.75V20C19.75 19.5858 19.4142 19.25 19 19.25C18.5858 19.25 18.25 19.5858 18.25 20V21H12.75V20ZM11 23V29H20V23H11Z" fill="#040A1F"/>
</svg>
