<svg width="40" height="40" viewBox="0 0 40 40" fill="none" xmlns="http://www.w3.org/2000/svg">
<rect width="40" height="40" rx="8" fill="#EBF9FF"/>
<path d="M12 13C10.3431 13 9 14.3431 9 16V26C9 28.7614 11.2386 31 14 31H26C28.7614 31 31 28.7614 31 26V16C31 14.3431 29.6569 13 28 13H12Z" fill="#23B4FF"/>
<path fillRule="evenodd" clipRule="evenodd" d="M13.5371 12.2155C13.911 10.3458 15.5527 9 17.4594 9H22.5406C24.4473 9 26.089 10.3458 26.4629 12.2155L26.6198 13H28C29.6569 13 31 14.3431 31 16V19C31 19.3513 30.8157 19.6768 30.5145 19.8575L26.227 22.43C25.6054 22.803 24.894 23 24.169 23H22.8293C22.4175 24.1652 21.3062 25 20 25C18.6938 25 17.5825 24.1652 17.1707 23H15.831C15.106 23 14.3946 22.803 13.773 22.43L9.4855 19.8575C9.1843 19.6768 9 19.3513 9 19V16C9 14.3431 10.3431 13 12 13H13.3802L13.5371 12.2155ZM23 21H24.169C24.5315 21 24.8872 20.9015 25.198 20.715L29 18.4338V16C29 15.4477 28.5523 15 28 15H12C11.4477 15 11 15.4477 11 16V18.4338L14.802 20.715C15.1128 20.9015 15.4685 21 15.831 21H17C17 19.8954 17.8954 19 19 19H21C22.1046 19 23 19.8954 23 21ZM15.4198 13H24.5802L24.5017 12.6078C24.3148 11.6729 23.4939 11 22.5406 11H17.4594C16.506 11 15.6852 11.6729 15.4982 12.6078L15.4198 13ZM19 21H21V22C21 22.5523 20.5523 23 20 23C19.4477 23 19 22.5523 19 22V21Z" fill="#040A1F"/>
</svg>
