<svg width="40" height="40" viewBox="0 0 40 40" fill="none" xmlns="http://www.w3.org/2000/svg">
<rect width="40" height="40" rx="8" fill="#EBF9FF"/>
<path d="M31.0002 12C31.0002 10.3431 29.657 9 28.0002 9H14.0002C12.3433 9 11.0002 10.3431 11.0002 12V22.4815L10.3323 23C10.0912 23.1993 9.96041 23.5128 10.011 23.8276C10.5184 26.9872 12.7615 29.1338 14.1386 29.9048C14.3652 30.0317 14.6352 30.0317 14.8618 29.9048C15.4959 29.5498 16.3137 28.903 17.061 28H28.0002C29.657 28 31.0002 26.6569 31.0002 25V12Z" fill="#23B4FF"/>
<path fillRule="evenodd" clipRule="evenodd" d="M14.5002 21.0305L11.0101 23.7398C11.4637 26.3936 13.3216 28.244 14.5002 28.9583C15.6788 28.244 17.5367 26.3936 17.9903 23.7398L14.5002 21.0305ZM15.6924 19.4241C14.9953 18.8586 14.0051 18.8586 13.308 19.4241L9.707 22.2195L9.69517 22.2293C9.20125 22.6376 8.91279 23.2962 9.02361 23.9861C9.59054 27.5158 12.0733 29.8945 13.65 30.7774C14.1801 31.0742 14.8202 31.0742 15.3504 30.7774C16.9271 29.8945 19.4098 27.5158 19.9768 23.9861C20.0876 23.2962 19.7991 22.6376 19.3052 22.2293L19.2934 22.2195L15.6924 19.4241Z" fill="#040A1F"/>
<path fillRule="evenodd" clipRule="evenodd" d="M24.4721 16.8817C24.7972 16.7077 25.0002 16.3688 25.0002 16V9L23.0002 9L23.0002 14.1315L21.5549 13.168C21.219 12.944 20.7814 12.944 20.4455 13.168L19.0002 14.1315V9L17.0002 9V16C17.0002 16.3688 17.2032 16.7077 17.5283 16.8817C17.8535 17.0557 18.248 17.0366 18.5549 16.8321L21.0002 15.2019L23.4455 16.8321C23.7523 17.0366 24.1469 17.0557 24.4721 16.8817Z" fill="#040A1F"/>
</svg>
